<svg xmlns="http://www.w3.org/2000/svg" width="112" height="112" viewBox="0 0 112 112">
  <g id="Group_227" data-name="Group 227" transform="translate(-7907 -11780)">
    <circle id="Ellipse_4" data-name="Ellipse 4" cx="56" cy="56" r="56" transform="translate(7907 11780)" fill="#ff6a2b"/>
    <path id="icons8-web_analytics" d="M8.074,3A4.048,4.048,0,0,0,4.025,7.049V19.2a2.025,2.025,0,0,0,4.049,0V11.1H36.423l0,24.3H30.345a2.025,2.025,0,1,0,0,4.049h6.074a4.048,4.048,0,0,0,4.049-4.049V7.049A4.048,4.048,0,0,0,36.419,3ZM28.321,21.222a4.037,4.037,0,0,0-3.769,5.516L20.827,31.4a3.86,3.86,0,0,0-1.653.087L16.031,28.34a4.048,4.048,0,1,0-7.675.427L2.443,36.153a2.026,2.026,0,1,0,3.163,2.531l5.912-7.391a3.86,3.86,0,0,0,1.653-.087l3.144,3.144a4.048,4.048,0,1,0,7.675-.427l3.733-4.662a4,4,0,0,0,.6.059,4.049,4.049,0,0,0,0-8.1Z" transform="translate(7941.729 11815.917)" fill="#fff"/>
  </g>
</svg>
