<svg xmlns="http://www.w3.org/2000/svg" xmlns:xlink="http://www.w3.org/1999/xlink" width="112" height="112" viewBox="0 0 112 112">
  <defs>
    <clipPath id="clip-path">
      <rect width="112" height="112" fill="none"/>
    </clipPath>
  </defs>
  <g id="Repeat_Grid_1" data-name="Repeat Grid 1" clip-path="url(#clip-path)">
    <g id="Group_220" data-name="Group 220" transform="translate(-307 -10935)">
      <circle id="Ellipse_4" data-name="Ellipse 4" cx="56" cy="56" r="56" transform="translate(307 10935)" fill="#ff6a2b"/>
      <path id="Path_101" data-name="Path 101" d="M301.592-156.361h-13.7l9.685-9.686a23.545,23.545,0,0,0-5.532-5.531l-9.687,9.686v-13.7a23.569,23.569,0,0,0-3.9-.327h-.025a23.508,23.508,0,0,0-3.9.327v13.7l-9.689-9.687a23.426,23.426,0,0,0-2.994,2.534l0,0a23.636,23.636,0,0,0-2.532,2.994l9.689,9.685h-13.7s-.326,2.574-.326,3.9v.016a23.476,23.476,0,0,0,.327,3.9h13.7l-9.69,9.684a23.653,23.653,0,0,0,5.533,5.532l9.687-9.685v13.7a23.685,23.685,0,0,0,3.894.326h.033a23.754,23.754,0,0,0,3.894-.326v-13.7l9.688,9.687a23.675,23.675,0,0,0,3-2.534h0a23.71,23.71,0,0,0,2.531-3l-9.685-9.688h13.7a23.559,23.559,0,0,0,.324-3.9v-.034A23.585,23.585,0,0,0,301.592-156.361Zm-18.177,8.876a14.075,14.075,0,0,1-4.955.9h-.021a14.061,14.061,0,0,1-4.955-.9,14.046,14.046,0,0,1-.9-4.955v-.022a14.052,14.052,0,0,1,.9-4.955,14.019,14.019,0,0,1,4.957-.9h.019a14,14,0,0,1,4.955.9,14.025,14.025,0,0,1,.9,4.955v.022h0A14.053,14.053,0,0,1,283.415-147.486Z" transform="translate(84.514 11144.591)" fill="#fff"/>
    </g>
  </g>
</svg>
