<svg xmlns="http://www.w3.org/2000/svg" width="112" height="112" viewBox="0 0 112 112">
  <circle id="Ellipse_4" data-name="Ellipse 4" cx="56" cy="56" r="56" fill="#2b6bb8"/>
  <path id="icons8-apple_pay" d="M16.6,15a6.048,6.048,0,0,0-4.083,2.192,6.238,6.238,0,0,0-1.471,4.443,5.056,5.056,0,0,0,4.115-2.027A6.632,6.632,0,0,0,16.6,15Zm13.33,3.323V43.27h3.95V34.955h5.4c4.961,0,8.523-3.451,8.523-8.315a8.036,8.036,0,0,0-8.393-8.315Zm3.95,3.326h4.573c3.4,0,5.4,1.838,5.4,4.989s-1.984,4.989-5.4,4.989H33.885Zm-17.462.832c-2.287,0-3.921,1.247-4.989,1.247-1.084,0-2.7-1.231-4.573-1.231a6.8,6.8,0,0,0-5.707,3.527C-1.273,30.208.524,36.4,2.869,39.8c1.149,1.686,2.537,3.466,4.408,3.466,1.715-.065,2.295-1.039,4.365-1.039s2.7,1.039,4.573,1.039,3-1.714,4.151-3.4a14.765,14.765,0,0,0,1.877-3.875,6.106,6.106,0,0,1-3.654-5.561,6.237,6.237,0,0,1,2.959-5.22,6.405,6.405,0,0,0-4.918-2.732Zm40.452,2.495c-4.139,0-7.2,2.321-7.311,5.512h3.508c.289-1.517,1.724-2.511,3.69-2.511,2.383,0,3.729,1.091,3.729,3.1l0,1.384-4.875.257c-4.525.268-6.974,2.086-6.974,5.246,0,3.191,2.528,5.311,6.152,5.311a6.472,6.472,0,0,0,5.749-3.144h.081v2.953h3.605V30.823C64.233,27.266,61.337,24.977,56.875,24.977Zm8.815,0,6.665,18.209L72,44.293c-.6,1.878-1.577,2.6-3.316,2.6-.3,0-.861-.03-1.121-.062v3a12.037,12.037,0,0,0,1.462.091c3.837,0,5.642-1.443,7.221-5.824l6.909-19.122h-4L74.518,39.752h-.081L69.8,24.977Zm-5.2,9.978L60.48,36.4c0,2.307-2,3.95-4.638,3.95-2.077,0-3.4-.978-3.4-2.478,0-1.548,1.273-2.449,3.706-2.592Z" transform="translate(14.001 23.998)" fill="#fff"/>
</svg>
