<svg xmlns="http://www.w3.org/2000/svg" width="469.787" height="534.165" viewBox="0 0 469.787 534.165">
  <g id="Group_182" data-name="Group 182" transform="translate(-37.363)">
    <path id="Path_380" data-name="Path 380" d="M908.476,769.125V716.237S929.087,753.732,908.476,769.125Z" transform="translate(-410.486 -234.96)" fill="#f1f1f1"/>
    <path id="Path_381" data-name="Path 381" d="M895.888,775.409l-38.96-35.766S898.487,749.817,895.888,775.409Z" transform="translate(-396.625 -241.254)" fill="#f1f1f1"/>
    <path id="Path_382" data-name="Path 382" d="M287.59,769.125V716.237S266.979,753.732,287.59,769.125Z" transform="translate(-241.067 -234.96)" fill="#f1f1f1"/>
    <path id="Path_383" data-name="Path 383" d="M289.175,775.409l38.96-35.766S286.575,749.817,289.175,775.409Z" transform="translate(-243.925 -241.254)" fill="#f1f1f1"/>
    <path id="Path_384" data-name="Path 384" d="M681,207.134h-2.824V129.777a44.772,44.772,0,0,0-44.772-44.772H469.516a44.772,44.772,0,0,0-44.772,44.772V554.163a44.772,44.772,0,0,0,44.772,44.772H633.407a44.772,44.772,0,0,0,44.772-44.772V262.2H681Z" transform="translate(-280.411 -85.005)" fill="#ededed"/>
    <path id="Path_385" data-name="Path 385" d="M639.758,100.938H618.365a15.885,15.885,0,0,1-14.707,21.884H509.766a15.885,15.885,0,0,1-14.707-21.884H475.077a33.435,33.435,0,0,0-33.435,33.435V558.136a33.435,33.435,0,0,0,33.435,33.435h164.68a33.435,33.435,0,0,0,33.435-33.435h0V134.373a33.435,33.435,0,0,0-33.435-33.435Z" transform="translate(-284.955 -89.29)" fill="#fff"/>
    <path id="Path_386" data-name="Path 386" d="M637.458,735.1H481.028c-17.974,0-32.6-13.052-32.6-29.095V684.94c0-12.787,11.646-23.19,25.96-23.19H644.1c14.314,0,25.96,10.4,25.96,23.19V706C670.055,722.046,655.432,735.1,637.458,735.1Z" transform="translate(-286.78 -240.092)" fill="#e5e5e5"/>
    <path id="Path_387" data-name="Path 387" d="M501.808,263.282H466.915a2.36,2.36,0,0,1-2.358-2.358V226.031a2.361,2.361,0,0,1,2.358-2.358h34.894a2.36,2.36,0,0,1,2.358,2.358v34.894A2.36,2.36,0,0,1,501.808,263.282Z" transform="translate(-291.116 -122.293)" fill="#ff6a2b"/>
    <path id="Path_388" data-name="Path 388" d="M574.044,263.282H539.151a2.361,2.361,0,0,1-2.358-2.358V226.031a2.36,2.36,0,0,1,2.358-2.358h34.893a2.36,2.36,0,0,1,2.358,2.358v34.894A2.36,2.36,0,0,1,574.044,263.282Z" transform="translate(-310.541 -122.293)" fill="#e5e5e5"/>
    <path id="Path_389" data-name="Path 389" d="M646.281,263.282H611.387a2.36,2.36,0,0,1-2.358-2.358V226.031a2.36,2.36,0,0,1,2.358-2.358h34.893a2.361,2.361,0,0,1,2.358,2.358v34.894A2.361,2.361,0,0,1,646.281,263.282Z" transform="translate(-329.965 -122.293)" fill="#e5e5e5"/>
    <path id="Path_390" data-name="Path 390" d="M718.517,263.282H683.623a2.36,2.36,0,0,1-2.358-2.358V226.031a2.36,2.36,0,0,1,2.358-2.358h34.893a2.36,2.36,0,0,1,2.358,2.358v34.894A2.36,2.36,0,0,1,718.517,263.282Z" transform="translate(-349.39 -122.293)" fill="#e5e5e5"/>
    <path id="Path_391" data-name="Path 391" d="M501.638,351.642H466.744a2.361,2.361,0,0,1-2.358-2.358V314.391a2.36,2.36,0,0,1,2.358-2.358h34.894A2.36,2.36,0,0,1,504,314.391v34.894A2.361,2.361,0,0,1,501.638,351.642Z" transform="translate(-291.071 -146.053)" fill="#e5e5e5"/>
    <path id="Path_392" data-name="Path 392" d="M573.874,351.642H538.98a2.36,2.36,0,0,1-2.358-2.358V314.391a2.36,2.36,0,0,1,2.358-2.358h34.894a2.361,2.361,0,0,1,2.358,2.358v34.894A2.36,2.36,0,0,1,573.874,351.642Z" transform="translate(-310.495 -146.053)" fill="#e5e5e5"/>
    <path id="Path_393" data-name="Path 393" d="M646.11,351.642H611.216a2.36,2.36,0,0,1-2.357-2.358V314.391a2.36,2.36,0,0,1,2.358-2.358H646.11a2.36,2.36,0,0,1,2.358,2.358v34.894A2.36,2.36,0,0,1,646.11,351.642Z" transform="translate(-329.919 -146.053)" fill="#ff6a2b"/>
    <path id="Path_394" data-name="Path 394" d="M718.346,351.642H683.453a2.36,2.36,0,0,1-2.358-2.358V314.391a2.361,2.361,0,0,1,2.358-2.358h34.893a2.36,2.36,0,0,1,2.358,2.358v34.894A2.36,2.36,0,0,1,718.346,351.642Z" transform="translate(-349.344 -146.053)" fill="#ff6a2b"/>
    <path id="Path_395" data-name="Path 395" d="M501.467,440H466.573a2.36,2.36,0,0,1-2.358-2.358V402.751a2.36,2.36,0,0,1,2.358-2.358h34.894a2.361,2.361,0,0,1,2.358,2.358v34.894A2.361,2.361,0,0,1,501.467,440Z" transform="translate(-291.025 -169.813)" fill="#e5e5e5"/>
    <path id="Path_396" data-name="Path 396" d="M573.7,440H538.81a2.36,2.36,0,0,1-2.358-2.358V402.751a2.36,2.36,0,0,1,2.358-2.358H573.7a2.361,2.361,0,0,1,2.358,2.358v34.894A2.36,2.36,0,0,1,573.7,440Z" transform="translate(-310.449 -169.813)" fill="#e5e5e5"/>
    <path id="Path_397" data-name="Path 397" d="M645.939,440H611.046a2.36,2.36,0,0,1-2.358-2.358V402.751a2.361,2.361,0,0,1,2.358-2.358h34.893a2.36,2.36,0,0,1,2.358,2.358v34.894A2.36,2.36,0,0,1,645.939,440Z" transform="translate(-329.873 -169.813)" fill="#e5e5e5"/>
    <path id="Path_398" data-name="Path 398" d="M718.175,440H683.282a2.361,2.361,0,0,1-2.358-2.358V402.751a2.361,2.361,0,0,1,2.358-2.358h34.893a2.361,2.361,0,0,1,2.358,2.358v34.894A2.36,2.36,0,0,1,718.175,440Z" transform="translate(-349.298 -169.813)" fill="#e5e5e5"/>
    <path id="Path_399" data-name="Path 399" d="M501.3,528.363H466.4a2.361,2.361,0,0,1-2.358-2.358V491.112a2.36,2.36,0,0,1,2.358-2.358H501.3a2.36,2.36,0,0,1,2.358,2.358v34.894A2.361,2.361,0,0,1,501.3,528.363Z" transform="translate(-290.979 -193.573)" fill="#e5e5e5"/>
    <path id="Path_400" data-name="Path 400" d="M573.532,528.363H538.639a2.36,2.36,0,0,1-2.358-2.358V491.112a2.36,2.36,0,0,1,2.358-2.358h34.894a2.36,2.36,0,0,1,2.358,2.358v34.894A2.361,2.361,0,0,1,573.532,528.363Z" transform="translate(-310.403 -193.573)" fill="#e5e5e5"/>
    <path id="Path_401" data-name="Path 401" d="M645.769,528.363H610.875a2.361,2.361,0,0,1-2.358-2.358V491.112a2.361,2.361,0,0,1,2.358-2.358h34.894a2.36,2.36,0,0,1,2.358,2.358v34.894a2.361,2.361,0,0,1-2.358,2.358Z" transform="translate(-329.827 -193.574)" fill="#e5e5e5"/>
    <path id="Path_402" data-name="Path 402" d="M718,528.363H683.111a2.36,2.36,0,0,1-2.358-2.358V491.112a2.36,2.36,0,0,1,2.358-2.358H718a2.361,2.361,0,0,1,2.358,2.358v34.894A2.36,2.36,0,0,1,718,528.363Z" transform="translate(-349.252 -193.573)" fill="#e5e5e5"/>
    <path id="Path_403" data-name="Path 403" d="M501.808,725.723H466.915a2.36,2.36,0,0,1-2.358-2.358V688.472a2.361,2.361,0,0,1,2.358-2.358h34.894a2.361,2.361,0,0,1,2.358,2.358v34.894A2.36,2.36,0,0,1,501.808,725.723Z" transform="translate(-291.116 -246.643)" fill="#fff"/>
    <path id="Path_404" data-name="Path 404" d="M574.044,725.723H539.151a2.36,2.36,0,0,1-2.358-2.358V688.472a2.36,2.36,0,0,1,2.358-2.358h34.893a2.36,2.36,0,0,1,2.358,2.358v34.894A2.36,2.36,0,0,1,574.044,725.723Z" transform="translate(-310.541 -246.643)" fill="#fff"/>
    <path id="Path_405" data-name="Path 405" d="M646.281,725.723H611.387a2.36,2.36,0,0,1-2.358-2.358V688.472a2.36,2.36,0,0,1,2.358-2.358h34.893a2.361,2.361,0,0,1,2.358,2.358v34.894A2.361,2.361,0,0,1,646.281,725.723Z" transform="translate(-329.965 -246.643)" fill="#fff"/>
    <path id="Path_406" data-name="Path 406" d="M718.517,725.723H683.623a2.36,2.36,0,0,1-2.358-2.358V688.472a2.361,2.361,0,0,1,2.358-2.358h34.893a2.361,2.361,0,0,1,2.358,2.358v34.894A2.36,2.36,0,0,1,718.517,725.723Z" transform="translate(-349.39 -246.643)" fill="#fff"/>
    <circle id="Ellipse_46" data-name="Ellipse 46" cx="4.715" cy="4.715" r="4.715" transform="translate(250.648 396.089)" fill="#e5e5e5"/>
    <circle id="Ellipse_47" data-name="Ellipse 47" cx="4.715" cy="4.715" r="4.715" transform="translate(267.623 396.089)" fill="#e5e5e5"/>
    <circle id="Ellipse_48" data-name="Ellipse 48" cx="4.715" cy="4.715" r="4.715" transform="translate(284.598 396.089)" fill="#e5e5e5"/>
    <path id="Path_408" data-name="Path 408" d="M504.826,574.747a9.54,9.54,0,0,0-1.286-14.572l9.209-32.628-16.789,5.339-6.171,30.166a9.592,9.592,0,0,0,15.038,11.7Z" transform="translate(-297.53 -204.005)" fill="#ffb7b7"/>
    <path id="Path_409" data-name="Path 409" d="M509.6,518.034a4.361,4.361,0,0,1-.91.077l-16.106-.323a4.269,4.269,0,0,1-4.138-4.893l16.338-110.389a13.534,13.534,0,0,1,13.348-11.49h0A13.462,13.462,0,0,1,531.164,407.7l-11.581,46.9-6.568,59.7A4.245,4.245,0,0,1,509.6,518.034Z" transform="translate(-297.527 -167.291)" fill="#3f3d56"/>
    <path id="Path_410" data-name="Path 410" d="M342.1,705.389h8.963l4.264-34.572H342.1Z" transform="translate(-123.301 -180.383)" fill="#ffb7b7"/>
    <path id="Path_411" data-name="Path 411" d="M523.478,799.108H541.13a11.249,11.249,0,0,1,11.249,11.248v.366h-28.9Z" transform="translate(-306.96 -277.027)" fill="#2f2e41"/>
    <path id="Path_412" data-name="Path 412" d="M394.382,701.487l8.907,1L411.38,668.6l-13.147-1.474Z" transform="translate(-137.358 -179.391)" fill="#ffb7b7"/>
    <path id="Path_413" data-name="Path 413" d="M575.744,794.8l17.542,1.967h0a11.25,11.25,0,0,1,9.925,12.433l-.041.363-28.721-3.22Z" transform="translate(-320.667 -275.87)" fill="#2f2e41"/>
    <path id="Path_414" data-name="Path 414" d="M512.924,538.762s-12.288,27.2-1.437,44.873l6.465,137.57H532.8l14.4-111.127,25.588,32.9-15.59,76.786,18.154,1.019,25.217-77.8s-19.373-85.794-25.771-87.859l-4.2-19.612Z" transform="translate(-302.532 -206.145)" fill="#2f2e41"/>
    <path id="Path_415" data-name="Path 415" d="M506.862,572.489s-11.07,12.7,18.174,17.091,59.95-2.193,60.681-10.966S506.862,572.489,506.862,572.489Z" transform="translate(-301.94 -215.989)" fill="#cbcbcb"/>
    <path id="Path_416" data-name="Path 416" d="M696.123,353.784a8.489,8.489,0,0,1-10.278,7.987l-11.054,15.941-11.326-4.355,15.927-22.293a8.535,8.535,0,0,1,16.732,2.719Z" transform="translate(-344.603 -154.886)" fill="#ffb7b7"/>
    <path id="Path_417" data-name="Path 417" d="M559.615,382.511l-15.629-7.07-20.025,1.432s-24.141,28.225-14.637,55.276l-5.849,94.312c37.286,10.235,54.235-8.962,81.152-.731l-8.314-104.817Z" transform="translate(-301.582 -163.104)" fill="#3f3d56"/>
    <path id="Path_418" data-name="Path 418" d="M565.976,387.807l10.446-6.868s14.51-2.193,20.31,3.434c0,0,19.686,1.648,24.441,6.562l5.235,1.18L643.8,369.6l10.642,5.783-15.353,41.673L593.12,419.34Z" transform="translate(-318.388 -161.532)" fill="#3f3d56"/>
    <circle id="Ellipse_49" data-name="Ellipse 49" cx="24.671" cy="24.671" r="24.671" transform="translate(205.876 172.943) rotate(-28.663)" fill="#ffb7b7"/>
    <path id="Path_419" data-name="Path 419" d="M522.166,303.867c4.4-7.921,9.907-13.049,18.967-12.864s16.9-.173,20.974,7.92a13.309,13.309,0,0,0,1.567-6.565,7.518,7.518,0,0,1,3.319,7.563,5.491,5.491,0,0,0,2.711-4.507c3.024,1.006,3.81,5.268,2.28,8.063s-4.531,4.412-7.41,5.778-1.55,8.594-3.43,11.168c-1.312,1.8-1.912,4-2.8,6.038a.4.4,0,0,1-.179.187,5.315,5.315,0,0,0-2.949,5.443.888.888,0,0,1-.029.519c-2.566,4.835-5.336,9.893-9.988,12.778a16.562,16.562,0,0,1-12.442,1.923,21.622,21.622,0,0,1-11.829-8.177,41.546,41.546,0,0,1-6.3-13.157c-1.271-4.146-2.2-8.58-1.187-12.8s4.421-8.124,8.745-8.45" transform="translate(-304.146 -140.397)" fill="#2f2e41"/>
  </g>
</svg>
