<svg xmlns="http://www.w3.org/2000/svg" width="112" height="112" viewBox="0 0 112 112">
  <g id="Group_218" data-name="Group 218" transform="translate(-813 -10016)">
    <circle id="Ellipse_4" data-name="Ellipse 4" cx="56" cy="56" r="56" transform="translate(813 10016)" fill="#2b6bb8"/>
    <path id="icons8-protect" d="M19.621,3A72.735,72.735,0,0,0,6.288,4.473l-.006.006A2.84,2.84,0,0,0,4,7.26v8.52C4,30.546,18.231,36.718,18.231,36.718a2.828,2.828,0,0,0,2.774,0h.006s14.231-6.172,14.231-20.938V7.26a2.84,2.84,0,0,0-2.288-2.787A72.735,72.735,0,0,0,19.621,3Zm8.52,8.52a1.42,1.42,0,0,1,1,2.424L18.409,24.681a1.42,1.42,0,0,1-2.008,0l-4.9-4.9A1.42,1.42,0,1,1,13.5,17.769l3.9,3.9,9.732-9.732A1.415,1.415,0,0,1,28.141,11.52Z" transform="translate(849.379 10051.959)" fill="#fff"/>
  </g>
</svg>
