<svg xmlns="http://www.w3.org/2000/svg" width="112" height="112" viewBox="0 0 112 112">
  <g id="Group_197" data-name="Group 197" transform="translate(-818 -1939)">
    <circle id="Ellipse_5" data-name="Ellipse 5" cx="56" cy="56" r="56" transform="translate(818 1939)" fill="#2b6bb8"/>
    <path id="icons8-museum" d="M26.523,3a1.886,1.886,0,0,0-.626.111v0l-.044.018q-.056.02-.111.044L7.556,10.744v0A2.828,2.828,0,0,0,8.6,16.2H44.443a2.828,2.828,0,0,0,1.046-5.456v0l-.022-.007-18.2-7.579-.063-.029-.026-.007-.033-.015v0A1.886,1.886,0,0,0,26.523,3Zm0,5.659a1.886,1.886,0,1,1-1.886,1.886A1.887,1.887,0,0,1,26.523,8.659ZM9.546,19.977V35.068H7.659a1.886,1.886,0,1,0,0,3.773H45.386a1.886,1.886,0,1,0,0-3.773H43.5V19.977H39.727V35.068H35.955V19.977H32.182V35.068H28.409V19.977H24.636V35.068H20.864V19.977H17.091V35.068H13.318V19.977ZM3.886,42.614a1.886,1.886,0,1,0,0,3.773H49.159a1.886,1.886,0,1,0,0-3.773Z" transform="translate(846.478 1967.807)" fill="#fff"/>
  </g>
</svg>
