<svg xmlns="http://www.w3.org/2000/svg" width="112" height="112" viewBox="0 0 112 112">
  <circle id="Ellipse_4" data-name="Ellipse 4" cx="56" cy="56" r="56" fill="#ff6a2b"/>
  <path id="icons8-schedule" d="M7.373,4A3.372,3.372,0,0,0,4,7.373v30.36a3.372,3.372,0,0,0,3.373,3.373H25.4A11.794,11.794,0,1,0,41.106,25.4V7.373A3.372,3.372,0,0,0,37.733,4Zm0,3.373h30.36V14.12H7.373ZM15.807,19.18a1.687,1.687,0,1,1-1.687,1.687A1.687,1.687,0,0,1,15.807,19.18Zm6.747,0a1.687,1.687,0,1,1-1.687,1.687A1.687,1.687,0,0,1,22.553,19.18Zm6.747,0a1.687,1.687,0,1,1-1.687,1.687A1.687,1.687,0,0,1,29.3,19.18Zm6.747,0a1.687,1.687,0,1,1-1.687,1.687A1.687,1.687,0,0,1,36.046,19.18ZM9.06,25.927a1.687,1.687,0,1,1-1.687,1.687A1.687,1.687,0,0,1,9.06,25.927Zm6.747,0a1.687,1.687,0,1,1-1.687,1.687A1.687,1.687,0,0,1,15.807,25.927Zm6.747,0a1.687,1.687,0,1,1-1.687,1.687A1.687,1.687,0,0,1,22.553,25.927Zm13.493,1.687a8.433,8.433,0,1,1-8.433,8.433A8.408,8.408,0,0,1,36.046,27.613Zm-.026,1.664a1.687,1.687,0,0,0-1.66,1.71v5.758l3.011,3.011a1.687,1.687,0,1,0,2.385-2.385l-2.023-2.022V30.986a1.687,1.687,0,0,0-1.713-1.71Zm-26.96,3.4A1.687,1.687,0,1,1,7.373,34.36,1.687,1.687,0,0,1,9.06,32.673Zm6.747,0A1.687,1.687,0,1,1,14.12,34.36,1.687,1.687,0,0,1,15.807,32.673Zm6.747,0a1.687,1.687,0,1,1-1.687,1.687A1.687,1.687,0,0,1,22.553,32.673Z" transform="translate(33.073 32.073)" fill="#fff"/>
</svg>
