<svg xmlns="http://www.w3.org/2000/svg" width="112" height="112" viewBox="0 0 112 112">
  <g id="Group_209" data-name="Group 209" transform="translate(-307 -5883)">
    <circle id="Ellipse_4" data-name="Ellipse 4" cx="56" cy="56" r="56" transform="translate(307 5883)" fill="#ff6a2b"/>
    <path id="icons8-strike" d="M22.659,2.231a1.868,1.868,0,0,0-.741.1L6.189,7.676a1.889,1.889,0,0,0-1.18,2.4L7,15.931a1.891,1.891,0,0,0,2.4,1.18L16.188,14.8l2.382,6.5a1.888,1.888,0,0,0-.457,1.054l-.022.21-1.512,7.3-5.46,4.026H6.775A3.774,3.774,0,0,0,3,37.666V47.1H14.326V39.037L20.3,32.309l.007,0a1.888,1.888,0,0,0,.649-1.231l.907-8.3a1.888,1.888,0,0,0-.509-1.534l-2.666-7.285,6.434-2.19A1.885,1.885,0,0,0,26.3,9.369L24.31,3.507A1.889,1.889,0,0,0,22.659,2.231Zm5.033,4.325,2.039,6.117-4.756,1.585-.453,1.585L32.606,18.5l-2.271,6.2a1.888,1.888,0,0,0-.907,1.637v8.7a1.888,1.888,0,0,0,.726,1.486l6.824,6.334V47.1H48.3V41.441a3.774,3.774,0,0,0-3.775-3.775H39.15l-5.305-3.355L33.2,26.339a1.888,1.888,0,0,0-.28-1.014l2.194-5.991L41.989,21.6a1.89,1.89,0,0,0,2.382-1.2l1.972-5.91a1.889,1.889,0,0,0-1.22-2.4ZM9.607,20.676A4.719,4.719,0,1,0,14.326,25.4a4.719,4.719,0,0,0-4.719-4.719ZM41.7,24.452a4.719,4.719,0,1,0,4.719,4.719A4.719,4.719,0,0,0,41.7,24.452Z" transform="translate(338.217 5911.323)" fill="#fff"/>
  </g>
</svg>
