<svg xmlns="http://www.w3.org/2000/svg" width="641.627" height="589.404" viewBox="0 0 641.627 589.404">
  <g id="Group_188" data-name="Group 188" transform="translate(-5178.013 -2677.007)">
    <g id="Group_187" data-name="Group 187" transform="translate(257.716 2.007)">
      <rect id="Rectangle_62" data-name="Rectangle 62" width="522.913" height="332.589" transform="translate(4920.297 2694.216)" fill="#e6e6e6"/>
      <rect id="Rectangle_75" data-name="Rectangle 75" width="482.829" height="277.49" transform="translate(4940.338 2722.736)" fill="#fff"/>
      <rect id="Rectangle_80" data-name="Rectangle 80" width="522.913" height="29.776" transform="translate(4920.596 2675)" fill="#2f2e41"/>
      <ellipse id="Ellipse_90" data-name="Ellipse 90" cx="5.519" cy="5.519" rx="5.519" ry="5.519" transform="translate(5415.862 2683.254)" fill="#fff"/>
      <ellipse id="Ellipse_91" data-name="Ellipse 91" cx="5.519" cy="5.519" rx="5.519" ry="5.519" transform="translate(5394.914 2683.254)" fill="#fff"/>
      <ellipse id="Ellipse_92" data-name="Ellipse 92" cx="5.519" cy="5.519" rx="5.519" ry="5.519" transform="translate(5373.965 2683.254)" fill="#fff"/>
      <path id="Path_244" data-name="Path 244" d="M760.563,393.007H922.652c4.217,0,7.635-4.385,7.635-9.793s-3.418-9.793-7.635-9.793H760.563c-4.217,0-7.635,4.385-7.635,9.793s3.418,9.793,7.635,9.793Z" transform="translate(4216.202 2496.587)" fill="#e4e4e4"/>
      <path id="Path_245" data-name="Path 245" d="M759.708,367.7h97.518c3.744,0,6.779-4.385,6.779-9.793s-3.035-9.793-6.779-9.793H759.708c-3.744,0-6.779,4.385-6.779,9.793S755.963,367.7,759.708,367.7Z" transform="translate(4216.202 2488.367)" fill="#e4e4e4"/>
      <path id="Path_246" data-name="Path 246" d="M911.531,443.576c6.937-6.049,18.129-11.759,27.148-15.1-9.02-3.347-20.211-9.057-27.148-15.106l4.889,13.518H891.054v3.176h25.366Z" transform="translate(4078.076 2509.564)" fill="#3f3d56"/>
      <path id="Path_268" data-name="Path 268" d="M586.879,233.42A75.123,75.123,0,0,0,511.822,306.2c-.021.762-.032,1.534-.032,2.306a75.09,75.09,0,1,0,75.089-75.09Zm0,148.034a73.02,73.02,0,0,1-72.944-72.944q0-1.5.064-2.961a72.942,72.942,0,1,1,72.88,75.9Z" transform="translate(4673.048 2526.879)" fill="#3f3d56"/>
      <path id="Path_269" data-name="Path 269" d="M649.369,307.71a63.29,63.29,0,1,1-126.579,0c0-2.006.1-3.98.279-5.932a63.29,63.29,0,0,1,126.3,5.932Z" transform="translate(4673.848 2527.679)" fill="#e6e6e6"/>
      <path id="Path_274" data-name="Path 274" d="M593.616,405.216c-2.37,0-58.04-.089-58.04-7.778s55.67-7.778,58.04-7.778,58.04.089,58.04,7.778S595.985,405.216,593.616,405.216Zm-55.863-7.778c1.523,2.331,21.987,5.633,55.863,5.633s54.339-3.3,55.863-5.633c-1.523-2.331-21.987-5.632-55.863-5.632s-54.339,3.3-55.863,5.632Z" transform="translate(4674.777 2538.239)" fill="#3f3d56"/>
      <path id="icons8-british_pound" d="M15.52,46.675a13.932,13.932,0,0,0,2-7.883l-.158-6.448h12.2V27.567H17.076L16.77,17.41A9.792,9.792,0,0,1,19,10.73a7.358,7.358,0,0,1,5.82-2.544,8.35,8.35,0,0,1,5.97,2.053,7.346,7.346,0,0,1,2.173,5.6v.805H39.49l0-.805a12.082,12.082,0,0,0-3.8-9.341Q31.893,3,25.393,3,18.552,3,14.357,6.925a13.7,13.7,0,0,0-4.19,10.5l.3,10.144H5v4.777h5.68l.24,6.48v.265A15.552,15.552,0,0,1,10,44.42a4.075,4.075,0,0,1-1.722,2.255H5v5.459H40.486V46.675Z" transform="translate(5235.928 2808.22)" fill="#ff6a2b"/>
    </g>
    <path id="Path_237" data-name="Path 237" d="M277.376,689.059l.064-1.23c.014-.27,1.214-27.242-15.606-45.18s-45.689-20.476-45.978-20.5l-1.318-.107-.064,1.23c-.014.27-1.213,27.242,15.606,45.18s45.689,20.476,45.978,20.5ZM260,644.14c14.221,15.166,15.133,37.047,15.125,42.519-5.825-.737-29-4.546-43.212-19.7s-15.128-37.044-15.126-42.519C222.617,625.179,245.794,628.989,260,644.14Z" transform="translate(5529.955 2577.352)" fill="#f0f0f0"/>
    <path id="Path_238" data-name="Path 238" d="M205.762,654.262c3.628,24.121,25.476,39.651,25.476,39.651s15.965-23.579,12.336-47.7S218.1,606.561,218.1,606.561,202.134,630.14,205.762,654.262Z" transform="translate(5575.528 2572.323)" fill="#f0f0f0"/>
    <path id="Path_247" data-name="Path 247" d="M378.394,461.092a11.2,11.2,0,0,1,16.568,4.5l25.567-.986L424.918,480l-36.125.886a11.257,11.257,0,0,1-10.4-19.792Z" transform="translate(5171.771 2524.415)" fill="#ffb6b6"/>
    <path id="Path_248" data-name="Path 248" d="M307.74,492l26.06,3.272,3.3.411,53.021,6.651s16.269-11.725,30.736-24.112V465.291a52.332,52.332,0,0,0-12.944-34.5c-19.581,9.5-33.254,31.77-33.254,31.77l-33.9,3.312-3.392.331L316.3,468.258Z" transform="translate(5262.967 2515.224)" fill="#e4e4e4"/>
    <path id="Path_249" data-name="Path 249" d="M407.23,555.359H358.208c0,2.1-53.588,3.805-53.588,3.805a19.576,19.576,0,0,0-3.211,3.044,18.89,18.89,0,0,0-4.415,12.177v3.044a19.033,19.033,0,0,0,19.026,19.026H407.23a19.043,19.043,0,0,0,19.026-19.026v-3.044A19.053,19.053,0,0,0,407.23,555.359Z" transform="translate(5271.804 2555.69)" fill="#3f3d56"/>
    <rect id="Rectangle_48" data-name="Rectangle 48" width="19.787" height="114.213" transform="translate(5623.598 3151.39)" fill="#3f3d56"/>
    <path id="Path_250" data-name="Path 250" d="M294.606,676.174c0,2.138,29.984.827,66.972.827s66.972,1.311,66.972-.827-29.984-19.092-66.972-19.092S294.606,674.035,294.606,676.174Z" transform="translate(5272.675 2588.734)" fill="#3f3d56"/>
    <path id="Path_251" data-name="Path 251" d="M245.867,449.341H231.142l-7.006-56.8H245.87Z" transform="translate(5308.12 2802.516)" fill="#ffb6b6"/>
    <path id="Path_252" data-name="Path 252" d="M450.39,658.013h-29A18.483,18.483,0,0,0,402.9,676.493v.6l47.484,0Z" transform="translate(5107.355 2589.036)" fill="#2f2e41"/>
    <path id="Path_253" data-name="Path 253" d="M278.722,449.341H263.995l-7.006-56.8h21.734Z" transform="translate(5231.742 2802.516)" fill="#ffb6b6"/>
    <path id="Path_254" data-name="Path 254" d="M483.243,658.013h-29a18.483,18.483,0,0,0-18.482,18.481v.6l47.484,0Z" transform="translate(5030.977 2589.036)" fill="#2f2e41"/>
    <ellipse id="Ellipse_30" data-name="Ellipse 30" cx="25.605" cy="25.605" rx="25.605" ry="25.605" transform="translate(5608.431 2873.631)" fill="#ffb6b6"/>
    <path id="Path_255" data-name="Path 255" d="M354.264,392.9s-9.108-12.66-17.591.006-16.873-2.7-14.924-7.525,1.436-5.408,15.568-11.675,41.3-18.871,49.252,12.408-8.317,31.869-8.317,31.869-3.319-30.394-7.149-21.837l-3.83,8.557-3.935,1.4Z" transform="translate(5276.884 2494.122)" fill="#2f2e41"/>
    <path id="Path_256" data-name="Path 256" d="M460.6,529.9s8.591,45.43-24.1,51.215-79.875,9.851-79.875,9.851l-21.19,98.865-28.468-2.542s3.786-119.011,13.1-128.322,68.16-37.19,68.16-37.19Z" transform="translate(5223.218 2544.779)" fill="#2f2e41"/>
    <path id="Path_257" data-name="Path 257" d="M479.425,513.532l-14.3,14.342S361.9,544.5,357.917,568.344c-6.012,36-13.114,114.273-13.114,114.273l31.037-2.328,12.171-88.979,49.659-11.3,56.5-30.79Z" transform="translate(5140.553 2542.102)" fill="#2f2e41"/>
    <path id="Path_258" data-name="Path 258" d="M307.91,555.549s79.743,31.24,77.994,12.864c-2.027-21.29-1.643-30.564-1.643-30.564V468.188a52.493,52.493,0,0,0-27.822-46.317l-26.921.45-8.307,11.009c-6.677,33.452-8,37.427-8,37.427l-5.565,15.236-1.166,9.526,4.081,20.283Z" transform="translate(5299.563 2512.326)" fill="#e4e4e4"/>
    <path id="Path_259" data-name="Path 259" d="M397.768,464.826l.157-.049-2.618-8.424c-.837-2.693-.4-5.221.968-5.647h0l9.091-2.826c1.372-.426,3.162,1.411,4,4.1h0L423.73,498.2c.837,2.693.4,5.221-.968,5.647h0l-9.091,2.826c-1.372.426-3.162-1.411-4-4.1h0l-9.883-31.794-.157.049Z" transform="translate(5144.22 2520.755)" fill="#ff6a2b"/>
    <path id="Path_260" data-name="Path 260" d="M398.768,465.826l.157-.049-2.619-8.424c-.837-2.693-.4-5.221.968-5.648h0l9.091-2.826c1.372-.426,3.162,1.411,4,4.1h0L424.73,499.2c.837,2.693.4,5.221-.968,5.648h0l-9.091,2.826c-1.372.426-3.162-1.411-4-4.1h0l-9.883-31.794-.157.049Z" transform="translate(5141.895 2521.08)" fill="#3f3d56"/>
    <ellipse id="Ellipse_31" data-name="Ellipse 31" cx="3.127" cy="1.593" rx="3.127" ry="1.593" transform="translate(5547.505 2989.216) rotate(-107.267)" fill="#d0cde1"/>
    <path id="Path_261" data-name="Path 261" d="M382.764,476.092a11.2,11.2,0,0,1,16.568,4.5l25.567-.987L429.289,495l-36.125.886a11.257,11.257,0,0,1-10.4-19.792Z" transform="translate(5161.611 2529.287)" fill="#ffb6b6"/>
    <path id="Path_262" data-name="Path 262" d="M307.74,508.023l29.359,3.683,53.021,6.651s21.025-15.156,36.526-29.213v-27.7a52.385,52.385,0,0,0-3.484-18.8c-27.345,1.5-48.5,35.943-48.5,35.943l-33.9,3.312L316.3,484.282Z" transform="translate(5257.178 2519.073)" fill="#e4e4e4"/>
  </g>
</svg>
