<svg id="Group_174" data-name="Group 174" xmlns="http://www.w3.org/2000/svg" width="642.284" height="595.349" viewBox="0 0 642.284 595.349">
  <rect id="Rectangle_39" data-name="Rectangle 39" width="365.595" height="361.827" rx="26.744" transform="translate(276.688 45.053)" fill="#f2f2f2"/>
  <path id="Path_208" data-name="Path 208" d="M617.406,314.334a89.823,89.823,0,0,1,89.823,89.823V634.133a27.691,27.691,0,0,1-27.691,27.691H490.7A134.731,134.731,0,0,1,355.972,527.092V342.024a27.691,27.691,0,0,1,27.691-27.691Z" transform="translate(-72.115 -262.112)" fill="#fff"/>
  <path id="Path_216" data-name="Path 216" d="M372.349,488.4H573.072a4.329,4.329,0,0,0,0-8.657H372.349a4.329,4.329,0,1,0,0,8.657Z" transform="translate(42.01 -211.917)" fill="#f2f2f2"/>
  <path id="Path_217" data-name="Path 217" d="M292.88,393.677H489.426c1.554,0,2.814-1.938,2.814-4.329s-1.26-4.329-2.814-4.329H292.88c-1.554,0-2.814,1.938-2.814,4.329S291.326,393.677,292.88,393.677Z" transform="translate(119.964 -240.662)" fill="#f2f2f2"/>
  <path id="Path_218" data-name="Path 218" d="M292.875,415.375h196.56c1.555,0,2.816,1.94,2.816,4.332s-1.261,4.332-2.816,4.332H292.875c-1.556,0-2.816-1.939-2.816-4.332s1.261-4.332,2.816-4.332Z" transform="translate(119.963 -231.45)" fill="#f2f2f2"/>
  <path id="Path_219" data-name="Path 219" d="M292.88,454.4H489.426c1.554,0,2.814-1.938,2.814-4.329s-1.26-4.329-2.814-4.329H292.88c-1.554,0-2.814,1.938-2.814,4.329S291.326,454.4,292.88,454.4Z" transform="translate(119.964 -222.235)" fill="#f2f2f2"/>
  <path id="Path_220" data-name="Path 220" d="M414.871,561.178h13.88l6.6-53.537H414.868Z" transform="translate(-168.158 16.813)" fill="#a0616a"/>
  <path id="Path_221" data-name="Path 221" d="M688.277,734.178l42.683,0v-.54a16.614,16.614,0,0,0-16.612-16.613h0l-7.8-5.915L692,717.025h-3.726Z" transform="translate(-442.052 -141.707)" fill="#2f2e41"/>
  <path id="Path_222" data-name="Path 222" d="M522.015,561.178h13.879l6.6-53.537H522.011Z" transform="translate(-414.958 16.813)" fill="#a0616a"/>
  <path id="Path_223" data-name="Path 223" d="M795.421,734.178l42.683,0v-.54a16.614,16.614,0,0,0-16.612-16.613h0l-7.8-5.915-14.547,5.916H795.42Z" transform="translate(-688.854 -141.707)" fill="#2f2e41"/>
  <path id="Path_224" data-name="Path 224" d="M826.573,483.109s9.116,9.674,9.5,15.951-4.365-5.124.385,6.276,4.75,3.8,4.75,11.4,10.066,15.022,10.066,15.022l16.6,68.291-9.563,159.9h-20.9c-19.424-59.209-28.461-104.932-18.051-125.407l-29.026-64.515s-54.847,171.626-57.088,173.648S731,742.849,731,745.7s2.85,0,0,2.85l-13.3,13.3-19.951-1.9s-2.67-124.259,19.566-145.734c0,0-5.135-66.5,0-66.314s5.135,8.737,5.135.187-6.085-10.832-6.085-10.832l17.1-60.06Z" transform="translate(-591.184 -212.69)" fill="#2f2e41"/>
  <path id="Path_225" data-name="Path 225" d="M724.016,393.719l19.317,80.88-4.562,30.084L733.3,540.723l18.926-1.225,29.289-1.9,54.38-3.519,4.758-159.608L815.7,348.4l-4.458-12.657-36.067-.222-8.629,15.2-22.185,6.309a55.018,55.018,0,0,0-8,6.178c-5.475,5.07-10.323,11.51-12.591,18.105a23.808,23.808,0,0,0-1.29,5.957Z" transform="translate(-596.322 -255.683)" fill="#e6e6e6"/>
  <path id="Path_226" data-name="Path 226" d="M701.125,555.816a11.465,11.465,0,0,1-3.474-17.112L670.14,488.617,682.123,477.6l32.242,59.727a11.449,11.449,0,0,1-13.239,18.487Z" transform="translate(-405.549 -212.567)" fill="#e6e6e6"/>
  <path id="Path_227" data-name="Path 227" d="M680.711,357.913l6.413,114.88,30.9,72.194,20.109,26.667-2.286-12.084,13.861-6.935,1.3-.646-26.611-103.27-2.451-40.13a50,50,0,0,0-18.374-35.75l-15.391-12.5Z" transform="translate(-452.235 -248.887)" fill="#e6e6e6"/>
  <path id="Path_228" data-name="Path 228" d="M701.125,555.816a11.465,11.465,0,0,1-3.474-17.112L670.14,488.617,682.123,477.6l32.242,59.727a11.449,11.449,0,0,1-13.239,18.487Z" transform="translate(-405.549 -212.567)" fill="#a0616a"/>
  <path id="Path_229" data-name="Path 229" d="M680.711,357.913l6.413,114.88,30.9,72.194,20.109,26.667-2.286-12.084,13.861-6.935,1.3-.646-26.611-103.27-2.451-40.13a50,50,0,0,0-18.374-35.75l-15.391-12.5Z" transform="translate(-452.235 -248.887)" fill="#e6e6e6"/>
  <rect id="Rectangle_40" data-name="Rectangle 40" width="365.595" height="222.357" rx="26.744" transform="translate(163.838 112.987)" fill="#fff"/>
  <path id="Path_230" data-name="Path 230" d="M538.911,584.917H834.786a36.2,36.2,0,0,0,36.163-36.163V396.115a36.2,36.2,0,0,0-36.163-36.163H538.911a36.2,36.2,0,0,0-36.163,36.163V548.753a36.2,36.2,0,0,0,36.163,36.163ZM834.786,362.559a33.556,33.556,0,0,1,33.556,33.556v57.052A129.143,129.143,0,0,1,739.2,582.31H538.911a33.556,33.556,0,0,1-33.556-33.556V396.115a33.556,33.556,0,0,1,33.556-33.556Z" transform="translate(-340.214 -248.269)" fill="#3f3d56"/>
  <rect id="Rectangle_41" data-name="Rectangle 41" width="78.207" height="9.124" rx="3.5" transform="translate(411.808 275)" fill="#ff6a2b"/>
  <rect id="Rectangle_42" data-name="Rectangle 42" width="57.352" height="33.89" rx="3.5" transform="translate(203.255 262.617)" fill="#ff6a2b"/>
  <ellipse id="Ellipse_19" data-name="Ellipse 19" cx="23.462" cy="23.462" rx="23.462" ry="23.462" transform="translate(443.091 151.823)" fill="#ff6a2b"/>
  <ellipse id="Ellipse_20" data-name="Ellipse 20" cx="29.46" cy="29.46" rx="29.46" ry="29.46" transform="translate(168.745 14.199)" fill="#a0616a"/>
  <path id="Path_231" data-name="Path 231" d="M740.006,333.156c-.23,1.76,2.954,1.946,3.672.323s-.213-3.463-1.119-4.99l-2.1-3.544a4.869,4.869,0,0,1,3.207-7.253h0c-1.923-4.325.164-9.723,4-12.5s9.532,2.421,14.18,3.312,8.37-2.666,12.607-.557l-2.546-5.868,14.091,6.071-3.274-6.6c3.556.194,5.07,4.525,5.779,8.015.755,3.719,2.736,8.368,6.779,7.6a5.216,5.216,0,0,0,3.945-3.908c3.124-12.045-5.946-25.214-17.969-27.326a17.676,17.676,0,0,0-33.734,1.606l-3.942-4.826-.768,6.838c-2.833-.3-5.509,1.7-6.886,4.193s-.726,5.714-2.048,8.238c-5.924,11.31-3.964,24.043,5.183,32.717" transform="translate(-565.969 -274.27)" fill="#2f2e41"/>
  <path id="Path_232" data-name="Path 232" d="M924.822,739a2.958,2.958,0,0,1-2.144-5.127l.2-.806-.08-.193a7.944,7.944,0,0,0-14.653.055c-2.4,5.772-5.448,11.554-6.2,17.657a23.5,23.5,0,0,0,.412,8.082,94.217,94.217,0,0,1-8.57-39.131,90.969,90.969,0,0,1,.564-10.145q.468-4.142,1.3-8.225a95.311,95.311,0,0,1,18.9-40.394A25.364,25.364,0,0,0,925.1,649.826a19.351,19.351,0,0,0,1.76-5.287c-.513.067-1.936-7.754-1.549-8.234-.715-1.086-2-1.626-2.778-2.686-3.887-5.27-9.243-4.35-12.039,2.812-5.973,3.015-6.031,8.014-2.366,12.822,2.332,3.059,2.652,7.2,4.7,10.473-.21.269-.429.531-.64.8a95.937,95.937,0,0,0-10.012,15.861,39.875,39.875,0,0,0-2.381-18.522c-2.279-5.5-6.55-10.127-10.311-14.879a8.185,8.185,0,0,0-14.578,4.019q-.012.1-.023.21.838.473,1.641,1a4.012,4.012,0,0,1-1.618,7.3l-.082.013a39.918,39.918,0,0,0,1.052,5.969c-4.825,18.66,5.592,25.456,20.466,25.762.328.168.648.337.977.5a97.9,97.9,0,0,0-5.27,24.8,92.862,92.862,0,0,0,.067,14.994l-.025-.177a24.538,24.538,0,0,0-8.377-14.169c-6.446-5.3-15.554-7.245-22.508-11.5a4.605,4.605,0,0,0-7.053,4.48l.028.186a26.961,26.961,0,0,1,3.022,1.456q.838.473,1.641,1a4.012,4.012,0,0,1-1.618,7.3l-.082.013-.168.025a39.957,39.957,0,0,0,7.35,11.508c3.017,16.289,15.975,17.835,29.836,13.091h.008a97.876,97.876,0,0,0,6.575,19.195h23.489c.084-.261.16-.531.236-.792a26.688,26.688,0,0,1-6.5-.387c1.743-2.138,3.485-4.294,5.228-6.432a1.42,1.42,0,0,0,.109-.126c.884-1.094,1.776-2.18,2.66-3.275h0A39.1,39.1,0,0,0,924.823,739Z" transform="translate(-854.112 -166.242)" fill="#f2f2f2"/>
  <path id="Path_233" data-name="Path 233" d="M1010.745,730.186a1.546,1.546,0,0,1-1.551,1.551H578.675a1.551,1.551,0,1,1,0-3.1h430.519a1.547,1.547,0,0,1,1.551,1.551Z" transform="translate(-576.955 -136.389)" fill="#ccc" opacity="0"/>
  <path id="Path_234" data-name="Path 234" d="M782.776,550.613a11.465,11.465,0,0,1-2.864-17.225L754.2,482.356l12.367-10.583,30.1,60.835a11.449,11.449,0,0,1-13.887,18Z" transform="translate(-597.118 -214.336)" fill="#a0616a"/>
  <path id="Path_235" data-name="Path 235" d="M765.238,374.865l-1.29,5.957,3.089,83.265,13.2,34.151,13.452,34.815,1.655,4.288L814.5,564.7l-1.851-12.161,14.1-6.439,1.316-.587-5.083-14.364-11.692-33-5.057-14.286-1.095-42.506-1.017-40.186a50.006,50.006,0,0,0-17.088-36.38l-9.2-8.029C772.355,361.83,767.506,368.269,765.238,374.865Z" transform="translate(-637.792 -249.237)" fill="#e6e6e6"/>
  <path id="Path_236" data-name="Path 236" d="M505.268,552.085l61.1-1.3a28.708,28.708,0,0,0,28.666-28.676l2.607-63.886C590.141,510.3,561.309,543.342,505.268,552.085Z" transform="translate(-70.193 -218.449)" fill="#ff6a2b"/>
</svg>
