<svg xmlns="http://www.w3.org/2000/svg" width="112" height="112" viewBox="0 0 112 112">
  <g id="Group_221" data-name="Group 221" transform="translate(-760 -10935)">
    <circle id="Ellipse_5" data-name="Ellipse 5" cx="56" cy="56" r="56" transform="translate(760 10935)" fill="#ff6a2b"/>
    <path id="icons8-salesforce" d="M16.272,8A11.735,11.735,0,0,0,5.043,23.185a10.57,10.57,0,0,0,7.613,18.828,10.562,10.562,0,0,0,18.612.693,9.771,9.771,0,0,0,3.212.537A9.9,9.9,0,0,0,43,38.452a11.52,11.52,0,0,0,1.468.092,12.922,12.922,0,0,0,0-25.845,12.794,12.794,0,0,0-4.185.7,10.011,10.011,0,0,0-8.15-4.222,9.856,9.856,0,0,0-6.993,2.868A11.72,11.72,0,0,0,16.272,8Zm2.483,13.863h.835a.324.324,0,0,1,.321.33v6.856a.321.321,0,0,1-.321.33h-.835a.321.321,0,0,1-.321-.33V22.193A.324.324,0,0,1,18.754,21.863ZM33.4,22a2.561,2.561,0,0,1,.445.032,2.833,2.833,0,0,1,.326.078l.009,0a.194.194,0,0,1,.119.257l-.239.661c-.032.078-.1.174-.28.115-.028,0-.069-.018-.147-.037a1.919,1.919,0,0,0-.234-.018,1.007,1.007,0,0,0-.3.041.576.576,0,0,0-.216.138.824.824,0,0,0-.193.285,4.275,4.275,0,0,0-.156.771h.863a.208.208,0,0,1,.17.069.2.2,0,0,1,.05.165l-.124.656a.207.207,0,0,1-.22.188h-.927l-.688,3.9a6.719,6.719,0,0,1-.28,1.078,2.25,2.25,0,0,1-.431.734,1.578,1.578,0,0,1-.629.436,2.39,2.39,0,0,1-.808.124,2.03,2.03,0,0,1-.482-.046,2.261,2.261,0,0,1-.3-.087.214.214,0,0,1-.119-.275c.023-.06.211-.569.234-.638A.2.2,0,0,1,29.1,30.5a.792.792,0,0,0,.147.05,1.942,1.942,0,0,0,.229.023,1.076,1.076,0,0,0,.335-.046.443.443,0,0,0,.225-.179,1.41,1.41,0,0,0,.2-.418,4.4,4.4,0,0,0,.184-.753L31.1,25.4h-.551a.2.2,0,0,1-.22-.239l.115-.652a.247.247,0,0,1,.229-.188h.606l.041-.33a2.782,2.782,0,0,1,.661-1.487A1.931,1.931,0,0,1,33.4,22Zm-13.808.1a.09.09,0,0,1,.087.1A.09.09,0,0,0,19.59,22.1Zm-8.65,2.111.11,0h0a3.558,3.558,0,0,1,1.7.422.322.322,0,0,1,.156.408c-.018.05-.206.509-.225.56a.311.311,0,0,1-.289.2.4.4,0,0,1-.184-.05,3.212,3.212,0,0,0-1.3-.3c-.275,0-.468.106-.468.275s.473.3.854.413l.1.032c.583.17,1.675.486,1.675,1.556,0,1-.8,1.652-2.033,1.652A3.711,3.711,0,0,1,9.31,29l-.06-.028a3,3,0,0,1-.3-.179.3.3,0,0,1-.083-.367l.216-.555a.318.318,0,0,1,.3-.22.364.364,0,0,1,.179.046l.078.05.11.055a2.526,2.526,0,0,0,1.308.349c.326,0,.546-.128.546-.335,0-.17-.436-.289-.826-.4l-.11-.032c-.592-.156-1.689-.445-1.689-1.565C8.985,24.873,9.788,24.208,10.939,24.208Zm16.983,0h0a3.625,3.625,0,0,1,1.7.422.331.331,0,0,1,.156.408c-.018.055-.206.509-.225.564a.324.324,0,0,1-.294.2.419.419,0,0,1-.184-.046,3.191,3.191,0,0,0-1.3-.3c-.28,0-.473.106-.473.275s.477.3.854.413l.1.032c.583.17,1.68.486,1.68,1.556,0,1-.8,1.652-2.033,1.652A3.7,3.7,0,0,1,26.184,29l-.064-.028a3,3,0,0,1-.3-.179.3.3,0,0,1-.078-.367l.216-.551a.31.31,0,0,1,.3-.22.4.4,0,0,1,.216.064c.041.028.083.05.147.087a2.6,2.6,0,0,0,1.312.344c.326,0,.546-.124.546-.33,0-.17-.441-.294-.826-.4l-.115-.032c-.587-.156-1.689-.445-1.689-1.565,0-.95.808-1.611,1.959-1.611Zm16.451,0a4.965,4.965,0,0,1,.73.046,3.666,3.666,0,0,1,.665.156.322.322,0,0,1,.188.165l.046.147-.037.092c-.064.17-.11.294-.165.431l-.064.156a.318.318,0,0,1-.3.216l-.06,0-.032-.014a3.17,3.17,0,0,0-.913-.115,1.015,1.015,0,0,0-.844.33,1.5,1.5,0,0,0-.3.982,1.364,1.364,0,0,0,.326,1,1.262,1.262,0,0,0,.895.3,3.747,3.747,0,0,0,.473-.028,1.971,1.971,0,0,0,.385-.106l.073-.018h.041a.315.315,0,0,1,.3.207l.225.578a.315.315,0,0,1-.179.413,4.322,4.322,0,0,1-1.386.229,2.651,2.651,0,0,1-2-.711,2.564,2.564,0,0,1-.684-1.868,2.933,2.933,0,0,1,.165-1,2.275,2.275,0,0,1,.5-.831,2.426,2.426,0,0,1,.826-.555A2.952,2.952,0,0,1,44.374,24.212Zm-28.612.115a2.353,2.353,0,0,1,1.514.431,1.67,1.67,0,0,1,.541,1.372v2.652a.2.2,0,0,1-.156.211l-.225.05c-.1.023-.477.092-.794.142a6.27,6.27,0,0,1-.973.073,4.02,4.02,0,0,1-.849-.078,1.821,1.821,0,0,1-.679-.275,1.3,1.3,0,0,1-.45-.5,1.512,1.512,0,0,1-.156-.716,1.413,1.413,0,0,1,.184-.73,1.557,1.557,0,0,1,.491-.519,2.11,2.11,0,0,1,.688-.294,3.263,3.263,0,0,1,.8-.1q.3,0,.5.014s.174.014.39.041c0-.367-.083-.5-.206-.587a1.243,1.243,0,0,0-.711-.165h0a3.264,3.264,0,0,0-1.3.28.229.229,0,0,1-.069.032.194.194,0,0,1-.248-.119L13.826,25a.2.2,0,0,1,.078-.262,3.216,3.216,0,0,1,1-.335A5.568,5.568,0,0,1,15.762,24.327Zm7.374,0a2.594,2.594,0,0,1,.941.174,1.844,1.844,0,0,1,.633.45,1.893,1.893,0,0,1,.431.725,3.126,3.126,0,0,1,.1,1.285.223.223,0,0,1-.216.2l-3.006,0a1.119,1.119,0,0,0,.321.762,1.441,1.441,0,0,0,.991.312h.014a2.959,2.959,0,0,0,1.17-.188l.064-.018a.207.207,0,0,1,.266.115l.206.532a.206.206,0,0,1-.083.289,3.625,3.625,0,0,1-1.634.3h-.014a3.429,3.429,0,0,1-1.161-.179,2.213,2.213,0,0,1-.831-.509,2.044,2.044,0,0,1-.482-.785,2.927,2.927,0,0,1-.151-.964,3.292,3.292,0,0,1,.142-.968,2.128,2.128,0,0,1,1.211-1.335A2.768,2.768,0,0,1,23.137,24.332Zm12.7,0a2.636,2.636,0,0,1,1.042.193,2.182,2.182,0,0,1,.753.528,2.23,2.23,0,0,1,.445.789,3.252,3.252,0,0,1,.142.959,3.2,3.2,0,0,1-.142.954,2.064,2.064,0,0,1-1.2,1.317,2.653,2.653,0,0,1-1.042.188,2.614,2.614,0,0,1-1.037-.188,2.066,2.066,0,0,1-.753-.528,2.09,2.09,0,0,1-.445-.789,3.2,3.2,0,0,1-.142-.954,3.252,3.252,0,0,1,.142-.959,2.162,2.162,0,0,1,.445-.789,2.121,2.121,0,0,1,.748-.528A2.652,2.652,0,0,1,35.839,24.332Zm12.569,0a2.612,2.612,0,0,1,.941.174,1.942,1.942,0,0,1,.629.45,1.9,1.9,0,0,1,.436.725,3.008,3.008,0,0,1,.092,1.294.206.206,0,0,1-.2.188l-3.01,0a1.1,1.1,0,0,0,.317.757,1.426,1.426,0,0,0,.991.312h.014a3.087,3.087,0,0,0,1.175-.184l.064-.018a.209.209,0,0,1,.266.115l.2.532a.207.207,0,0,1-.078.289,3.648,3.648,0,0,1-1.634.3H48.6a3.4,3.4,0,0,1-1.161-.174,2.27,2.27,0,0,1-.835-.509,2.083,2.083,0,0,1-.482-.789,3,3,0,0,1-.147-.959,3.292,3.292,0,0,1,.142-.968,2.25,2.25,0,0,1,.445-.794,2.21,2.21,0,0,1,.766-.541A2.737,2.737,0,0,1,48.408,24.332Zm-7.136,0a2.708,2.708,0,0,1,.555.1.2.2,0,0,1,.124.252v0c-.032.078-.184.5-.239.629a.24.24,0,0,1-.239.161,1.661,1.661,0,0,0-.33-.041,1.451,1.451,0,0,0-.385.05.865.865,0,0,0-.344.2,1,1,0,0,0-.243.395,2.412,2.412,0,0,0-.1.743v2.235a.211.211,0,0,1-.216.206h-.821a.21.21,0,0,1-.211-.206V24.58a.206.206,0,0,1,.207-.206h.8a.206.206,0,0,1,.207.206v.1a2.19,2.19,0,0,1,.367-.211A1.78,1.78,0,0,1,41.272,24.332Zm-30.218.115a3.526,3.526,0,0,1,.863.11A3.526,3.526,0,0,0,11.054,24.447Zm12.009.886a.911.911,0,0,0-.8.376,1.368,1.368,0,0,0-.206.5l1.964,0a1.1,1.1,0,0,0-.174-.5A.865.865,0,0,0,23.063,25.332Zm25.266,0a.9.9,0,0,0-.8.376,1.225,1.225,0,0,0-.206.5l1.959,0a1.068,1.068,0,0,0-.174-.5A.865.865,0,0,0,48.33,25.332Zm-12.491.018a.905.905,0,0,0-.8.358A1.918,1.918,0,0,0,34.77,26.8a1.9,1.9,0,0,0,.271,1.1.884.884,0,0,0,.8.363.9.9,0,0,0,.808-.363,1.871,1.871,0,0,0,.275-1.1,1.846,1.846,0,0,0-.275-1.092A.908.908,0,0,0,35.839,25.351Zm9.572.032h0Zm-32.939.128a.088.088,0,0,1-.087.055H12.4A.079.079,0,0,0,12.472,25.511Zm16.869,0a.08.08,0,0,1-.083.055h.009A.075.075,0,0,0,29.341,25.511Zm-3.084.922a1.279,1.279,0,0,0,.427.385A1.279,1.279,0,0,1,26.257,26.434Zm-10.44.587a1.532,1.532,0,0,0-.757.161l-.05.032a.508.508,0,0,0-.225.463.569.569,0,0,0,.073.312.482.482,0,0,0,.156.142l0,0a1.46,1.46,0,0,0,.835.142,6.2,6.2,0,0,0,.734-.087v-1.12c-.142-.014-.427-.046-.734-.05ZM45.48,28.186a.127.127,0,0,0-.037,0h.037Zm-25.8.863a.09.09,0,0,1-.087.1A.09.09,0,0,0,19.677,29.049Z" transform="translate(787.807 10964.029)" fill="#fff"/>
  </g>
</svg>
