<svg xmlns="http://www.w3.org/2000/svg" width="112" height="112" viewBox="0 0 112 112">
  <g id="Group_228" data-name="Group 228" transform="translate(-8361 -11780)">
    <circle id="Ellipse_5" data-name="Ellipse 5" cx="56" cy="56" r="56" transform="translate(8361 11780)" fill="#ff6a2b"/>
    <path id="icons8-source_code" d="M25.675,3a2.014,2.014,0,0,0-2,1.791l-3.6,32.418a2.011,2.011,0,1,0,4,.443l3.6-32.418A2.009,2.009,0,0,0,25.675,3ZM11.131,10.505A2.019,2.019,0,0,0,9.7,11.1L1.008,19.79a2.023,2.023,0,0,0,0,2.863L9.7,31.345a2.024,2.024,0,1,0,2.863-2.863L5.3,21.222l7.26-7.26a2.025,2.025,0,0,0-1.431-3.456Zm25.482,0a2.025,2.025,0,0,0-1.431,3.456l7.26,7.26-7.26,7.26a2.024,2.024,0,0,0,2.863,2.863l8.692-8.692a2.023,2.023,0,0,0,0-2.863L38.044,11.1A2.019,2.019,0,0,0,36.613,10.505Z" transform="translate(8393.393 11815.917)" fill="#fff"/>
  </g>
</svg>
