<svg id="Component_4_1" data-name="Component 4 – 1" xmlns="http://www.w3.org/2000/svg" width="112" height="112" viewBox="0 0 112 112">
  <circle id="Ellipse_5" data-name="Ellipse 5" cx="56" cy="56" r="56" fill="#ff6a2b"/>
  <path id="icons8-communication" d="M17.943,3C9.138,3,2,9.489,2,17.494A13.824,13.824,0,0,0,6.923,27.937a8.057,8.057,0,0,1-3,4.1l0,0a.723.723,0,0,0,.4,1.384,11.558,11.558,0,0,0,7.12-2.715,16.953,16.953,0,0,0,2.836.883,11.763,11.763,0,0,1,.846-9.747H12.146a1.449,1.449,0,0,1,0-2.9h5.172a14.452,14.452,0,0,1,4.161-2.9H12.146a1.449,1.449,0,0,1,0-2.9h11.6a1.336,1.336,0,0,1,1.4,1.724,16.06,16.06,0,0,1,2.953-.275,15.79,15.79,0,0,1,5.65,1.033C32.73,8.506,26.051,3,17.943,3ZM28.089,17.494c-6.4,0-11.6,4.542-11.6,10.146s5.192,10.146,11.6,10.146a13,13,0,0,0,4.326-.739,11.2,11.2,0,0,0,6.392,2.171.724.724,0,0,0,.4-1.387,8.456,8.456,0,0,1-2.686-3.244,9.468,9.468,0,0,0,3.162-6.947C39.684,22.036,34.492,17.494,28.089,17.494Zm-4.348,5.8h8.7a1.449,1.449,0,1,1,0,2.9h-8.7a1.449,1.449,0,0,1,0-2.9Zm0,5.8h8.7a1.449,1.449,0,1,1,0,2.9h-8.7a1.449,1.449,0,1,1,0-2.9Z" transform="translate(35.158 34.883)" fill="#fff"/>
</svg>
