<svg xmlns="http://www.w3.org/2000/svg" width="112" height="112" viewBox="0 0 112 112">
  <g id="Group_199" data-name="Group 199" transform="translate(-307 -3164)">
    <circle id="Ellipse_4" data-name="Ellipse 4" cx="56" cy="56" r="56" transform="translate(307 3164)" fill="#ff6a2b"/>
    <path id="icons8-new_company" d="M11.329,3a1.582,1.582,0,1,0,0,3.164H30.315a1.582,1.582,0,1,0,0-3.164ZM6.582,9.329a1.582,1.582,0,1,0,0,3.164V40.972h9.493V33.061h6.789a4.739,4.739,0,0,1,.161-.748A4.817,4.817,0,0,1,24.78,29.9H22.4V26.732h3.164v2.71c.03-.014.055-.037.087-.049a4.822,4.822,0,0,1,5.813-4.224,4.824,4.824,0,0,1,3.594-1.6V12.493a1.582,1.582,0,1,0,0-3.164Zm3.164,4.746h3.164v3.164H9.747Zm6.329,0h3.164v3.164H16.075Zm6.329,0h3.164v3.164H22.4Zm6.329,0H31.9v3.164H28.732ZM9.747,20.4h3.164v3.164H9.747Zm6.329,0h3.164v3.164H16.075Zm6.329,0h3.164v3.164H22.4Zm6.329,0H31.9v3.164H28.732ZM9.747,26.732h3.164V29.9H9.747Zm6.329,0h3.164V29.9H16.075Zm18.986,0a1.662,1.662,0,0,0-1.289.609l-1.146,1.391-1.743-.451a1.673,1.673,0,0,0-2.089,1.514l-.108,1.8-1.678.661a1.669,1.669,0,0,0-.8,2.45l.967,1.52-.967,1.52a1.67,1.67,0,0,0,.8,2.45l1.678.661.108,1.8a1.673,1.673,0,0,0,2.089,1.514l1.743-.451,1.146,1.391a1.67,1.67,0,0,0,2.577,0L37.5,43.719l1.743.451a1.673,1.673,0,0,0,2.089-1.514l.108-1.8,1.678-.661a1.669,1.669,0,0,0,.8-2.45l-.967-1.52.967-1.52a1.673,1.673,0,0,0-.8-2.454l-1.678-.661-.108-1.8a1.675,1.675,0,0,0-2.089-1.517l-1.743.451L36.35,27.341A1.663,1.663,0,0,0,35.061,26.732ZM9.747,33.061h3.164v3.164H9.747Z" transform="translate(340.348 3200.642)" fill="#fff"/>
  </g>
</svg>
