<svg id="Group_190" data-name="Group 190" xmlns="http://www.w3.org/2000/svg" width="732.92" height="480.443" viewBox="0 0 732.92 480.443">
  <path id="Path_275" data-name="Path 275" d="M469.674,657.953c2.651-21.319,15.864-42.325,36.2-49.263a98.984,98.984,0,0,0,.005,67.959c3.124,8.451,7.479,17.525,4.54,26.043-1.828,5.3-6.3,9.355-11.3,11.89s-10.55,3.744-16.03,4.928l-1.078.892C473.306,700.758,467.023,679.273,469.674,657.953Z" transform="translate(-207.24 -241.653)" fill="#f0f0f0"/>
  <path id="Path_276" data-name="Path 276" d="M509.2,608.979a84.6,84.6,0,0,0-21.032,47.615A36.436,36.436,0,0,0,488.586,668a20.9,20.9,0,0,0,5.2,9.692c2.343,2.574,5.037,4.935,6.713,8.033a12.794,12.794,0,0,1,.625,10.445c-1.48,4.244-4.4,7.7-7.366,10.988-3.3,3.646-6.78,7.381-8.182,12.215-.17.586-1.069.288-.9-.3,2.439-8.41,10.6-13.187,14.5-20.762,1.817-3.534,2.579-7.638.876-11.369-1.489-3.263-4.265-5.7-6.66-8.286a22.3,22.3,0,0,1-5.435-9.287,33.681,33.681,0,0,1-.852-11.35,82.081,82.081,0,0,1,5.995-24.944,86.108,86.108,0,0,1,15.483-24.812C508.982,607.816,509.606,608.529,509.2,608.979Z" transform="translate(-210.371 -241.539)" fill="#fff"/>
  <path id="Path_277" data-name="Path 277" d="M486.937,658.157a12.694,12.694,0,0,1-9.662-13.3.474.474,0,0,1,.946.047,11.754,11.754,0,0,0,9.013,12.35C487.827,657.4,487.526,658.3,486.937,658.157Z" transform="translate(-208.882 -248.831)" fill="#fff"/>
  <path id="Path_278" data-name="Path 278" d="M494.317,690.123a24.465,24.465,0,0,0,10.925-14.09c.172-.585,1.071-.287.9.3a25.448,25.448,0,0,1-11.4,14.639C494.217,691.28,493.794,690.432,494.317,690.123Z" transform="translate(-212.265 -255.116)" fill="#fff"/>
  <path id="Path_279" data-name="Path 279" d="M500.8,628.994a7.185,7.185,0,0,0,6.809-.346c.521-.318.943.53.426.846a8.052,8.052,0,0,1-7.532.4.489.489,0,0,1-.3-.6.476.476,0,0,1,.6-.3Z" transform="translate(-213.491 -245.648)" fill="#fff"/>
  <path id="Path_280" data-name="Path 280" d="M570.983,655.77c-.32.208-.639.416-.959.631a94.61,94.61,0,0,0-12.1,9.446c-.3.264-.591.535-.879.807a99.756,99.756,0,0,0-21.665,29.656,96.887,96.887,0,0,0-5.306,13.729c-1.958,6.5-3.564,13.7-7.44,19.012a16.655,16.655,0,0,1-1.295,1.6H486.314c-.08-.04-.16-.072-.24-.112l-1.4.064c.056-.248.12-.5.176-.751.032-.144.072-.288.1-.432.024-.1.048-.192.064-.28.008-.032.016-.064.024-.088.016-.088.04-.168.056-.248q.528-2.146,1.087-4.291c0-.008,0-.008.008-.016a142.445,142.445,0,0,1,11.987-31.47c.16-.3.32-.6.5-.9a92.449,92.449,0,0,1,8.3-12.594,81.736,81.736,0,0,1,5.442-6.225,67.948,67.948,0,0,1,17.005-12.738c12.563-6.633,27.107-9.174,40.533-5.122C570.3,655.555,570.639,655.659,570.983,655.77Z" transform="translate(-210.376 -250.654)" fill="#f0f0f0"/>
  <path id="Path_281" data-name="Path 281" d="M570.945,656.657a84.6,84.6,0,0,0-45.461,25.355,36.436,36.436,0,0,0-6.537,9.358,20.9,20.9,0,0,0-1.686,10.868c.321,3.465,1.05,6.973.523,10.455a12.8,12.8,0,0,1-5.79,8.716c-3.737,2.5-8.148,3.5-12.5,4.338-4.828.926-9.857,1.812-13.887,4.827-.488.365-1.027-.414-.539-.778,7.011-5.247,16.405-4.146,24.075-7.85,3.579-1.728,6.658-4.546,7.545-8.55.775-3.5.026-7.119-.329-10.625a22.3,22.3,0,0,1,1.252-10.688,33.684,33.684,0,0,1,6.154-9.575,82.083,82.083,0,0,1,19.8-16.307,86.106,86.106,0,0,1,27.3-10.489C571.468,655.594,571.537,656.539,570.945,656.657Z" transform="translate(-210.417 -251.096)" fill="#fff"/>
  <path id="Path_282" data-name="Path 282" d="M539.539,678.92a12.693,12.693,0,0,1,.291-16.434c.4-.456,1.131.151.727.607a11.754,11.754,0,0,0-.239,15.288C540.706,678.851,539.925,679.387,539.539,678.92Z" transform="translate(-220.818 -252.426)" fill="#fff"/>
  <path id="Path_283" data-name="Path 283" d="M524.769,710.564a24.466,24.466,0,0,0,17.207-4.673c.49-.364,1.028.415.539.778A25.447,25.447,0,0,1,524.6,711.5c-.607-.068-.434-1,.169-.932Z" transform="translate(-218.319 -261.158)" fill="#fff"/>
  <path id="Path_284" data-name="Path 284" d="M568.866,664.057a7.185,7.185,0,0,0,5.645,3.823c.607.06.434.991-.169.932a8.051,8.051,0,0,1-6.254-4.216.489.489,0,0,1,.12-.659A.476.476,0,0,1,568.866,664.057Z" transform="translate(-227.115 -252.733)" fill="#fff"/>
  <path id="Path_285" data-name="Path 285" d="M616.163,156.028a5.6,5.6,0,0,0-5.594,5.594V398.167a5.6,5.6,0,0,0,5.594,5.594H962.989a5.6,5.6,0,0,0,5.594-5.594V161.622a5.6,5.6,0,0,0-5.594-5.594Z" transform="translate(-235.663 -150.731)" fill="#e6e6e6"/>
  <path id="Path_286" data-name="Path 286" d="M626.163,166.028a5.6,5.6,0,0,0-5.594,5.594V392.184a5.6,5.6,0,0,0,5.594,5.594H957.006a5.6,5.6,0,0,0,5.594-5.594V171.622a5.6,5.6,0,0,0-5.594-5.594Z" transform="translate(-237.672 -152.739)" fill="#fff"/>
  <path id="Path_287" data-name="Path 287" d="M938.474,226.215c-7.608-2.97-15.812,4.479-17.594,12.45s.5,16.214,1,24.366-1.635,17.618-8.908,21.334c-8.363,4.273-18.173-1.282-27.527-2.129a27.7,27.7,0,0,0-24.4,11.052c-7.714,10.583-7.322,25.95-16.45,35.34-7.931,8.159-20.856,9.221-31.951,6.7s-21.294-8-32.2-11.235-23.538-3.906-32.888,2.579c-9.76,6.771-14.1,20.042-24.819,25.17-7.576,3.626-16.544,2.243-24.652.047s-16.283-5.158-24.653-4.453-17.1,6.48-17.759,14.853l287.259-.8q1.957-56.874,3.915-113.748C947.132,239.5,946.151,229.212,938.474,226.215Z" transform="translate(-244.723 -164.694)" fill="#ff6a2b" opacity="0.1"/>
  <path id="Path_288" data-name="Path 288" d="M471.425,469.2a9.643,9.643,0,0,1,7.23-12.9l5.046-33.895,13.26,11.886-6.825,30.365a9.7,9.7,0,0,1-18.712,4.542Z" transform="translate(-207.588 -204.237)" fill="#ffb6b6"/>
  <path id="Path_289" data-name="Path 289" d="M351.414,475.254a9.643,9.643,0,0,0-3.177-14.441l5.006-33.9L337.1,434.438l-2.28,31.039a9.7,9.7,0,0,0,16.589,9.777Z" transform="translate(-180.111 -205.141)" fill="#ffb6b6"/>
  <path id="Path_290" data-name="Path 290" d="M303.126,567.4H318.1l7.124-57.756-22.1,0Z" transform="translate(-60.886 -102.367)" fill="#ffb6b6"/>
  <path id="Path_291" data-name="Path 291" d="M439.779,725.2h29.49a18.793,18.793,0,0,1,18.793,18.791v.612l-48.282,0Z" transform="translate(-201.358 -265.054)" fill="#2f2e41"/>
  <path id="Path_292" data-name="Path 292" d="M203.126,567.4H218.1l7.124-57.756-22.1,0Z" transform="translate(-40.8 -102.367)" fill="#ffb6b6"/>
  <path id="Path_293" data-name="Path 293" d="M339.779,725.2h29.49a18.793,18.793,0,0,1,18.793,18.791v.612l-48.282,0Z" transform="translate(-181.272 -265.054)" fill="#2f2e41"/>
  <circle id="Ellipse_32" data-name="Ellipse 32" cx="27.049" cy="27.049" r="27.049" transform="translate(205.745 16.693)" fill="#ffb6b6"/>
  <path id="Path_294" data-name="Path 294" d="M350.019,447.43s.4,121.04-1.534,122.973-8.791,74.32-8.791,74.32h23.974c1.6,0,42.381-157.685,42.381-157.685s17.389,85.011,14.491,89.842-.639,68.15.966,73.419c0,0,20.145,6.447,22.077,1.617s4.795-70.324,4.795-70.324l5.594-108.683.122-28.376Z" transform="translate(-181.255 -208.68)" fill="#2f2e41"/>
  <path id="Path_295" data-name="Path 295" d="M489.826,274.084h10.763a3.482,3.482,0,0,1,3.4,2.717c1.661,7.354,5.941,28.2,5.159,44.619-.966,20.287-2.9,52.166-2.9,55.064s-9.66,47.336-9.66,47.336-6.641-10.915-13.947-8.839l1.389-39.463,1.932-16.423-2.9-28.981Z" transform="translate(-209.967 -174.443)" fill="#e4e4e4"/>
  <path id="Path_296" data-name="Path 296" d="M395.646,251.951s-34.294,11.408-38.159,21.068,14.9,79.694,14.9,79.694-7.192,31.966-16.829,62.314c-4.385,13.811,37.465,1.987,56.785-4.776,11.972-4.152,34.116,2.224,46.581-.055,0,0,1.932-26.083,0-30.913s-6.762-1.932-3.864-8.694,1.932-7.728.966-10.626,1.932-6.762,1.932-10.626-.966-12.559-.966-12.559,26.083-60.861,20.287-66.657-35.3-16.965-35.3-16.965S442.708,253.621,395.646,251.951Z" transform="translate(-184.376 -169.998)" fill="#e4e4e4"/>
  <path id="Path_297" data-name="Path 297" d="M359.6,274.084l-3.431,1.715a9.676,9.676,0,0,0-5.183,6.871l-13.605,72.561-2.9,68.589s16.423-4.83,21.253,0c0,0-4.83-14.491-1.932-19.321s2.9-11.592,2.9-11.592-1.932,0,2.9-4.83,5.8-6.762,4.83-7.728-1.932-9.66-1.932-10.627,9.66-65.691,9.66-65.691Z" transform="translate(-180.208 -174.443)" fill="#e4e4e4"/>
  <path id="Path_298" data-name="Path 298" d="M653.554,360.337a1.6,1.6,0,1,1,0-3.2c73.852,0,144.284-14.787,198.322-41.638,50.671-25.178,82.961-59.321,88.59-93.675a1.6,1.6,0,0,1,3.155.512v0c-2.923,17.845-12.414,35.35-28.206,52.029-15.576,16.45-36.474,31.251-62.115,43.992C798.828,345.431,727.89,360.337,653.554,360.337Z" transform="translate(-243.976 -163.677)" fill="#ff6a2b"/>
  <path id="Path_299" data-name="Path 299" d="M815.409,208.585H510.138V57.765h1.6V206.986H815.409Z" transform="translate(-102.467 -11.603)" fill="#e6e6e6"/>
  <path id="Path_300" data-name="Path 300" d="M399.212,202.253a14.861,14.861,0,0,1-.566-9.552c2.209,5.86,6.6,4.071,8.836,1.323,2.805-3.446,2-11.406,6.427-11.762s8.858.482,13.222,1.316l-2.169-3.715,9.471.588-2.82-4.64a32.381,32.381,0,0,1,19.177,18.147,20.767,20.767,0,0,0-10.91-30.552l3.736-4.9-25.35-2.5a7.528,7.528,0,0,1,2.95-6.372c-3.32-.75-6.84.375-9.661,2.278a37.625,37.625,0,0,0-7.27,7.12c-3.34,3.923-6.72,7.908-8.906,12.574A29.618,29.618,0,0,0,399.212,202.253Zm.306-11.9h0l.025,0Z" transform="translate(-191.912 -149.399)" fill="#2f2e41"/>
  <path id="Path_301" data-name="Path 301" d="M659.66,750.123H142.383a.952.952,0,1,1,0-1.9H659.66a.952.952,0,1,1,0,1.9Z" transform="translate(-141.431 -269.679)" fill="#cacaca" opacity="0"/>
</svg>
