<svg xmlns="http://www.w3.org/2000/svg" width="112" height="112" viewBox="0 0 112 112">
  <g id="Group_224" data-name="Group 224" transform="translate(-1264 -12235)">
    <circle id="Ellipse_5" data-name="Ellipse 5" cx="56" cy="56" r="56" transform="translate(1264 12235)" fill="#2b6bb8"/>
    <path id="icons8-css" d="M39.915,5H4.892A3.9,3.9,0,0,0,1,8.892v21.4a3.9,3.9,0,0,0,3.892,3.892H39.915a3.9,3.9,0,0,0,3.892-3.892V8.892A3.9,3.9,0,0,0,39.915,5ZM14.62,22.512a1.949,1.949,0,0,0,1.946-1.946h1.946a3.892,3.892,0,1,1-7.783,0V18.62a3.892,3.892,0,0,1,7.783,0H16.566a1.946,1.946,0,0,0-3.892,0v1.946A1.949,1.949,0,0,0,14.62,22.512Zm9.058-3.763c.436.16,2.592,1.121,2.609,3.082,0,.416-.1,2.6-2.891,2.627a2.986,2.986,0,0,1-3.24-3.115h1.9c0,.286.025,1.668,1.343,1.561a1.013,1.013,0,0,0,.99-1.06c.045-.714-.636-1.142-1.356-1.489-1.012-.486-2.613-1.084-2.642-2.979-.025-1.706,1.23-2.695,2.969-2.646a2.839,2.839,0,0,1,2.938,2.926H24.411c0-.2.033-1.358-1.088-1.358a.968.968,0,0,0-1.047,1.092C22.333,18.251,23.47,18.657,23.678,18.749Zm7.783,0c.436.16,2.592,1.121,2.609,3.082,0,.416-.1,2.6-2.891,2.627a2.986,2.986,0,0,1-3.24-3.115h1.9c0,.286.025,1.668,1.343,1.561a1.013,1.013,0,0,0,.99-1.06c.045-.714-.636-1.142-1.356-1.489-1.012-.486-2.613-1.084-2.642-2.979-.025-1.706,1.23-2.695,2.969-2.646a2.839,2.839,0,0,1,2.938,2.926H32.195c0-.2.033-1.358-1.088-1.358a.968.968,0,0,0-1.047,1.092C30.116,18.251,31.253,18.657,31.461,18.749Z" transform="translate(1297.295 12271.474)" fill="#fff"/>
  </g>
</svg>
