<svg xmlns="http://www.w3.org/2000/svg" width="112" height="112" viewBox="0 0 112 112">
  <g id="Group_200" data-name="Group 200" transform="translate(-766 -3164)">
    <circle id="Ellipse_5" data-name="Ellipse 5" cx="56" cy="56" r="56" transform="translate(766 3164)" fill="#ff6a2b"/>
    <path id="icons8-euro" d="M14.275,3A11.275,11.275,0,1,0,25.55,14.275,11.275,11.275,0,0,0,14.275,3Zm2.819,15.91a11.533,11.533,0,0,1-1.244.063c-3.277,0-4.542-1.509-5.029-2.819H9.577v-.94h1a5,5,0,0,1-.056-.94H9.577v-.94h1.01c.223-1.37,1.185-3.758,5.262-3.758a6.947,6.947,0,0,1,1.218.1v1.613a7.6,7.6,0,0,0-1.184-.069c-2.26,0-2.993,1.218-3.231,2.114h3.5v.94H12.537a3.494,3.494,0,0,0,.116.94h3.5v.94H13.085a3.155,3.155,0,0,0,2.771,1.174,8.98,8.98,0,0,0,1.237-.063Z" transform="translate(795 3197.758)" fill="#fff"/>
    <path id="icons8-british_pound" d="M14.275,3A11.275,11.275,0,1,0,25.55,14.275,11.275,11.275,0,0,0,14.275,3Zm3.1,15.973H10.237V17.449a2.114,2.114,0,0,0,1.923-2.057,1.587,1.587,0,0,0-.07-.431H10.263V13.609h1.422a3.961,3.961,0,0,1-.375-1.543c0-1.575,1.3-2.489,3.542-2.489a8.656,8.656,0,0,1,2.1.21v1.543a7.514,7.514,0,0,0-1.822-.21c-1.168,0-1.891.5-1.891,1.295a3.152,3.152,0,0,0,.267,1.193h2.648V14.96H13.9a1.425,1.425,0,0,1,.064.412,1.97,1.97,0,0,1-1.048,1.847v.12h4.456v1.633Z" transform="translate(811.033 3216.549)" fill="#fff"/>
    <path id="icons8-us_dollar_circled" d="M14.275,3A11.275,11.275,0,1,0,25.55,14.275,11.275,11.275,0,0,0,14.275,3Zm.94,16.778v2.013H13.335V19.783c-2-.267-3.261-1.431-3.332-3.156h2.143c.1.859.969,1.409,2.216,1.409,1.153,0,1.967-.558,1.967-1.358,0-.676-.528-1.065-1.827-1.344l-1.38-.293c-1.931-.4-2.877-1.409-2.877-3.024a3.274,3.274,0,0,1,3.089-3.231V6.758h1.879V8.784A3.368,3.368,0,0,1,18.35,11.9H16.265a1.765,1.765,0,0,0-1.952-1.394c-1.109,0-1.842.514-1.842,1.321,0,.653.506,1.028,1.747,1.292l1.277.272c2.129.448,3.046,1.365,3.046,3.009C18.54,18.262,17.295,19.493,15.214,19.778Z" transform="translate(820.489 3194)" fill="#fff"/>
  </g>
</svg>
