<svg xmlns="http://www.w3.org/2000/svg" width="515.485" height="511.052" viewBox="0 0 515.485 511.052">
  <g id="Group_183" data-name="Group 183" transform="translate(0)">
    <path id="Path_420" data-name="Path 420" d="M860.726,405.722a8.112,8.112,0,0,0-8.117-7.882,7.79,7.79,0,0,0-1.28.128l-14.188-24.486-14.958,2.828,23.062,31.441a8.089,8.089,0,0,0,7.834,6.014,7.741,7.741,0,0,0,7.652-7.83C860.73,405.864,860.729,405.793,860.726,405.722Z" transform="translate(-380.355 -181.533)" fill="#a0616a"/>
    <path id="Path_421" data-name="Path 421" d="M503.3,573.188l-11.854,0-5.64-45.723h17.5Z" transform="translate(-71.105 -77.203)" fill="#a0616a"/>
    <path id="Path_422" data-name="Path 422" d="M805.132,740.757H768.679v-.461a14.189,14.189,0,0,1,14.187-14.188h0l6.659-5.052,12.424,5.052h3.182Z" transform="translate(-372.524 -232.406)" fill="#2f2e41"/>
    <path id="Path_423" data-name="Path 423" d="M513.114,495.958l-7.988,8.757-37.584-26.645,11.79-12.927Z" transform="translate(-68.432 -68.081)" fill="#a0616a"/>
    <path id="Path_424" data-name="Path 424" d="M831.5,657.569,806.93,684.5l-.341-.311a14.189,14.189,0,0,1-.922-20.044h0l.754-8.324,12.1-5.775,2.144-2.351Z" transform="translate(-377.395 -221.669)" fill="#2f2e41"/>
    <path id="Path_425" data-name="Path 425" d="M716.489,373.34l-22.208,40.437,1.707,29.023-9.39,93.9,87.924,73.413,11.1-16.219-49.511-63.169.594-4.479a6.52,6.52,0,0,1,1.128-8.512c4.254-4.081.639-4.819.639-4.819l7.03-53.041L795.863,449.8,774.738,370.09Z" transform="translate(-360.51 -181.037)" fill="#2f2e41"/>
    <path id="Path_426" data-name="Path 426" d="M756.6,438.779l26.463,222.8,23.048,2.319V586.029s-4.268-4.237,0-6.172,0-9.2,0-9.2V457.733l-21.341-33.466Z" transform="translate(-370.756 -188.966)" fill="#2f2e41"/>
    <path id="Path_427" data-name="Path 427" d="M692.715,223.267l-20.487,7.683-11.951,27.316S632.96,271.924,643.2,290.7s51.463,60,51.463,60c-5.043,9.837-3.318,17.4,4.877,22.8,10.7,17.16,40.737,8.753,74.266-4.268,6.2-15.131-3.4-38.564-12.843-61.912l2.6-31.134s-29.447-42.85-34.145-42.682-23.048-1.707-23.048-1.707Z" transform="translate(-353.822 -159.547)" fill="#3f3d56"/>
    <path id="Path_428" data-name="Path 428" d="M735.6,239.6h0a16.423,16.423,0,0,1,25.181,3.157L805.436,313.5c4.286,2.03,6.44,6.607,7.72,12.229,3.183-1.08,5.594,1.02,6.328,10.024l16.843,26.682-15.365,17.073-21.251-28.169c-4.941-1.306-2.643-8.387-6.062-8.035s-5.071-6.722-5.071-6.722c-4.312-.049-5.579-2.072-4.323-5.73L740.72,268.635Z" transform="translate(-367.682 -161.278)" fill="#3f3d56"/>
    <path id="Path_429" data-name="Path 429" d="M513.078,236.755a8.112,8.112,0,0,0,10.007,5.279,7.784,7.784,0,0,0,1.193-.483l20.506,19.5,13.557-6.923-30.979-23.68a8.089,8.089,0,0,0-9.21-3.566,7.741,7.741,0,0,0-5.139,9.667Q513.044,236.654,513.078,236.755Z" transform="translate(-335.053 -160.028)" fill="#a0616a"/>
    <path id="Path_430" data-name="Path 430" d="M643.3,268.144l-28.17,8.536-19.855-3.156-4.454-3.182c-1.918-5.185-5.782-7.624-10.932-8.249,0,0-4.166,1.427-4.1-3.09s-27.247-20.737-27.247-20.737L536.6,259.608l15.365,18.78c5.454.168,8.815-.551,5.975,5.975,1.159,6.285.357,4.826,5.039,4.941l23.985,24.082,50.365,7.683L669.315,309.8Z" transform="translate(-338.555 -161.742)" fill="#3f3d56"/>
    <circle id="Ellipse_50" data-name="Ellipse 50" cx="26.221" cy="26.221" r="26.221" transform="translate(285.535 10.278)" fill="#a0616a"/>
    <path id="Path_431" data-name="Path 431" d="M689.5,190.634q-.034-.438-.09-.877a1.962,1.962,0,0,0,.09.877Z" transform="translate(-360.919 -154.642)" fill="#2f2e41"/>
    <path id="Path_432" data-name="Path 432" d="M626.615,167.122c-.46-3.146,1.292-6.712,4.355-7.584,1.909-.545,3.946-.023,5.926.012,5.554.094,15.425-9.159,20.787-10.577s12.322,1.541,12.757,7.077c13.734-4.089,24.222,5.163,24.862,19.754.5,11.411-9.2,26.964-19.438,32.04-1.253-6.64,3.388-16.594,2.138-23.227a13.448,13.448,0,0,0-1.732-5.181,4.612,4.612,0,0,0-4.683-2.171,3.023,3.023,0,0,0-2.1,3.5,12.334,12.334,0,0,0-20.63-.956l1.449-5.965a28.7,28.7,0,0,1-13.7,8.383,3.812,3.812,0,0,1-.666-1.265,2.872,2.872,0,0,1,.566-2.77,6.652,6.652,0,0,0-2.546,4.563,13.074,13.074,0,0,1-9.166-1.8C622.154,179.16,627.075,170.267,626.615,167.122Z" transform="translate(-351.349 -148.621)" fill="#2f2e41"/>
    <path id="Path_433" data-name="Path 433" d="M901.605,742.126H873.276l-.122-.221c-.362-.657-.712-1.353-1.039-2.068-2.918-6.247-4.151-13.392-5.24-19.7l-.82-4.752a2.934,2.934,0,0,1,4.618-2.87q6.458,4.7,12.921,9.389c1.631,1.187,3.495,2.561,5.279,4.046.172-.836.352-1.675.532-2.5a2.936,2.936,0,0,1,5.361-.927l3.315,5.325c2.417,3.889,4.551,7.721,4.116,11.854a.645.645,0,0,1-.011.15,9.343,9.343,0,0,1-.481,1.99Z" transform="translate(-386.77 -231.074)" fill="#f0f0f0"/>
    <path id="Path_435" data-name="Path 435" d="M540.2,564.77H324.232A19.656,19.656,0,0,1,304.6,545.136V254.9a19.656,19.656,0,0,1,19.634-19.634H540.2A19.656,19.656,0,0,1,559.835,254.9V545.136A19.656,19.656,0,0,1,540.2,564.77Z" transform="translate(-304.598 -161.303)" fill="#fff"/>
    <path id="Path_436" data-name="Path 436" d="M540.2,564.77H324.232A19.656,19.656,0,0,1,304.6,545.136V254.9a19.656,19.656,0,0,1,19.634-19.634H540.2A19.656,19.656,0,0,1,559.835,254.9V545.136A19.656,19.656,0,0,1,540.2,564.77Zm-215.969-327.8A17.947,17.947,0,0,0,306.305,254.9V545.136a17.947,17.947,0,0,0,17.926,17.926H540.2a17.947,17.947,0,0,0,17.926-17.926V254.9A17.947,17.947,0,0,0,540.2,236.974Z" transform="translate(-304.598 -161.303)" fill="#e6e6e6"/>
    <circle id="Ellipse_51" data-name="Ellipse 51" cx="7.683" cy="7.683" r="7.683" transform="translate(43.962 154.422)" fill="#ccc"/>
    <path id="Path_437" data-name="Path 437" d="M527.376,339.228H395.708a.854.854,0,1,1,0-1.707H527.376a.854.854,0,1,1,0,1.707Z" transform="translate(-317.809 -176.27)" fill="#ccc"/>
    <circle id="Ellipse_52" data-name="Ellipse 52" cx="7.683" cy="7.683" r="7.683" transform="translate(44.389 296.979)" fill="#ccc"/>
    <circle id="Ellipse_53" data-name="Ellipse 53" cx="7.683" cy="7.683" r="7.683" transform="translate(44.014 215.541)" fill="#ccc"/>
    <path id="Path_438" data-name="Path 438" d="M541.658,362.949H507.513a3.415,3.415,0,1,1,0-6.829h34.145a3.415,3.415,0,1,1,0,6.829Z" transform="translate(-333.798 -178.992)" fill="#ff6a2b"/>
    <path id="Path_439" data-name="Path 439" d="M541.658,461.949H507.513a3.415,3.415,0,1,1,0-6.829h34.145a3.415,3.415,0,0,1,0,6.829Z" transform="translate(-333.798 -193.482)" fill="#ff6a2b"/>
    <path id="Path_440" data-name="Path 440" d="M500.934,286.431H402.857a9.009,9.009,0,0,1,0-18.017h98.077a9.009,9.009,0,1,1,0,18.017Z" transform="translate(-317.661 -166.155)" fill="#ff6a2b"/>
    <path id="Path_441" data-name="Path 441" d="M541.658,586.949H507.513a3.414,3.414,0,1,1,0-6.829h34.145a3.414,3.414,0,1,1,0,6.829Z" transform="translate(-333.798 -211.778)" fill="#ff6a2b"/>
    <path id="Path_442" data-name="Path 442" d="M518.981,553.522H404.108a9.484,9.484,0,0,1-2.151-.273,9.6,9.6,0,0,1-7.359-9.365V504.839a9.644,9.644,0,0,1,9.638-9.629H518.981a9.511,9.511,0,0,1,4.441,1.087,9.223,9.223,0,0,1,1.54,1,9.53,9.53,0,0,1,3.656,7.537v39.045a9.648,9.648,0,0,1-9.638,9.638Zm-114.746-56.6a7.935,7.935,0,0,0-7.93,7.921v39.046a7.9,7.9,0,0,0,6.056,7.707,7.789,7.789,0,0,0,1.757.223H518.981a7.94,7.94,0,0,0,7.93-7.93V504.839a7.84,7.84,0,0,0-3.012-6.2,7.566,7.566,0,0,0-1.264-.826,7.827,7.827,0,0,0-3.655-.895Z" transform="translate(-317.771 -199.35)" fill="#e6e6e6"/>
    <path id="Path_443" data-name="Path 443" d="M531.288,556.064q7.824-19.015,16.484-37.654v21.068a102.366,102.366,0,0,1-13.59,16.586Z" transform="translate(-337.778 -202.746)" fill="#e6e6e6"/>
    <path id="Path_444" data-name="Path 444" d="M540.8,498.284q-15.481,27.773-32.4,54.7h-1.963q17.2-27.35,32.959-55.614A8.39,8.39,0,0,1,540.8,498.284Z" transform="translate(-334.141 -199.666)" fill="#e6e6e6"/>
    <path id="Path_445" data-name="Path 445" d="M452.14,522.1a348.044,348.044,0,0,1-22.288,34.487h-11.7q11.5-14.008,23.014-28.016c2.2-2.689,4.593-5.506,7.9-6.6Z" transform="translate(-321.218 -203.267)" fill="#e6e6e6"/>
    <path id="Path_446" data-name="Path 446" d="M436.179,519.214c-1.221,1.272-2.39,2.595-3.491,3.969-2.424,2.919-4.815,5.864-7.213,8.8-1.494,1.827-2.988,3.654-4.465,5.48a10.894,10.894,0,0,1-1.332-1.007,11.943,11.943,0,1,1,15.265-18.372,11,11,0,0,1,1.236,1.129Z" transform="translate(-320.811 -202.294)" fill="#ff6a2b"/>
    <path id="Path_447" data-name="Path 447" d="M500.448,526.44l-22.433-8.2-11.14-4.072c-3.628-1.323-7.247-2.834-10.995-3.79a17.333,17.333,0,0,0-9.953.128,22.881,22.881,0,0,0-7.76,4.814q-1.485,1.37-2.877,2.826c-1.221,1.272-2.39,2.595-3.491,3.969-2.424,2.919-4.815,5.864-7.213,8.8-1.494,1.827-2.988,3.654-4.465,5.48q-7.4,9.053-14.717,18.148a8.564,8.564,0,0,1-1.946-.247q7.631-9.475,15.331-18.908c.589-.734,1.2-1.477,1.793-2.211q3.752-4.6,7.512-9.185c1.938-2.365,3.858-4.746,5.958-6.974.188-.2.376-.4.572-.606,4.26-4.4,9.578-8.3,15.946-8.4,3.747-.06,7.367,1.127,10.85,2.382,3.747,1.357,7.486,2.74,11.234,4.115l22.587,8.263,5.651,2.066C501.891,525.194,501.464,526.816,500.448,526.44Z" transform="translate(-319.068 -201.223)" fill="#e6e6e6"/>
    <path id="Path_448" data-name="Path 448" d="M426.15,432.2H399.527a5.374,5.374,0,0,1-5.368-5.368V401.927a5.374,5.374,0,0,1,5.368-5.368H426.15a5.374,5.374,0,0,1,5.368,5.368v24.906A5.374,5.374,0,0,1,426.15,432.2Z" transform="translate(-317.707 -184.911)" fill="#e6e6e6"/>
    <path id="Path_449" data-name="Path 449" d="M481.782,432.2H455.158a5.374,5.374,0,0,1-5.368-5.368V401.927a5.374,5.374,0,0,1,5.368-5.368h26.623a5.374,5.374,0,0,1,5.368,5.368v24.906A5.374,5.374,0,0,1,481.782,432.2Z" transform="translate(-325.849 -184.911)" fill="#e6e6e6"/>
    <path id="Path_450" data-name="Path 450" d="M537.413,432.2H510.789a5.374,5.374,0,0,1-5.368-5.368V401.927a5.374,5.374,0,0,1,5.368-5.368h26.623a5.374,5.374,0,0,1,5.368,5.368v24.906A5.374,5.374,0,0,1,537.413,432.2Z" transform="translate(-333.992 -184.911)" fill="#e6e6e6"/>
  </g>
</svg>
