<svg xmlns="http://www.w3.org/2000/svg" width="112" height="112" viewBox="0 0 112 112">
  <g id="Group_206" data-name="Group 206" transform="translate(-764 -5883)">
    <circle id="Ellipse_5" data-name="Ellipse 5" cx="56" cy="56" r="56" transform="translate(764 5883)" fill="#ff6a2b"/>
    <path id="icons8-meeting" d="M11.532,2A4.766,4.766,0,1,0,16.3,6.766,4.766,4.766,0,0,0,11.532,2Zm22.24,0a4.766,4.766,0,1,0,4.766,4.766A4.766,4.766,0,0,0,33.771,2ZM9.248,14.708A4.779,4.779,0,0,0,4.625,18.32l-2.578,10.3a1.589,1.589,0,1,0,3.084.769l1.635-6.54V40.073a1.642,1.642,0,0,0,3.279.109l.695-10.434a.793.793,0,0,1,1.582,0l.695,10.437a1.642,1.642,0,0,0,3.279-.109V22.149l.766,1.306a1.589,1.589,0,0,0,.416.465l4,3.016a1.629,1.629,0,0,0,2.327.009l4.015-3.025a1.589,1.589,0,0,0,.416-.465l.766-1.306V40.073a1.642,1.642,0,0,0,3.279.109l.695-10.437a.793.793,0,0,1,1.582,0l.695,10.434a1.642,1.642,0,0,0,3.279-.109V22.85l1.635,6.54a1.589,1.589,0,0,0,3.084-.769l-2.575-10.3a4.779,4.779,0,0,0-4.623-3.611H32.416A4.766,4.766,0,0,0,28.3,17.063l-2.647,4.511L22.652,23.84l-3.006-2.265L17,17.063a4.766,4.766,0,0,0-4.111-2.355H9.248Z" transform="translate(797.217 5916.713)" fill="#fff"/>
  </g>
</svg>
