<svg id="Group_184" data-name="Group 184" xmlns="http://www.w3.org/2000/svg" width="623.809" height="564.692" viewBox="0 0 623.809 564.692">
  <path id="Path_451" data-name="Path 451" d="M678.327,306.171H469.7A13.523,13.523,0,0,1,456.2,292.664V128.808a9.907,9.907,0,0,1,9.9-9.9H681.768a10.078,10.078,0,0,1,10.067,10.067V292.664A13.523,13.523,0,0,1,678.327,306.171Z" transform="translate(-262.016 -107.61)" fill="#f2f2f2"/>
  <path id="Path_452" data-name="Path 452" d="M485.795,297.5H668.221a13.1,13.1,0,0,0,13.1-13.1V158.7a13.1,13.1,0,0,0-13.1-13.1H485.795a13.1,13.1,0,0,0-13.1,13.1v125.7A13.1,13.1,0,0,0,485.795,297.5Z" transform="translate(-265.009 -112.451)" fill="#fff"/>
  <path id="Path_453" data-name="Path 453" d="M691.6,125.532H455.965v-6.877a13.568,13.568,0,0,1,13.557-13.548H678.048A13.568,13.568,0,0,1,691.6,118.655Z" transform="translate(-261.974 -105.106)" fill="#ccc"/>
  <circle id="Ellipse_54" data-name="Ellipse 54" cx="3.507" cy="3.507" r="3.507" transform="translate(215.122 6.726)" fill="#fff"/>
  <circle id="Ellipse_55" data-name="Ellipse 55" cx="3.507" cy="3.507" r="3.507" transform="translate(228.432 6.726)" fill="#fff"/>
  <circle id="Ellipse_56" data-name="Ellipse 56" cx="3.507" cy="3.507" r="3.507" transform="translate(241.742 6.726)" fill="#fff"/>
  <path id="Path_454" data-name="Path 454" d="M502.684,214.742H493.65a1.85,1.85,0,0,1-1.848-1.848V203.86a1.85,1.85,0,0,1,1.848-1.848h9.035a1.85,1.85,0,0,1,1.848,1.848v9.035A1.85,1.85,0,0,1,502.684,214.742Z" transform="translate(-268.473 -122.68)" fill="#ff6a2b"/>
  <path id="Path_455" data-name="Path 455" d="M502.684,243.336H493.65a1.85,1.85,0,0,1-1.848-1.848v-9.035a1.85,1.85,0,0,1,1.848-1.848h9.035a1.85,1.85,0,0,1,1.848,1.848v9.035a1.85,1.85,0,0,1-1.848,1.848Z" transform="translate(-268.473 -127.866)" fill="#3f3d56"/>
  <path id="Path_456" data-name="Path 456" d="M502.684,271.929H493.65a1.85,1.85,0,0,1-1.848-1.848v-9.035a1.85,1.85,0,0,1,1.848-1.848h9.035a1.85,1.85,0,0,1,1.848,1.848v9.035A1.85,1.85,0,0,1,502.684,271.929Z" transform="translate(-268.473 -133.051)" fill="#ccc"/>
  <path id="Path_457" data-name="Path 457" d="M567.278,211.226h-43.53a1.848,1.848,0,1,1,0-3.7h43.53a1.848,1.848,0,1,1,0,3.7Z" transform="translate(-273.932 -123.681)" fill="#ccc"/>
  <path id="Path_458" data-name="Path 458" d="M567.278,239.819h-43.53a1.848,1.848,0,1,1,0-3.7h43.53a1.848,1.848,0,1,1,0,3.7Z" transform="translate(-273.932 -128.867)" fill="#ccc"/>
  <path id="Path_459" data-name="Path 459" d="M567.278,268.412h-43.53a1.848,1.848,0,1,1,0-3.7h43.53a1.848,1.848,0,1,1,0,3.7Z" transform="translate(-273.932 -134.052)" fill="#ccc"/>
  <path id="Path_460" data-name="Path 460" d="M699.776,230c.046-.777.073-1.559.073-2.348a38.737,38.737,0,0,0-38.736-38.737V230Z" transform="translate(-299.178 -120.305)" fill="#ff6a2b"/>
  <path id="Path_461" data-name="Path 461" d="M648.946,234.3V193.213A38.737,38.737,0,1,0,687.61,234.3Z" transform="translate(-289.947 -121.085)" fill="#3f3d56"/>
  <path id="Path_462" data-name="Path 462" d="M841.991,794.531H219.819a.819.819,0,1,1,0-1.637H841.991a.819.819,0,0,1,0,1.637Z" transform="translate(-219 -229.838)" fill="#ccc"/>
  <path id="Path_463" data-name="Path 463" d="M720.2,517.255a8.767,8.767,0,0,1,.728,1.172l41.025,4.613,5.967-8.061,13.343,7.415-11.745,19.582L719.26,528.784a8.737,8.737,0,1,1,.944-11.529Z" transform="translate(-307.041 -179.215)" fill="#ffb8b8"/>
  <path id="Path_464" data-name="Path 464" d="M458.874,501.441a8.232,8.232,0,0,1-11.891-4.237l-29.248.61,8.1-12.863,26.532,1.393a8.277,8.277,0,0,1,6.5,15.1Z" transform="translate(-255.041 -173.992)" fill="#ffb8b8"/>
  <path id="Path_465" data-name="Path 465" d="M427.253,493.155a3.691,3.691,0,0,1-3.625,2.631l-53.529-1.36L321.63,480.075a10.494,10.494,0,1,1,6.249-20.035L371.668,474.4l52.558,5.072a3.7,3.7,0,0,1,3.33,3.729l-.152,8.965A3.7,3.7,0,0,1,427.253,493.155Z" transform="translate(-236.275 -169.388)" fill="#3f3d56"/>
  <path id="Path_466" data-name="Path 466" d="M138.461,668.025H148.5l4.775-38.712H138.459Z" transform="translate(-25.11 -114.127)" fill="#ffb8b8"/>
  <path id="Path_467" data-name="Path 467" d="M354.333,777.7H374.1a12.6,12.6,0,0,1,12.6,12.6v.409H354.334Z" transform="translate(-243.543 -227.084)" fill="#2f2e41"/>
  <path id="Path_468" data-name="Path 468" d="M102.461,668.025H112.5l4.775-38.712H102.459Z" transform="translate(-18.581 -114.127)" fill="#ffb8b8"/>
  <path id="Path_469" data-name="Path 469" d="M318.333,777.7H338.1a12.6,12.6,0,0,1,12.6,12.6v.409H318.334Z" transform="translate(-237.014 -227.084)" fill="#2f2e41"/>
  <path id="Path_470" data-name="Path 470" d="M313.233,587.516l2.4,142.194a3.274,3.274,0,0,0,3.571,3.206l11.745-1.068a3.275,3.275,0,0,0,2.968-3.008l6.876-88.7a.819.819,0,0,1,1.634.032L345.86,730.9a3.275,3.275,0,0,0,3.272,3.151h12.6A3.275,3.275,0,0,0,365,730.979L373.813,586.7l-52.393-13.1Z" transform="translate(-236.089 -190.069)" fill="#2f2e41"/>
  <circle id="Ellipse_57" data-name="Ellipse 57" cx="20.107" cy="20.107" r="20.107" transform="translate(95.039 223.715)" fill="#ffb8b8"/>
  <path id="Path_471" data-name="Path 471" d="M372.28,567.673h-.059l-47.016-.724a3.684,3.684,0,0,1-3.609-3.317l-.532-5.324a.409.409,0,0,0-.815,0l-.55,5.5a3.679,3.679,0,0,1-3.383,3.306l-3.323.256a3.683,3.683,0,0,1-3.846-4.607l2.861-10.908a148.618,148.618,0,0,0,1.39-69.307l-1.422-6.467A23.354,23.354,0,0,1,323,450.852l9.235-5.413,4.19-6.285a9.075,9.075,0,0,1,7.349-4.03c5.845-.128,15.87.943,17.754,9.489a23.332,23.332,0,0,1,15.785,22.465l-1.356,96.963a3.685,3.685,0,0,1-3.682,3.633Z" transform="translate(-235.327 -164.954)" fill="#3f3d56"/>
  <path id="Path_472" data-name="Path 472" d="M353.136,409.493c-.082,2.842-2.056,4.487-4.478,5.976a25.909,25.909,0,0,1-8.029,2.757,2.455,2.455,0,0,1-3.606-2.149l-2.545-9.679a61.266,61.266,0,0,1-1.959-9.445c-.613-6.147.844-12.76,5.135-17.205s11.732-6.024,16.874-2.6c6.1-7.793,33.993,9.425,27.113,14.844-1.224.964-3.1-.256-4.649-.374a4.96,4.96,0,0,0-4.282,1.361c-1.289,1.575-.728,3.922-1.259,5.887a5.5,5.5,0,0,1-6.945,3.56,18.9,18.9,0,0,1-3.6-2.316,4.634,4.634,0,0,0-4.039-.88c-1.768.66-2.4,2.825-2.556,4.705a43.58,43.58,0,0,1-1.172,5.556Z" transform="translate(-239.563 -154.081)" fill="#2f2e41"/>
  <path id="Path_473" data-name="Path 473" d="M143.381,377.819l3.275,40.114,17.192,41.751-25.378-40.932Z" transform="translate(-25.112 -68.518)" opacity="0.2"/>
  <path id="Path_474" data-name="Path 474" d="M580.607,691.281,401.184,584.835a13.523,13.523,0,0,1-4.725-18.509l83.6-140.922a9.907,9.907,0,0,1,13.56-3.462L679.112,531.986a10.079,10.079,0,0,1,3.521,13.795L599.116,686.556A13.523,13.523,0,0,1,580.607,691.281Z" transform="translate(-250.84 -162.315)" fill="#f2f2f2"/>
  <path id="Path_475" data-name="Path 475" d="M423.406,585.853,580.3,678.932a13.1,13.1,0,0,0,17.948-4.582l64.137-108.108a13.1,13.1,0,0,0-4.582-17.948L500.91,455.215a13.1,13.1,0,0,0-17.948,4.582L418.825,567.9A13.1,13.1,0,0,0,423.406,585.853Z" transform="translate(-254.906 -168.267)" fill="#fff"/>
  <path id="Path_476" data-name="Path 476" d="M701.943,543,499.284,422.768l3.509-5.914a13.568,13.568,0,0,1,18.572-4.735l179.34,106.4a13.568,13.568,0,0,1,4.747,18.569Z" transform="translate(-269.83 -160.44)" fill="#ccc"/>
  <circle id="Ellipse_58" data-name="Ellipse 58" cx="3.507" cy="3.507" r="3.507" transform="translate(252.337 262.626)" fill="#fff"/>
  <circle id="Ellipse_59" data-name="Ellipse 59" cx="3.507" cy="3.507" r="3.507" transform="translate(263.784 269.418)" fill="#fff"/>
  <circle id="Ellipse_60" data-name="Ellipse 60" cx="3.507" cy="3.507" r="3.507" transform="translate(275.231 276.209)" fill="#fff"/>
  <rect id="Rectangle_64" data-name="Rectangle 64" width="0.447" height="2.682" transform="matrix(0.51, -0.86, 0.86, 0.51, 386.794, 403.464)" fill="#e6e6e6"/>
  <path id="Path_477" data-name="Path 477" d="M653.785,575.5l-4.66-2.765.228-.384,4.66,2.765Zm-9.32-5.529-4.66-2.765.228-.384,4.66,2.765Zm-9.32-5.529-4.66-2.765.228-.385,4.66,2.765Zm-9.32-5.529-4.66-2.765.228-.384,4.66,2.765Zm-9.32-5.529-4.66-2.764.228-.385,4.66,2.765Zm-9.32-5.529-4.66-2.765.228-.384,4.66,2.765Zm-9.32-5.529-4.66-2.765.228-.384,4.66,2.765Zm-9.32-5.529-4.66-2.765.228-.385,4.66,2.765Zm-9.32-5.529-4.66-2.765.228-.384,4.66,2.765Zm-9.32-5.529-4.66-2.765.228-.384,4.66,2.765Zm-9.32-5.529-4.66-2.765.228-.384,4.66,2.765Zm-9.32-5.529-4.66-2.765.228-.384,4.66,2.765Zm-9.32-5.529-4.66-2.765.228-.384,4.66,2.765Zm-9.32-5.529-4.66-2.765.228-.384,4.66,2.765Zm-9.32-5.529-4.66-2.765.228-.384,4.66,2.765Zm-9.32-5.529-4.66-2.765.228-.385,4.66,2.765Z" transform="translate(-271.652 -174.802)" fill="#e6e6e6"/>
  <rect id="Rectangle_65" data-name="Rectangle 65" width="0.447" height="2.682" transform="matrix(0.51, -0.86, 0.86, 0.51, 230.71, 310.866)" fill="#e6e6e6"/>
  <rect id="Rectangle_66" data-name="Rectangle 66" width="0.447" height="2.682" transform="matrix(0.51, -0.86, 0.86, 0.51, 289.847, 394.287)" fill="#e6e6e6"/>
  <path id="Path_478" data-name="Path 478" d="M552.193,574.279l-4.591-2.724.228-.384,4.591,2.724Zm-9.182-5.447-4.591-2.724.228-.384,4.591,2.724Zm-9.181-5.447-4.591-2.723.228-.385L534.059,563Zm-9.181-5.447-4.591-2.724.228-.384,4.591,2.724Zm-9.181-5.447-4.591-2.724.228-.385,4.591,2.724Zm-9.181-5.447L501.7,544.32l.228-.385,4.591,2.724ZM497.1,541.6l-4.591-2.724.228-.385,4.591,2.724Zm-9.181-5.447-4.591-2.723.228-.385,4.591,2.724Z" transform="translate(-266.937 -182.714)" fill="#e6e6e6"/>
  <rect id="Rectangle_67" data-name="Rectangle 67" width="0.447" height="2.682" transform="matrix(0.51, -0.86, 0.86, 0.51, 209.499, 346.619)" fill="#e6e6e6"/>
  <rect id="Rectangle_68" data-name="Rectangle 68" width="0.447" height="2.682" transform="matrix(0.51, -0.86, 0.86, 0.51, 234.832, 384.517)" fill="#e6e6e6"/>
  <path id="Path_479" data-name="Path 479" d="M494.852,568.2l-4.723-2.8.228-.384,4.723,2.8Zm-9.446-5.6-4.723-2.8.228-.384,4.723,2.8Zm-9.446-5.6-4.723-2.8.228-.384,4.723,2.8Z" transform="translate(-264.744 -186.478)" fill="#e6e6e6"/>
  <rect id="Rectangle_69" data-name="Rectangle 69" width="0.447" height="2.682" transform="matrix(0.51, -0.86, 0.86, 0.51, 199.463, 363.534)" fill="#e6e6e6"/>
  <rect id="Rectangle_70" data-name="Rectangle 70" width="0.447" height="2.682" transform="matrix(0.51, -0.86, 0.86, 0.51, 217.706, 413.384)" fill="#e6e6e6"/>
  <path id="Path_480" data-name="Path 480" d="M473.932,603.457l-4.723-2.8.228-.384,4.723,2.8Zm-9.446-5.6-4.723-2.8.228-.385,4.723,2.8Zm-9.446-5.6-4.723-2.8.228-.385,4.723,2.8Z" transform="translate(-260.95 -192.873)" fill="#e6e6e6"/>
  <rect id="Rectangle_71" data-name="Rectangle 71" width="0.447" height="2.682" transform="matrix(0.51, -0.86, 0.86, 0.51, 182.338, 392.401)" fill="#e6e6e6"/>
  <path id="Path_481" data-name="Path 481" d="M457.4,592.075l132.956,78.879a14.134,14.134,0,0,0,19.346-4.939l38.848-65.481-.267-.148-88.14,22.5-6.982-27.338a3.375,3.375,0,0,0-1.954-2.282,3.6,3.6,0,0,0-2.307-.13l-46.189,11.788-5.106-19.987a3.389,3.389,0,0,0-4.123-2.446C493.171,582.573,463.115,590.536,457.4,592.075Z" transform="translate(-262.235 -191.662)" fill="#ff6a2b"/>
  <path id="Path_482" data-name="Path 482" d="M456.406,592.068l-.111-.433,36.961-9.436a3.8,3.8,0,0,1,4.621,2.742l5,19.594,45.933-11.726a3.8,3.8,0,0,1,4.621,2.742l6.878,26.945,88.6-22.618.111.433L559.99,623.04,553,595.662a3.352,3.352,0,0,0-4.077-2.419l-46.366,11.836-5.113-20.027a3.356,3.356,0,0,0-4.078-2.419Z" transform="translate(-262.034 -191.607)" fill="#3f3d56"/>
  <circle id="Ellipse_61" data-name="Ellipse 61" cx="3.129" cy="3.129" r="3.129" transform="translate(234.123 382.567)" fill="#3f3d56"/>
  <circle id="Ellipse_62" data-name="Ellipse 62" cx="3.129" cy="3.129" r="3.129" transform="translate(289.138 392.336)" fill="#3f3d56"/>
  <circle id="Ellipse_63" data-name="Ellipse 63" cx="3.129" cy="3.129" r="3.129" transform="translate(384.985 399.872)" fill="#3f3d56"/>
  <path id="Path_483" data-name="Path 483" d="M390.9,593.112a8.232,8.232,0,0,1-.26-12.62l-10.952-27.127,14.9,3.009,8.116,25.3a8.277,8.277,0,0,1-11.8,11.439Z" transform="translate(-248.14 -186.399)" fill="#ffb8b8"/>
  <path id="Path_484" data-name="Path 484" d="M387.556,562.192a3.691,3.691,0,0,1-3.746-2.455l-17.73-50.525L362.291,458.8a10.494,10.494,0,1,1,20.949-1.27l2.12,46.035L399.275,554.5a3.7,3.7,0,0,1-2.3,4.437l-8.435,3.04A3.706,3.706,0,0,1,387.556,562.192Z" transform="translate(-244.983 -167.232)" fill="#3f3d56"/>
  <path id="Path_485" data-name="Path 485" d="M790.569,524.877a3.759,3.759,0,0,1-.914-.57l-16.488-13.89a3.745,3.745,0,0,1-.241-5.508l14.962-15.024a3.727,3.727,0,0,1,4.855-.387l11.315,8.216a3.748,3.748,0,0,1,1.185,4.632l-9.789,20.7a3.749,3.749,0,0,1-4.886,1.834Z" transform="translate(-319.258 -174.686)" fill="#ff6a2b"/>
  <path id="Path_486" data-name="Path 486" d="M648.767,659.316,638.919,662,623.9,625.286l14.534-3.954Z" transform="translate(-113.146 -112.68)" fill="#ffb8b8"/>
  <path id="Path_487" data-name="Path 487" d="M12.187,0H32.075V12.392H0v-.205A12.187,12.187,0,0,1,12.187,0Z" transform="translate(506.017 551.665) rotate(-15.221)" fill="#2f2e41"/>
  <path id="Path_488" data-name="Path 488" d="M548.1,668.189H537.9l-4.855-39.365h15.063Z" transform="translate(-96.669 -114.039)" fill="#ffb8b8"/>
  <path id="Path_489" data-name="Path 489" d="M527.12,673.346h19.888v12.393H514.933v-.205a12.187,12.187,0,0,1,12.187-12.187Z" transform="translate(-93.384 -122.113)" fill="#2f2e41"/>
  <circle id="Ellipse_64" data-name="Ellipse 64" cx="20.446" cy="20.446" r="20.446" transform="translate(446.364 253.353)" fill="#ffb8b8"/>
  <path id="Path_490" data-name="Path 490" d="M765.326,712.878H751.38a3.757,3.757,0,0,1-3.742-3.515c-4.156-66.064-1.725-113.453,7.65-149.135a3.882,3.882,0,0,1,.152-.459l.747-1.867a3.728,3.728,0,0,1,3.478-2.355h28.679a3.74,3.74,0,0,1,2.844,1.308l3.9,4.545c.076.089.147.179.216.274,17.566,24.5,33.307,72.384,51.539,136.753a3.733,3.733,0,0,1-2.463,4.592l-14.988,4.8a3.766,3.766,0,0,1-4.516-1.941L785.977,625.2a2.914,2.914,0,0,0-5.511.871l-11.428,83.566A3.76,3.76,0,0,1,765.326,712.878Z" transform="translate(-314.515 -186.795)" fill="#2f2e41"/>
  <path id="Path_491" data-name="Path 491" d="M795.355,546.329l-.118,0-34.837-1.1a3.734,3.734,0,0,1-3.6-3.292c-4.416-35.746,7.7-45.323,13.107-47.78a2.88,2.88,0,0,0,1.675-2.284l.468-3.747a3.732,3.732,0,0,1,.74-1.819,42.809,42.809,0,0,1,26.224-15.632,3.74,3.74,0,0,1,4.371,3.2l.7,5.38a2.965,2.965,0,0,0,.594,1.408c17.7,23.135-2.018,57.295-6.15,63.907h0A3.753,3.753,0,0,1,795.355,546.329Z" transform="translate(-316.359 -171.392)" fill="#ff6a2b"/>
  <path id="Path_492" data-name="Path 492" d="M815.949,418.743A84.773,84.773,0,0,1,812.6,404.62a9.566,9.566,0,0,1,2.525-7.722c3.8-3.6,10.269-1.888,14.248,1.524,5.75,4.93,8.618,12.507,9.7,20s.607,15.12.868,22.69,1.344,15.354,5.2,21.872,11.021,11.521,18.575,10.966a13.072,13.072,0,0,0,8.184-3.468,9.489,9.489,0,0,0,2.85-8.24c3.861,6.914,1.9,16.284-3.855,21.719s-14.618,6.972-22.189,4.651-13.8-8.139-17.525-15.129-5.086-15.064-4.888-22.98c.152-6.079,1.185-12.208.158-18.2s-4.778-12.079-10.693-13.491Z" transform="translate(-326.643 -157.66)" fill="#2f2e41"/>
  <path id="Path_493" data-name="Path 493" d="M780.659,428.812c-1.008,3.369-4.866,5.446-8.336,4.876a9.775,9.775,0,0,1-7.378-6.782,13.962,13.962,0,0,1,1.091-10.236,15.94,15.94,0,0,1,9.121-8.124,13.087,13.087,0,0,1,11.9,1.9,4.377,4.377,0,0,1,3.059-3.2,8.362,8.362,0,0,1,4.59.068,18.911,18.911,0,0,1,10.525,7.657,30.774,30.774,0,0,1,4.77,12.3c1.174,6.592.741,13.794-2.961,19.373s-11.276,8.873-17.421,6.213c-.383-1.959.525-3.931,1.575-5.628s2.295-3.351,2.7-5.305-.37-4.346-2.261-4.985c-1.613-.545-3.333.338-5.032.445a5.514,5.514,0,0,1-5.289-7.945Z" transform="translate(-317.916 -159.848)" fill="#2f2e41"/>
  <path id="Path_494" data-name="Path 494" d="M717.716,534.052a8.754,8.754,0,0,1,.936,1.013l41.159-3.2,4.34-9.042,14.5,4.766-7.844,21.445-51.847-3.48a8.737,8.737,0,1,1-1.247-11.5Z" transform="translate(-306.791 -180.86)" fill="#ffb8b8"/>
  <path id="Path_495" data-name="Path 495" d="M790.477,538.161a3.754,3.754,0,0,1-.983-.44l-18.227-11.513a3.745,3.745,0,0,1-.989-5.424l12.775-16.923a3.726,3.726,0,0,1,4.757-1.045l12.329,6.6a3.748,3.748,0,0,1,1.806,4.427l-6.877,21.837A3.749,3.749,0,0,1,790.477,538.161Z" transform="translate(-318.838 -177.151)" fill="#ff6a2b"/>
</svg>
