<svg xmlns="http://www.w3.org/2000/svg" width="445.178" height="42.291" viewBox="0 0 445.178 42.291">
  <g id="Group_163" data-name="Group 163" transform="translate(-680.837 -13879.854)">
    <g id="Group_162" data-name="Group 162" transform="translate(-2260.163 780.1)">
      <g id="icons8-flag_of_europe" transform="translate(2941 13099.755)">
        <path id="Path_102" data-name="Path 102" d="M2,9H64.027V51.291H2Z" transform="translate(-2 -9)" fill="#3f51b5"/>
        <path id="Path_103" data-name="Path 103" d="M28.916,12l.771,1.573,1.723.251-1.246,1.224.295,1.73-1.542-.816-1.541.816.295-1.73-1.246-1.224,1.723-.251ZM21.51,14.23l.771,1.573L24,16.056l-1.246,1.224.295,1.73-1.541-.816-1.541.816.293-1.73-1.246-1.224,1.724-.252Zm-5.262,4.887.771,1.573,1.724.251L17.5,22.165l.293,1.73-1.541-.816-1.541.816L15,22.165l-1.246-1.224,1.723-.251ZM36.323,14.23,35.552,15.8l-1.723.252,1.246,1.224-.295,1.73,1.541-.816,1.541.816-.293-1.73,1.246-1.224L37.091,15.8ZM21.51,38l.771,1.573L24,39.827l-1.246,1.224.295,1.73-1.541-.816-1.541.816.293-1.73-1.246-1.224,1.724-.252Zm14.813,0-.771,1.573-1.723.252,1.246,1.224-.295,1.73,1.541-.816,1.541.816-.293-1.73,1.246-1.224-1.724-.252Zm5.262-18.884-.771,1.573-1.724.251,1.246,1.224-.293,1.73,1.541-.816,1.541.816-.295-1.73,1.246-1.224-1.723-.251ZM16.247,33.044l.771,1.573,1.724.252L17.5,36.093l.293,1.73-1.541-.816-1.541.816L15,36.093l-1.246-1.224,1.723-.252Zm25.338,0-.771,1.573-1.724.252,1.246,1.224-.293,1.73,1.541-.816,1.541.816-.295-1.73,1.246-1.224-1.723-.252Zm1.754-6.517L44.11,28.1l1.723.252-1.246,1.224.295,1.73-1.541-.816-1.541.816.295-1.73-1.25-1.224,1.724-.252Zm-28.845,0,.771,1.573,1.724.252-1.248,1.224.295,1.73L14.5,30.49l-1.541.816.295-1.73L12,28.352l1.723-.252ZM28.916,41.054l.771,1.573,1.723.252L30.164,44.1l.293,1.73-1.541-.816-1.541.816.295-1.73-1.246-1.224,1.723-.252Z" transform="translate(2.097 -7.771)" fill="#ffeb3b"/>
      </g>
      <g id="icons8-mexico" transform="translate(3016.034 13099.755)">
        <path id="Path_104" data-name="Path 104" d="M2,9H59.6V51.29H2Z" transform="translate(-2 -9)" fill="#eceff1"/>
        <path id="Path_105" data-name="Path 105" d="M32,9H44.688V51.29H32Z" transform="translate(12.911 -9)" fill="#d50000"/>
        <path id="Path_106" data-name="Path 106" d="M2,9H14.688V51.29H2Z" transform="translate(-2 -9)" fill="#1b5e20"/>
        <path id="Path_107" data-name="Path 107" d="M25.436,26.408a3,3,0,0,1-1.138.071,4.525,4.525,0,0,1-1.414-.164c-.468.137-.671-.256-.743-.541-.052.256-.047.4-.234.344s-.764-.328-.9-.382-.171.076.057.2.441.268.447.355-.2.2-.27.235a4.21,4.21,0,0,1,.847.1c.228.054.245.218-.13.481.951-.11.8.377,1.281.372.353,0,.86-.005,1.021-.005.385,0,.4-.268.536-.312.29-.1.593-.186.821-.262-.234-.054-.363-.115-.363-.169a3.227,3.227,0,0,1,.691-.339A.921.921,0,0,0,25.436,26.408Z" transform="translate(4.942 -1.566)" fill="#039be5"/>
        <path id="Path_108" data-name="Path 108" d="M24.977,26.243a.157.157,0,0,0-.26-.005,5.74,5.74,0,0,0-1.559,0,.157.157,0,0,0-.26.005.173.173,0,0,0,.047.24.871.871,0,0,0,0,.552.173.173,0,0,0-.047.24.157.157,0,0,0,.26.005,3.011,3.011,0,0,0,1.559,0,.158.158,0,0,0,.26-.005.173.173,0,0,0-.047-.24.871.871,0,0,0,0-.552A.173.173,0,0,0,24.977,26.243Z" transform="translate(4.926 -1.562)" fill="#fbc02d"/>
        <path id="Path_109" data-name="Path 109" d="M25.009,26.213a.208.208,0,0,0-.171-.092h0a.188.188,0,0,0-.141.062,5.879,5.879,0,0,0-1.272-.028l0,0H23.4v0c-.087.007-.176.015-.233.025a.193.193,0,0,0-.142-.062h0a.211.211,0,0,0-.172.092.215.215,0,0,0-.034.164.23.23,0,0,0,.061.114.982.982,0,0,0,0,.525.218.218,0,0,0-.065.117.215.215,0,0,0,.034.165.21.21,0,0,0,.173.092.19.19,0,0,0,.138-.058,2.542,2.542,0,0,0,.762.094,2.291,2.291,0,0,0,.769-.094.191.191,0,0,0,.138.058h0a.214.214,0,0,0,.2-.257.217.217,0,0,0-.064-.117,1.01,1.01,0,0,0,0-.525.223.223,0,0,0,.061-.114A.214.214,0,0,0,25.009,26.213Zm-1.8,1.031a.169.169,0,0,0-.023-.165.13.13,0,0,0-.165-.023l.046.078a.037.037,0,0,1,.053.007.086.086,0,0,1,0,.108.1.1,0,0,1-.087.047.118.118,0,0,1-.1-.053.127.127,0,0,1,.034-.176l.03-.019-.013-.034a.848.848,0,0,1,0-.513L23,26.466l-.037-.024a.131.131,0,0,1-.053-.082.118.118,0,0,1,.019-.094.121.121,0,0,1,.1-.053h0a.106.106,0,0,1,.087.047.086.086,0,0,1,0,.108.043.043,0,0,1-.053.008l-.046.078a.13.13,0,0,0,.165-.024.17.17,0,0,0,.027-.147c.121.025.226.285.318.52a1.677,1.677,0,0,0,.266.527A2.156,2.156,0,0,1,23.206,27.245Zm.771.086c-.148-.012-.263-.3-.364-.563a1.546,1.546,0,0,0-.272-.517l.078-.007c.132,0,.256.284.364.534a1.688,1.688,0,0,0,.313.549C24.057,27.33,24.017,27.331,23.977,27.331Zm.29-.014c-.155-.011-.285-.307-.4-.573a1.678,1.678,0,0,0-.288-.508l.1-.005c.134.013.257.3.372.555a1.66,1.66,0,0,0,.308.525Zm.621-.814a.847.847,0,0,1,0,.513l-.013.034.03.019a.132.132,0,0,1,.053.082.122.122,0,0,1-.02.1.117.117,0,0,1-.1.052.106.106,0,0,1-.087-.047.086.086,0,0,1,0-.108.038.038,0,0,1,.053-.007l.046-.078a.133.133,0,0,0-.165.023.169.169,0,0,0-.023.165,1.269,1.269,0,0,1-.16.041c-.126-.025-.261-.3-.369-.538a1.786,1.786,0,0,0-.3-.521,4.861,4.861,0,0,1,.829.043.172.172,0,0,0,.024.159.13.13,0,0,0,.1.044.139.139,0,0,0,.069-.019l-.046-.078a.041.041,0,0,1-.053-.008.086.086,0,0,1,0-.108.1.1,0,0,1,.087-.047h0a.118.118,0,0,1,.1.053.122.122,0,0,1,.019.094.127.127,0,0,1-.053.082l-.037.024Z" transform="translate(4.931 -1.552)" fill="#bf360c"/>
        <path id="Path_110" data-name="Path 110" d="M21.285,26.424a.165.165,0,0,0,0,.329A.165.165,0,0,0,21.285,26.424Z" transform="translate(3.973 -1.754)" fill="#fff"/>
        <path id="Path_111" data-name="Path 111" d="M21.28,26.374a.209.209,0,1,0,.2.208A.2.2,0,0,0,21.28,26.374Zm0,.328a.119.119,0,1,1,.113-.12A.111.111,0,0,1,21.28,26.7Z" transform="translate(3.975 -1.746)" fill="#1976d2"/>
        <path id="Path_112" data-name="Path 112" d="M22.2,25.628a.165.165,0,0,0,0,.329A.165.165,0,0,0,22.2,25.628Z" transform="translate(4.26 -2.085)" fill="#fff"/>
        <path id="Path_113" data-name="Path 113" d="M22.2,25.578a.209.209,0,1,0,.2.208A.2.2,0,0,0,22.2,25.578Zm0,.329a.12.12,0,1,1,.113-.121A.111.111,0,0,1,22.2,25.907Z" transform="translate(4.263 -2.078)" fill="#1976d2"/>
        <path id="Path_114" data-name="Path 114" d="M26,26.882a.165.165,0,0,0,0,.329A.165.165,0,0,0,26,26.882Z" transform="translate(5.445 -1.564)" fill="#fff"/>
        <path id="Path_115" data-name="Path 115" d="M25.994,26.833a.209.209,0,1,0,.2.208.216.216,0,0,0-.051-.141A.2.2,0,0,0,25.994,26.833Zm0,.328a.119.119,0,0,1,0-.238.11.11,0,0,1,.113.118A.112.112,0,0,1,25.994,27.161Z" transform="translate(5.452 -1.554)" fill="#1976d2"/>
        <path id="Path_116" data-name="Path 116" d="M20.623,25.487c-.047.076.073.224.2.285a.223.223,0,0,0,.276-.043c.036-.054,0-.2-.146-.274A.264.264,0,0,0,20.623,25.487Zm1.26,1.282c-.135.045-.23.174-.213.264s.2.107.33.059a.218.218,0,0,0,.152-.238C22.12,26.76,22.038,26.717,21.883,26.769Zm3.886-.66c-.131.045-.2.157-.178.22.029.093.111.139.266.091.136-.042.287-.189.254-.273C26.07,26.044,25.9,26.065,25.769,26.109Zm.711,1.338c-.03-.057-.179-.114-.237-.139a.574.574,0,0,0-.094-.324.1.1,0,0,0,.04-.179.11.11,0,0,0-.149.017c-.025.032-.024.14.052.161.01.068.073.3.019.4a.759.759,0,0,1,.338.113.11.11,0,0,0,.1.134.116.116,0,0,0,.094-.121A.094.094,0,0,0,26.48,27.447Zm1.494-1.356a.59.59,0,0,0-.267-.051.562.562,0,0,0-.188-.275.1.1,0,0,0-.016-.182.111.111,0,0,0-.135.066c-.014.038.02.141.1.135.03.061.161.263.14.371a.749.749,0,0,1,.354-.007.105.105,0,0,0,.136.092.121.121,0,0,0,.053-.147A.094.094,0,0,0,27.975,26.091Zm.836-1.8a.636.636,0,0,0-.283.043.667.667,0,0,0-.223-.188A.1.1,0,0,0,28.211,24a.117.117,0,0,0-.091.124c0,.041.08.116.147.073a.76.76,0,0,1,.222.3.726.726,0,0,1,.335-.137.1.1,0,0,0,.161.016.124.124,0,0,0-.018-.156A.1.1,0,0,0,28.811,24.295Z" transform="translate(5.751 -1.692)" fill="#fbc02d"/>
        <path id="Path_117" data-name="Path 117" d="M29.341,23.511a2.17,2.17,0,0,0-.348-.492c.073.153-.083.465.078.711a.892.892,0,0,1,.081.711l.063.046a.731.731,0,0,1,.3-.614c.154-.146.338-.393.3-.563a1.175,1.175,0,0,1-.036-.334C29.622,23.025,29.419,23.353,29.341,23.511Zm-.426,1.558a2.789,2.789,0,0,0-.031-.585c-.384.082-.5.605-.447,1.055.042.339-.114.465-.317.645l.063.092a1.778,1.778,0,0,1,.707-.6c.306-.131.39-.743.639-1C29.2,24.7,29.076,24.9,28.915,25.068Z" transform="translate(6.542 -2.302)" fill="#558b2f"/>
        <path id="Path_118" data-name="Path 118" d="M27.512,26.226c-.015.2-.483.393-.644.88a.828.828,0,0,1-.405.487l-.015.076c.6-.442.774-.24,1.175-.377s.3-.421.4-.64a1.183,1.183,0,0,0-.566.24A1.137,1.137,0,0,0,27.512,26.226Zm-1.32,1.153c-.79-.11-.884.492-1.279.568.083.076.021.11.437.317s.914-.208,1.133-.175a2.051,2.051,0,0,0-.665-.218C25.984,27.773,26.078,27.488,26.193,27.379Z" transform="translate(5.862 -1.218)" fill="#558b2f"/>
        <path id="Path_119" data-name="Path 119" d="M28.72,24.309a1.712,1.712,0,0,0-.644,1.149,1.067,1.067,0,0,1-.225.556,1.288,1.288,0,0,0-.83.531,5.732,5.732,0,0,1-.644.672,2.067,2.067,0,0,0-.992.251.981.981,0,0,1-.644.087,2.009,2.009,0,0,0-1.674.339c-.042.027.05.14.109.093a1.479,1.479,0,0,1,1.752-.18,1.366,1.366,0,0,0,1.486-.59H26.4a1.619,1.619,0,0,1,.514-.241,1.541,1.541,0,0,0,.956-.967l-.011,0c.132-.142.38-.39.583-.653a1.46,1.46,0,0,0,.295-1.043,1.607,1.607,0,0,1,.277-.585,1,1,0,0,0-.088-.972C28.646,23,28.78,23.7,28.72,24.309Z" transform="translate(6.024 -1.71)" fill="#1b5e20"/>
        <path id="Path_120" data-name="Path 120" d="M21.3,27.264c.031-.1-.021-.229-.093-.224s-.052.18-.015.257a.949.949,0,0,1,.063.323l.114.071A.641.641,0,0,1,21.3,27.264Z" transform="translate(3.963 -1.387)" fill="#827717"/>
        <path id="Path_121" data-name="Path 121" d="M21.207,27.264c-.1-.035-.123.014-.086.093a.127.127,0,0,0,.221.038c.062-.108.021-.169-.021-.148A.161.161,0,0,1,21.207,27.264Z" transform="translate(3.957 -1.457)" fill="#fbc02d"/>
        <path id="Path_122" data-name="Path 122" d="M20.871,27.741c-.08-.016-.246.011-.231.085s.144.093.23.034a.553.553,0,0,1,.409-.047l-.1-.1A.823.823,0,0,1,20.871,27.741Z" transform="translate(3.883 -1.27)" fill="#827717"/>
        <path id="Path_123" data-name="Path 123" d="M20.845,27.768a.19.19,0,0,1,.016.121c-.009.048.059.073.14-.019a.138.138,0,0,0-.1-.213C20.825,27.639,20.787,27.68,20.845,27.768Z" transform="translate(3.856 -1.261)" fill="#fbc02d"/>
        <path id="Path_124" data-name="Path 124" d="M19.67,25.833a1.036,1.036,0,0,1-.015.342l.107.087a.646.646,0,0,1,.022-.433c.054-.092.033-.228-.039-.241S19.652,25.749,19.67,25.833Z" transform="translate(3.485 -1.992)" fill="#827717"/>
        <path id="Path_125" data-name="Path 125" d="M19.693,25.805c-.085-.059-.122-.018-.1.068.024.113.145.157.206.093.085-.089.059-.159.014-.149A.168.168,0,0,1,19.693,25.805Z" transform="translate(3.482 -2.058)" fill="#fbc02d"/>
        <path id="Path_126" data-name="Path 126" d="M19.276,26.227c-.076-.03-.244-.034-.241.043s.127.118.222.075a.708.708,0,0,1,.465.035l-.125-.129A.879.879,0,0,1,19.276,26.227Z" transform="translate(3.385 -1.895)" fill="#827717"/>
        <path id="Path_127" data-name="Path 127" d="M19.247,26.245a.187.187,0,0,1,0,.121c-.016.045.046.082.141.006a.14.14,0,0,0-.059-.227C19.248,26.114,19.2,26.148,19.247,26.245Z" transform="translate(3.359 -1.89)" fill="#fbc02d"/>
        <path id="Path_128" data-name="Path 128" d="M18.828,24.024a1.146,1.146,0,0,1-.166.318l.042.191a.914.914,0,0,1,.229-.465c.085-.062.117-.195.056-.237S18.844,23.94,18.828,24.024Z" transform="translate(3.211 -2.727)" fill="#827717"/>
        <path id="Path_129" data-name="Path 129" d="M18.882,24.007c-.055-.09-.106-.068-.122.018-.022.114.073.2.152.172.111-.045.115-.121.07-.13A.175.175,0,0,1,18.882,24.007Z" transform="translate(3.222 -2.804)" fill="#fbc02d"/>
        <path id="Path_130" data-name="Path 130" d="M18.3,24.172c-.051-.066-.194-.159-.228-.092s.053.169.155.182a.738.738,0,0,1,.384.278l-.046-.177A.983.983,0,0,1,18.3,24.172Z" transform="translate(3.053 -2.694)" fill="#827717"/>
        <path id="Path_131" data-name="Path 131" d="M18.255,24.17a.18.18,0,0,1-.062.1c-.036.031,0,.1.119.081.084-.011.128-.137.058-.227C18.318,24.058,18.264,24.063,18.255,24.17Z" transform="translate(3.038 -2.744)" fill="#fbc02d"/>
        <path id="Path_132" data-name="Path 132" d="M22.706,27.512c-.114.033-.192.071-.26-.049s-.1-.071-.13-.033-.109.038-.177-.087-.125-.167-.208-.159-.111.054-.068.137,0,.145-.068.068-.169-.18-.249-.178-.159.014-.106.1.052.169-.042.093a.321.321,0,0,0-.234-.1.827.827,0,0,1-.5-.582c-.01-.175-.049-.129-.073-.088s-.1.1-.13-.038c-.039-.167-.013-.309-.075-.385s-.13-.11-.164.03-.109.063-.106-.054.005-.229-.044-.282-.086-.049-.086.063-.047.134-.1.03-.132-.159-.128-.046c0,.04.007.072.011.1-.327-.188-.453-.34-.463-.541-.009-.175-.005-.257.052-.328s.026-.148-.047-.082-.146.044-.13-.071.063-.262.021-.35-.136-.084-.161.033c-.01.049-.047.1-.1.1s-.047-.121-.026-.2-.047-.131-.083-.065-.12.131-.156.033c0,0,0,0-.006-.009-.027-.221-.178-.662-.1-.751s.075-.112.021-.156,0-.131.086-.164c.125-.049.177-.157.083-.15-.153.011-.244-.016-.153-.071.111-.066.229-.15.206-.246-.01-.041-.063-.052-.12-.03s-.113-.014-.047-.063c.086-.063.018-.126.081-.169s.039-.1,0-.1-.135.112-.174.063-.087-.1-.132-.005c-.065.14.015.227-.026.293s-.1.087-.148.016-.128-.049-.132.038a.344.344,0,0,0,.088.224c.054.082.044.145-.054.1S18,23.358,18,23.44s.036.112.161.172.146.077.156.145c.018.121.13.1.167.259a3.424,3.424,0,0,1,.1.546.059.059,0,0,0-.009.05c-.088-.033-.1.039-.068.082s.057.11,0,.1-.169-.054-.148.035.208.156.327.18.128.082.073.1a.305.305,0,0,1-.171,0c-.083-.014-.1.054-.034.129a.574.574,0,0,0,.314.1c.125.014.135.112.081.11s-.159-.041-.167.016.138.121.247.11.123.015.146.046a1.843,1.843,0,0,0,.568.517c-.009.006,0,.024-.023.024-.091,0-.164.014-.089.087a.334.334,0,0,0,.179.1.053.053,0,0,1,0,.1.178.178,0,0,1-.153-.014c-.047-.022-.122.008-.05.1a.4.4,0,0,0,.327.131c.143,0,.192.065.107.115a.317.317,0,0,1-.242.038c-.093-.016-.111.065.018.148a.4.4,0,0,0,.372.022c.117-.041.122.005.1.043s-.01.092.093.06a.322.322,0,0,1,.333.022c.105.078.221.18.347.262-.009.04-.011.083-.072.1a.383.383,0,0,0-.174.1c-.031.041-.034.15.218.11s.263-.027.242.054-.022.179.122.145c.182-.043.278-.189.345-.121.041.042-.009.1-.047.145-.063.068.081.128.164.06s.179-.183.237-.161,0,.1-.018.142,0,.137.1.085.164-.369.476-.325c.091-.178.824-.271,1.426.254a.161.161,0,0,0,.148.038c.057-.005.138,0,.081-.049A1.9,1.9,0,0,0,22.706,27.512Z" transform="translate(4.164 -1.7)" fill="#1b5e20"/>
        <path id="Path_133" data-name="Path 133" d="M24.172,28.393a.6.6,0,0,1-.06.126c.132.105.3.2.332.315a.274.274,0,0,1,.131-.055C24.559,28.65,24.3,28.505,24.172,28.393Z" transform="translate(4.939 -0.894)" fill="#fff"/>
        <path id="Path_134" data-name="Path 134" d="M24.024,28.467c-.014.031-.1.063-.125.092.112.111.276.228.358.333a.422.422,0,0,1,.1-.11C24.322,28.664,24.157,28.572,24.024,28.467Zm-.232-.622c-.153.008-.13.073-.13.3.01.158-.432.259-.487.608a.383.383,0,0,1,.185-.028c.044-.139.479-.328.479-.6v-.06C23.84,27.961,23.847,27.842,23.792,27.845Z" transform="translate(4.805 -0.9)" fill="#1b5e20"/>
        <path id="Path_135" data-name="Path 135" d="M24.022,27.843h-.083q-.075,0-.128,0c.054,0,.048.116.048.222,0,.038,0,.085,0,.13,0,0-.005-.007-.008-.007-.044.17-.445.321-.471.539a.271.271,0,0,1,.131.055c.049-.17.372-.287.473-.465h.032c.07.014.053-.145.053-.25S24.076,27.84,24.022,27.843Z" transform="translate(4.76 -0.941)" fill="#fff"/>
        <path id="Path_136" data-name="Path 136" d="M24.206,28.267s0-.008,0-.012a.26.26,0,0,0,.051-.184c0-.008,0-.012,0-.019s0,0,0,0h0c0-.173-.039-.2-.222-.207.051,0,.048.1.047.2a.481.481,0,0,1-.084.272c-.113.169-.423.295-.472.464a.394.394,0,0,1,.1.11c.1-.126.376-.283.528-.511.133.087.353.232.367.347a.383.383,0,0,1,.185.028C24.639,28.475,24.334,28.349,24.206,28.267Z" transform="translate(4.917 -0.9)" fill="#dd2c00"/>
        <path id="Path_137" data-name="Path 137" d="M19.893,23.325a.236.236,0,0,0,.005.361c.073.076.244.176.333.082a.265.265,0,0,0,.005-.344C20.148,23.276,20.007,23.21,19.893,23.325Z" transform="translate(3.593 -3.01)" fill="#ef5350"/>
        <path id="Path_138" data-name="Path 138" d="M19.678,22.84l.127.232.055-.033-.128-.232Z" transform="translate(3.496 -3.275)" fill="#fbc02d"/>
        <path id="Path_139" data-name="Path 139" d="M19.675,22.658a.094.094,0,0,0,0,.187C19.786,22.845,19.793,22.658,19.675,22.658Z" transform="translate(3.467 -3.357)" fill="#fbc02d"/>
        <path id="Path_140" data-name="Path 140" d="M20.063,22.982c-.076-.007-.1.03-.1.114-.037-.063-.082-.085-.142-.048a.1.1,0,0,0-.039.132.081.081,0,0,0-.119.008.086.086,0,0,0-.009.12.053.053,0,0,0-.04.038c-.024.058-.009.092.077.118s.119.005.132-.031c0-.005,0-.01,0-.014a.07.07,0,0,0,.048-.018.082.082,0,0,0,.015-.069c.034.024.064.03.091.013a.1.1,0,0,0,.037-.072c.01.006.018.018.03.019.065,0,.086-.046.106-.161C20.16,23.039,20.138,22.988,20.063,22.982Z" transform="translate(3.539 -3.142)" fill="#e53935"/>
        <path id="Path_141" data-name="Path 141" d="M20.555,23.767a.4.4,0,0,0-.561.426c.031.35.458.645.988.667l.218-.285C20.918,24.533,21.043,24,20.555,23.767Z" transform="translate(3.787 -2.644)" fill="#00897b"/>
        <path id="Path_142" data-name="Path 142" d="M21.011,24.273a.856.856,0,0,0-.442-.55.434.434,0,0,0-.437.031.474.474,0,0,0-.189.44c.033.373.486.684,1.031.707H21l.28-.363-.075-.013C21.107,24.513,21.069,24.425,21.011,24.273Zm-.056.537c-.49-.028-.893-.3-.922-.624a.38.38,0,0,1,.15-.358.323.323,0,0,1,.189-.059.376.376,0,0,1,.157.035.776.776,0,0,1,.4.5.482.482,0,0,0,.193.291Z" transform="translate(3.796 -2.639)" fill="#00695c"/>
        <path id="Path_143" data-name="Path 143" d="M21.286,24.549a.409.409,0,0,0-.146.645,1.518,1.518,0,0,0,1.258.131l.052-.3C22.2,24.778,21.651,24.308,21.286,24.549Z" transform="translate(4.166 -2.385)" fill="#00897b"/>
        <path id="Path_144" data-name="Path 144" d="M21.257,24.506a.531.531,0,0,0-.264.359.469.469,0,0,0,.108.353,1.189,1.189,0,0,0,.8.221,1.634,1.634,0,0,0,.511-.075l.025-.009.06-.345-.017-.017C22.244,24.758,21.661,24.238,21.257,24.506Zm1.1.779a1.491,1.491,0,0,1-1.185-.127.379.379,0,0,1-.088-.281.452.452,0,0,1,.224-.3.356.356,0,0,1,.2-.058,1.632,1.632,0,0,1,.887.516Z" transform="translate(4.169 -2.379)" fill="#00695c"/>
        <path id="Path_145" data-name="Path 145" d="M22.72,24.859a.45.45,0,0,0-.021.8,2.182,2.182,0,0,0,1.3.011c.323-.087.405-.251.353-.47C23.624,24.892,23.125,24.608,22.72,24.859Z" transform="translate(4.738 -2.24)" fill="#00897b"/>
        <path id="Path_146" data-name="Path 146" d="M24.386,25.161l-.021-.009-.283-.121c-.591-.258-1.021-.444-1.391-.215a.506.506,0,0,0-.276.409.572.572,0,0,0,.251.465,1.007,1.007,0,0,0,.551.114,3.447,3.447,0,0,0,.787-.1c.323-.088.449-.258.386-.524Zm-.4.459a2.194,2.194,0,0,1-1.262,0,.49.49,0,0,1-.214-.389.426.426,0,0,1,.233-.334.6.6,0,0,1,.327-.091,2.774,2.774,0,0,1,.98.311c.084.036.17.074.262.112C24.335,25.365,24.315,25.529,23.983,25.62Z" transform="translate(4.742 -2.233)" fill="#00695c"/>
        <path id="Path_147" data-name="Path 147" d="M26.24,25.345c-.107.148-.088.274-.483.256a.5.5,0,0,1-.281.224c.068.011.255.076.577.18a.917.917,0,0,0,.847-.126c.312-.18.26-.476,0-.694C26.661,24.986,26.354,25.186,26.24,25.345Z" transform="translate(5.661 -2.108)" fill="#00897b"/>
        <path id="Path_148" data-name="Path 148" d="M26.6,25.056a.657.657,0,0,0-.42.258c-.02.028-.036.056-.052.082-.06.1-.092.166-.393.156H25.71l-.014.025a.463.463,0,0,1-.256.2l-.151.061.161.025c.047.007.167.046.346.105l.224.073a1.042,1.042,0,0,0,.321.055,1.1,1.1,0,0,0,.564-.185.419.419,0,0,0,.237-.324.544.544,0,0,0-.23-.444A.39.39,0,0,0,26.6,25.056Zm.255.781a.861.861,0,0,1-.81.121l-.224-.073-.237-.077a.482.482,0,0,0,.177-.166H25.8c.271,0,.336-.078.409-.2a.713.713,0,0,1,.047-.074.564.564,0,0,1,.356-.222.294.294,0,0,1,.238.071.465.465,0,0,1,.2.367A.339.339,0,0,1,26.859,25.837Z" transform="translate(5.655 -2.1)" fill="#00695c"/>
        <path id="Path_149" data-name="Path 149" d="M24.538,25.2c-.479.121-.509.667-.53,1.3,0,.044.093.044.281.044s.285.011.281-.065c.031-.8,1.165-.317,1.081-1.093C25.613,25.035,25.016,25.077,24.538,25.2Z" transform="translate(5.184 -1.949)" fill="#00897b"/>
        <path id="Path_150" data-name="Path 150" d="M24.522,25.149c-.525.132-.546.749-.564,1.345,0,.089.1.089.325.089h.109c.1,0,.159,0,.193-.042a.091.091,0,0,0,.024-.07c.015-.363.275-.434.547-.51s.58-.16.534-.587a.292.292,0,0,0-.13-.217C25.3,24.98,24.75,25.094,24.522,25.149Zm.612.726c-.281.077-.6.165-.614.6v.01a.556.556,0,0,1-.175.013h-.061a1.24,1.24,0,0,1-.235-.011c.022-.682.071-1.138.5-1.244.446-.111.767-.179.964-.006a.231.231,0,0,1,.092.152C25.639,25.735,25.415,25.8,25.133,25.875Z" transform="translate(5.189 -1.94)" fill="#00695c"/>
        <path id="Path_151" data-name="Path 151" d="M27.163,25.127c-.145.093-.182.208-.14.3s.218.065.333-.005.182-.213.13-.3S27.282,25.051,27.163,25.127Z" transform="translate(5.856 -2.294)" fill="#ef5350"/>
        <path id="Path_152" data-name="Path 152" d="M27.679,24.927l.045.046.177-.193-.045-.046Z" transform="translate(5.994 -2.484)" fill="#fbc02d"/>
        <path id="Path_153" data-name="Path 153" d="M27.857,24.734a.089.089,0,1,0,.17-.052A.089.089,0,0,0,27.857,24.734Z" transform="translate(6.037 -2.549)" fill="#fbc02d"/>
        <path id="Path_154" data-name="Path 154" d="M27.662,25.087c.066-.037.089-.092.05-.15s-.081-.056-.134-.024c.019-.047.021-.091-.024-.121-.075-.05-.111-.014-.171.09s-.037.16,0,.183a.068.068,0,0,0,.064,0,.071.071,0,0,0,.006.053.056.056,0,0,0,.051.02.081.081,0,0,0-.019.068c.012.067.063.077.173.073.087,0,.144-.035.133-.114S27.739,25.081,27.662,25.087Z" transform="translate(5.95 -2.387)" fill="#e53935"/>
        <path id="Path_155" data-name="Path 155" d="M21.893,24.4a.36.36,0,0,0-.111.462.182.182,0,0,0,.312,0,.487.487,0,0,0,.021-.415Z" transform="translate(4.183 -2.532)" fill="#ef5350"/>
        <path id="Path_156" data-name="Path 156" d="M22.028,24.264l.06.018.067-.259-.061-.017Z" transform="translate(4.216 -2.775)" fill="#fbc02d"/>
        <path id="Path_157" data-name="Path 157" d="M22.134,23.876a.094.094,0,0,0,0,.187C22.245,24.063,22.252,23.876,22.134,23.876Z" transform="translate(4.231 -2.854)" fill="#fbc02d"/>
        <path id="Path_158" data-name="Path 158" d="M22.14,24.151a.088.088,0,0,0-.087.093c-.005,0-.011,0-.016,0,.021-.058,0-.134-.078-.134s-.106.1-.071.155a.14.14,0,0,1-.057-.084.136.136,0,0,0,.129.229c.009.02.015.043.037.05a.09.09,0,0,0,.092-.02c.069.06.207.005.209-.141a.383.383,0,0,1-.1.024C22.25,24.271,22.239,24.151,22.14,24.151Z" transform="translate(4.219 -2.709)" fill="#e53935"/>
        <path id="Path_159" data-name="Path 159" d="M25.414,18.344a2.857,2.857,0,0,0-1.232-.339c-.332-.025-.489.035-.537.159a.383.383,0,0,0-.4.256c-.13.273.125.306.343.334a.5.5,0,0,1,.378.629.735.735,0,0,0-.4-.379.432.432,0,0,0,.093-.064c.052-.049.068-.087-.093-.049s-.467-.218-.685-.087a.517.517,0,0,0,0-.123c-.026-.2-.057-.1-.1.008a.358.358,0,0,1-.125.15,1.634,1.634,0,0,0-.021-.249c-.021-.118-.063-.049-.068.091a1.14,1.14,0,0,1-.043.237c-.045.024-.086.042-.129.066a.753.753,0,0,0-.015-.252c-.024-.142-.081-.06-.078.022a.862.862,0,0,1-.1.4.478.478,0,0,0-.012-.247c-.033-.124-.068-.116-.063.011s-.135.278-.263.374c-.166.124-.195.2-.119.29.209.238.831.156.93.18a.092.092,0,0,1,.083.1c0,.039.013.052.049.026a.685.685,0,0,1-.106.266c-.046.062-.033.067.036.066-.049.161-.206.3-.228.4-.012.053,0,.089.046.1-.057.208-.2.306-.187.514s.166.47.146.6c-.018.11.067.1.131.053.036.039.073.081.11.121-.042.11.145.443.3.629-.109-.06-.228-.1-.265-.065s.043.178.2.312c-.177.121-.486.305-.48.4s.217.145.455.178c-.069.1-.062.189.127.172a1.424,1.424,0,0,0,.463-.156c.088.121.19.153.224-.229.039.054.073.1.1.14.115.178.178.268.223.212a3.167,3.167,0,0,1,.229.367c.047.1.146.183.192-.112l.093.161c.068.115.174.1.219-.146.057.1.123.162.14-.143.036.1.13.263.114-.022.228.229.27.262.348.339a.185.185,0,0,0,.276.005.244.244,0,0,0,.39-.005.293.293,0,0,0,.431-.11c.055.037.12.038.26.033.192-.007.392-.09.14-.274-.54-.393-1.425-1-1.788-1.279a3.9,3.9,0,0,0-.124-.885.57.57,0,0,0,.348.252c.1.027.136-.038.3.251a.871.871,0,0,0,.192.262c.083.076.109.043.021-.148a3.183,3.183,0,0,0-.416-.629.6.6,0,0,0,.3.224.623.623,0,0,1,.317.382,2.819,2.819,0,0,0,.182.415c.031.065.077.036.042-.131a3.125,3.125,0,0,0-.219-.64.788.788,0,0,1,.3.487,1.358,1.358,0,0,0,.135.519c.057.1.078.022.073-.131a4.6,4.6,0,0,0-.106-.742,1.14,1.14,0,0,1,.173.4,6.26,6.26,0,0,1,.192.934c0,.131.079.333.1.082.036-.361-.087-1.044-.092-1.4a.969.969,0,0,1,.1.328,9.137,9.137,0,0,1,.171.918c.015.372.085.585.125.339a11.448,11.448,0,0,0-.037-1.8.638.638,0,0,1,.141.353c-.005.945.088,1.088.088,1.536,0,.164.024.4.125.049a5.242,5.242,0,0,0,.109-1.273A4.4,4.4,0,0,0,25.414,18.344Z" transform="translate(5.494 -3.992)" fill="#ad6119"/>
        <path id="Path_160" data-name="Path 160" d="M25.569,18.344a2.857,2.857,0,0,0-1.232-.339c-.332-.025-.489.035-.537.159a.383.383,0,0,0-.4.256c-.13.273.125.306.343.334a2.5,2.5,0,0,0,.553,0,2.172,2.172,0,0,1,.792.029A3.211,3.211,0,0,1,26.578,19.9a7.337,7.337,0,0,1,.81,1.8.638.638,0,0,1,.141.353c-.005.945.088,1.088.088,1.536,0,.164.024.4.125.049a5.242,5.242,0,0,0,.109-1.273A4.4,4.4,0,0,0,25.569,18.344Z" transform="translate(5.694 -4.078)" fill="#c47529"/>
        <path id="Path_161" data-name="Path 161" d="M23.137,23.1c-.109-.06-.228-.1-.265-.065s.043.178.2.312c-.177.121-.486.305-.48.4s.217.145.455.178c-.069.1-.062.189.127.172a1.424,1.424,0,0,0,.463-.156c.088.121.19.153.224-.229a1.072,1.072,0,0,0-.227-.421C23.381,23.044,22.989,22.923,23.137,23.1Z" transform="translate(4.638 -2.964)" fill="#9e5817"/>
        <path id="Path_162" data-name="Path 162" d="M24.62,23.6a.421.421,0,0,0-.277.521,3.167,3.167,0,0,1,.229.367c.047.1.146.183.192-.112l.093.161c.068.115.174.1.219-.146.057.1.123.162.14-.143.036.1.13.263.114-.022.228.229.1-.217-.142-.44A.613.613,0,0,0,24.62,23.6Z" transform="translate(5.161 -2.736)" fill="#c47529"/>
        <path id="Path_163" data-name="Path 163" d="M22.177,19.36l-.26.282c-.005.052.091.054.164.041a.222.222,0,0,0,.174-.164C22.266,19.437,22.24,19.357,22.177,19.36Z" transform="translate(4.225 -4.692)" fill="#fff"/>
        <path id="Path_164" data-name="Path 164" d="M22.043,19.809c-.131-.114-.287-.021-.354-.119a.1.1,0,0,0-.087.152.428.428,0,0,0-.135.59c.088.137.317.131.38.121-.12-.043-.171-.328-.114-.4s.177-.229.468.092a.52.52,0,0,1,.276-.18c.114-.005.228-.115.156-.213S22.157,19.908,22.043,19.809Zm3.369,4.629a.715.715,0,0,1-.607-.414c-.033.224-.158.3-.246.1.036.137-.192.24-.317.191a.184.184,0,0,0-.27.175.216.216,0,0,0,.161.228c-.021.082.078.2.2.2a.221.221,0,0,0,.218-.224c.161.033.4-.142.566-.027.047.137.188.164.348.071A.16.16,0,0,0,25.411,24.438Z" transform="translate(4.905 -3.338)" fill="#fbc02d"/>
        <path id="Path_165" data-name="Path 165" d="M24.365,25.192c-.15.033-.189.267.013.361-.068-.134.143-.161.143-.227S24.517,25.16,24.365,25.192Zm-.2-.314a.2.2,0,0,0-.114.353c-.039-.189.148-.1.2-.142S24.319,24.873,24.163,24.878Zm1.52.247c-.034.035-.075.131-.005.178s.075.115.015.189a.206.206,0,0,0,.188-.306A.131.131,0,0,0,25.683,25.124Z" transform="translate(5.242 -2.292)" fill="#212121"/>
        <path id="Path_166" data-name="Path 166" d="M22.552,23.048c-.083-.115-.419-.009-.585-.03a.2.2,0,0,0-.253.149c-.078-.011-.142.035-.17.139a.107.107,0,0,0-.091.112.525.525,0,0,0,.135.3c.083.079.114.03.159-.05.039.016.086.005.14-.052A.192.192,0,0,0,22,23.574a1.019,1.019,0,0,1,.218.147c.036.049.089.038.195-.068.174.022.486.079.662.123a.685.685,0,0,1,.267-.134c-.281-.082-.585-.171-.689-.216C22.773,23.308,22.612,23.135,22.552,23.048Z" transform="translate(4.403 -3.058)" fill="#fbc02d"/>
        <path id="Path_167" data-name="Path 167" d="M21.907,23.608a.144.144,0,0,1-.138.061.171.171,0,0,1-.084.087c.017.047.135.039.2-.013a.238.238,0,0,0,.21-.024.208.208,0,0,0,.111-.035,1.227,1.227,0,0,0-.185-.114A.217.217,0,0,1,21.907,23.608Zm-.019-.313c.005.082.074.094.146.074.047-.014.059-.052.057-.15a.562.562,0,0,1,.078-.271C21.934,22.932,21.877,23.131,21.888,23.3Z" transform="translate(4.189 -3.063)" fill="#212121"/>
        <path id="Path_168" data-name="Path 168" d="M21.029,19.781c.081-.017.071.043.272-.069.076-.043.165-.186.144-.24-.093.1-.3.218-.369.153s-.015-.159.068-.246a.847.847,0,0,0,.156-.317c.048-.165-.031-.115-.109-.044a2.889,2.889,0,0,1-.374.274.255.255,0,0,0-.109.361,1.048,1.048,0,0,1,.063.323c.005.1.131.375.567.2.006,0-.008-.044,0-.112a.485.485,0,0,1,.114-.23C21.286,19.833,21.049,19.883,21.029,19.781Zm.789.194a.2.2,0,0,0-.177.247c.14.108.2.307.052.425-.479.373-.931.749-.722,1.416a.594.594,0,0,0,.712.421l-.256-.445c-.218-.328-.152-.563.4-.992.53-.415.413-.662.306-.875C22.09,20.12,21.934,19.953,21.819,19.975Z" transform="translate(4.076 -4.174)" fill="#558b2f"/>
        <path id="Path_169" data-name="Path 169" d="M21.31,23.259c-.042,0-.076.022-.107,0-.2-.126-.109-.568-.405-.689s-.26-.268-.166-.47.063-.787-.441-.8-.146.191.015.274a.3.3,0,0,1,.182.426c-.083.246-.214.546.109.787a.609.609,0,0,1,.327.487c.073.41.362.571.7.324C21.416,23.585,21.331,23.4,21.31,23.259Z" transform="translate(3.843 -3.356)" fill="#558b2f"/>
        <path id="Path_170" data-name="Path 170" d="M19.782,21.235c-.085.026-.1.054-.03.121.051.046.006.144.119.175.1.026.121-.08.1-.12A.108.108,0,0,1,20,21.3a.088.088,0,0,0-.032-.155C19.854,21.112,19.847,21.214,19.782,21.235Z" transform="translate(3.531 -3.937)" fill="#fbc02d"/>
        <path id="Path_171" data-name="Path 171" d="M19.923,21.273c-.085.026-.1.054-.03.121.051.046.006.144.119.175.1.026.121-.08.1-.12a.107.107,0,0,1,.028-.113.088.088,0,0,0-.032-.155C20,21.151,19.989,21.253,19.923,21.273Z" transform="translate(3.575 -3.921)" fill="#fbc02d"/>
        <path id="Path_172" data-name="Path 172" d="M20.065,21.312c-.085.026-.1.054-.03.121.051.046.006.144.119.175.1.026.121-.08.1-.12a.107.107,0,0,1,.028-.113.088.088,0,0,0-.032-.155C20.137,21.189,20.13,21.291,20.065,21.312Z" transform="translate(3.619 -3.905)" fill="#fbc02d"/>
        <path id="Path_173" data-name="Path 173" d="M21.877,20.07a.227.227,0,0,0-.171.144.524.524,0,0,1,.238.886c.46-.386.411-.653.244-.824C22.147,20.225,21.993,20.064,21.877,20.07Zm-.37,2.037a.431.431,0,0,1-.074-.5c-.218.285-.258.952.293.978.239.011.419.025.405.09a.505.505,0,0,0-.077.3.136.136,0,0,1,.114.034c.033.044.017.107.033.137a.47.47,0,0,0,.284-.67C22.276,21.949,21.711,22.295,21.507,22.107Z" transform="translate(4.211 -3.752)" fill="#827717"/>
        <path id="Path_174" data-name="Path 174" d="M22.293,20a.9.9,0,0,0-.187.122l.087.072a.767.767,0,0,1,.2-.122c.073-.018.072-.084.051-.094A.243.243,0,0,0,22.293,20Z" transform="translate(4.286 -4.461)" fill="#827717"/>
        <path id="Path_175" data-name="Path 175" d="M22.017,19.507a.7.7,0,0,0-.088.127.352.352,0,0,0,.129.011.166.166,0,0,0,.138-.1.162.162,0,0,0-.04-.17Z" transform="translate(4.216 -4.696)" fill="#ef6c00"/>
        <path id="Path_176" data-name="Path 176" d="M21.985,19.544c0,.037.113.039.133-.017.025-.072-.018-.091-.018-.091Z" transform="translate(4.205 -4.699)" fill="#212121"/>
        <path id="Path_177" data-name="Path 177" d="M22.043,19.52a.017.017,0,1,0,.017.017A.017.017,0,0,0,22.043,19.52Z" transform="translate(4.196 -4.683)" fill="#fff"/>
        <path id="Path_178" data-name="Path 178" d="M21.421,19.2c-.107-.043-.1-.035-.1-.035l-.031.082a1.039,1.039,0,0,1,.285.085A.338.338,0,0,0,21.421,19.2Z" transform="translate(4.019 -4.803)" fill="#827717"/>
        <path id="Path_179" data-name="Path 179" d="M21.041,19.306a.025.025,0,1,0,.025-.025A.025.025,0,0,0,21.041,19.306Z" transform="translate(3.895 -4.778)" fill="#212121"/>
      </g>
      <g id="icons8-great_britain" transform="translate(3086.278 13099.755)">
        <path id="Path_180" data-name="Path 180" d="M2,10H68.457V52.29H2Z" transform="translate(-2 -10)" fill="#3f51b5"/>
        <path id="Path_181" data-name="Path 181" d="M2,16.368l31.431,19.21,4.726-7.733L8.96,10H2Z" transform="translate(-2 -10)" fill="#fff"/>
        <path id="Path_182" data-name="Path 182" d="M57.708,10H52.257l-29.2,17.843,4.724,7.735L57.708,17.289Z" transform="translate(8.749 -10)" fill="#fff"/>
        <path id="Path_183" data-name="Path 183" d="M27.785,20.271,23.061,28,54.22,47.048h3.487v-8.49Z" transform="translate(8.749 -4.758)" fill="#fff"/>
        <path id="Path_184" data-name="Path 184" d="M2,39.483v7.565H7L38.157,28.006l-4.724-7.735Z" transform="translate(-2 -4.758)" fill="#fff"/>
        <path id="Path_185" data-name="Path 185" d="M2,20H68.457V32.083H2Z" transform="translate(-2 -4.896)" fill="#fff"/>
        <path id="Path_186" data-name="Path 186" d="M20,10H32.083V52.29H20Z" transform="translate(7.187 -10)" fill="#fff"/>
        <g id="Group_160" data-name="Group 160" transform="translate(0 0)">
          <path id="Path_187" data-name="Path 187" d="M24.985,25.1,2,11.056V14.6L19.191,25.1ZM65.9,10,41.19,25.1h5.792L68.457,11.98V10ZM48.946,37.187,68.457,49.111v-3.54L54.738,37.187Zm-25.924,0L2,50.034V52.29H4.1l24.711-15.1ZM2,28.124H68.457v6.041H2Z" transform="translate(-2 -10)" fill="#e53935"/>
          <path id="Path_188" data-name="Path 188" d="M22,10h6.042V52.29H22Z" transform="translate(8.208 -10)" fill="#e53935"/>
        </g>
      </g>
      <g id="icons8-canada" transform="translate(3166.102 13099.755)">
        <path id="Path_189" data-name="Path 189" d="M2,9H64.026V51.29H2Z" transform="translate(-2 -9)" fill="#eceff1"/>
        <path id="Path_190" data-name="Path 190" d="M49.93,9h14.1V51.29H49.93ZM2,9H16.1V51.29H2ZM31.6,38.6h2.819v4.229H31.6Z" transform="translate(-2 -9)" fill="#ff3d00"/>
        <path id="Path_191" data-name="Path 191" d="M40.374,31.916l-2.819-1.41,2.819-4.229H36.145l-.058-2.8L32.83,25.112l.5-7.292-2.819,1.41L27.7,15l-2.829,4.229-2.819-1.41.5,7.251-3.259-1.59s-.063,2.783-.056,2.8H15l2.819,4.229L15,31.916l5.639,2.819v2.819s6.657-.365,7.048-.365,7.048.365,7.048.365V34.735Z" transform="translate(3.326 -6.542)" fill="#ff3d00"/>
      </g>
      <g id="icons8-usa" transform="translate(3241.135 13099.755)">
        <path id="Path_192" data-name="Path 192" d="M2,10H70.916V52.29H2Z" transform="translate(-1.998 -10)" fill="#eceff1"/>
        <path id="Path_193" data-name="Path 193" d="M2,10H70.918v4.7H2Zm0,9.4H70.918v4.7H2Zm0,9.4H70.918v4.7H2Zm0,9.4H70.918v4.7H2Zm0,9.4H70.918v4.7H2Z" transform="translate(-1.997 -10)" fill="#f44336"/>
        <path id="Path_194" data-name="Path 194" d="M2,10H34.893V33.495H2Z" transform="translate(-1.997 -10)" fill="#3f51b5"/>
        <g id="Group_161" data-name="Group 161" transform="translate(1.178 3.133)">
          <path id="Path_195" data-name="Path 195" d="M5.1,12l.725,1.548,1.624.247L6.274,15l.279,1.7L5.1,15.9l-1.454.8L3.925,15,2.75,13.795l1.624-.247Zm6.265,0,.725,1.548,1.624.247L12.54,15l.279,1.7-1.454-.8-1.454.8L10.19,15,9.015,13.795l1.624-.247Zm6.265,0,.725,1.548,1.624.247L18.8,15l.279,1.7-1.454-.8-1.454.8.279-1.7-1.175-1.206,1.624-.247ZM23.9,12l.725,1.548,1.624.247L25.07,15l.279,1.7L23.9,15.9l-1.454.8.279-1.7-1.175-1.206,1.624-.247Zm5.874,0,.725,1.548,1.624.247L30.944,15l.279,1.7-1.454-.8-1.454.8.279-1.7L27.42,13.795l1.624-.247ZM5.1,24.53l.725,1.548,1.624.247L6.274,27.532l.279,1.7-1.454-.8-1.454.8.279-1.7L2.75,26.325l1.624-.247Zm6.265,0,.725,1.548,1.624.247L12.54,27.532l.279,1.7-1.454-.8-1.454.8.279-1.7L9.015,26.325l1.624-.247Zm6.265,0,.725,1.548,1.624.247L18.8,27.532l.279,1.7-1.454-.8-1.454.8.279-1.7-1.175-1.206,1.624-.247Zm6.265,0,.725,1.548,1.624.247L25.07,27.532l.279,1.7-1.454-.8-1.454.8.279-1.7-1.175-1.206,1.624-.247Zm5.874,0,.725,1.548,1.624.247-1.175,1.206.279,1.7-1.454-.8-1.454.8.279-1.7L27.42,26.325l1.624-.247Zm-23.1-6.265.725,1.548,1.624.247L7.841,21.266l.279,1.7-1.454-.8-1.454.8.279-1.7L4.316,20.06l1.624-.247Zm6.265,0,.725,1.548,1.624.247-1.175,1.206.279,1.7-1.454-.8-1.454.8.279-1.7L10.582,20.06l1.624-.247Zm6.265,0,.725,1.548,1.624.247-1.175,1.206.279,1.7-1.454-.8-1.454.8.279-1.7L16.847,20.06l1.624-.247Zm6.265,0,.725,1.548,1.624.247-1.175,1.206.279,1.7-1.454-.8-1.454.8.279-1.7L23.112,20.06l1.624-.247Zm5.874,0,.725,1.548,1.624.247L32.51,21.266l.279,1.7-1.454-.8-1.454.8.279-1.7L28.986,20.06l1.624-.247Z" transform="translate(-2.75 -12)" fill="#fff"/>
        </g>
      </g>
      <g id="icons8-france" transform="translate(3324.152 13099.755)">
        <path id="Path_196" data-name="Path 196" d="M16,9H38.555V51.291H16Z" transform="translate(3.736 -9)" fill="#eceff1"/>
        <path id="Path_197" data-name="Path 197" d="M32,9H51.736V51.291H32Z" transform="translate(10.291 -9)" fill="#ff3d00"/>
        <path id="Path_198" data-name="Path 198" d="M2,9H21.736V51.291H2Z" transform="translate(-2 -9)" fill="#3f51b5"/>
      </g>
    </g>
  </g>
</svg>
