<svg xmlns="http://www.w3.org/2000/svg" width="153.262" height="28.754" viewBox="0 0 153.262 28.754">
  <g id="Group_236" data-name="Group 236" transform="translate(0)">
    <g id="Group_235" data-name="Group 235">
      <path id="Path_202" data-name="Path 202" d="M399.41,12581.225a6.9,6.9,0,0,0-6.9-6.9v1.2a5.7,5.7,0,0,1,5.7,5.7Zm0,14.96v-14.96h-1.2v14.96Zm-6.9,6.9a6.9,6.9,0,0,0,6.9-6.9h-1.2a5.7,5.7,0,0,1-5.7,5.7Zm-139.458,0H392.508v-1.2H253.05Zm-6.9-6.9a6.9,6.9,0,0,0,6.9,6.9v-1.2a5.7,5.7,0,0,1-5.7-5.7Zm0-14.96v14.96h1.2v-14.96Zm6.9-6.9a6.9,6.9,0,0,0-6.9,6.9h1.2a5.7,5.7,0,0,1,5.7-5.7Zm139.458,0H253.05v1.2H392.508Z" transform="translate(-246.148 -12574.328)" fill="#fff"/>
      <path id="Path_203" data-name="Path 203" d="M259.425,12589c0,1.51-1.177,2.372-2.883,2.372a5.585,5.585,0,0,1-2.245-.476v-2.006a5.083,5.083,0,0,0,2.246.672c.458,0,.788-.127.788-.513,0-1-3.121-.626-3.121-2.949,0-1.486,1.109-2.377,2.775-2.377a5.323,5.323,0,0,1,2.04.386v1.976a4.531,4.531,0,0,0-2.042-.54c-.43,0-.7.127-.7.456C256.287,12586.948,259.425,12586.5,259.425,12589Zm2.491-.359c0,1.237,1.3.852,1.559.745v1.709a3.122,3.122,0,0,1-1.441.277,2.091,2.091,0,0,1-2.133-2.159l.01-6.736,2-.435v1.822h1.559v1.79h-1.559Zm4.332-2.407v4.989H264.2v-7.358h1.774l.129.62a1.381,1.381,0,0,1,1.712-.619v1.929A1.437,1.437,0,0,0,266.248,12586.237Zm2.129-4.719,2.061-.447v1.709l-2.061.448Zm0,2.35h2.061v7.358h-2.061Zm5.932,1.72a1.227,1.227,0,0,0-.981.417l.013,3.119a1.216,1.216,0,0,0,.968.4c.758,0,1.268-.845,1.268-1.975C275.577,12586.448,275.06,12585.588,274.309,12585.588Zm.477,5.788a2.283,2.283,0,0,1-1.452-.529l0,2.375-2.052.445v-9.8h1.808l.107.519a2.275,2.275,0,0,1,1.608-.659c1.441,0,2.8,1.329,2.8,3.773C277.6,12590.169,276.255,12591.376,274.786,12591.376Zm6.385-5.937c-.514,0-1.084.4-1.084,1.342h2.123C282.209,12585.838,281.675,12585.439,281.17,12585.439Zm2.952,2.893h-4.017c.091.983.8,1.274,1.6,1.274a4.244,4.244,0,0,0,2.016-.466v1.691a4.517,4.517,0,0,1-2.275.544c-2,0-3.4-1.281-3.4-3.812,0-2.138,1.189-3.837,3.141-3.837s2.968,1.7,2.968,3.849C284.151,12587.778,284.132,12588.219,284.123,12588.332Zm99.307,2.187v-5.958h2.262a1.943,1.943,0,0,1,2.106,1.931,1.857,1.857,0,0,1-1.091,1.724l1.325,2.3H386.49l-1.161-2.1h-.486v2.1Zm1.413-4.814v1.575h.659a.8.8,0,0,0,.849-.788.785.785,0,0,0-.849-.787Zm-6.361,4.814v-5.958h3.761v1.178h-2.314v1.187H381.9v1.135h-1.976v1.281h2.383v1.178Zm-6.7,0v-5.958h1.248l2.686,3.671v-3.671h1.343v5.958h-1.247l-2.679-3.673v3.673Zm-4.073,0v-4.78h-1.724v-1.178h4.879v1.178h-1.716v4.78Zm-6.622,0v-5.958h2.262a1.943,1.943,0,0,1,2.106,1.931,1.857,1.857,0,0,1-1.091,1.724l1.326,2.3h-1.543l-1.162-2.1H362.5v2.1Zm1.413-4.814v1.575h.659a.8.8,0,0,0,.849-.788.785.785,0,0,0-.849-.787Zm-5.044.6-.7,1.914h1.4Zm-2.964,4.218,2.34-5.958h1.248l2.331,5.958h-1.4l-.459-1.23h-2.193l-.452,1.23Zm-2.7-4.814v1.636h.694a.82.82,0,1,0,0-1.636Zm-1.413,4.814v-5.958h2.3a1.964,1.964,0,1,1,0,3.914h-.884v2.044Zm-7.081-4.78v3.6h.849a1.823,1.823,0,0,0,0-3.6Zm-1.447,4.78v-5.958h2.366a2.979,2.979,0,0,1,0,5.958Zm-4.948,0v-5.958h3.761v1.178h-2.314v1.187h1.976v1.135h-1.976v1.281h2.383v1.178Zm-2.869,0v-5.958h1.447v5.958Zm-4.741,0v-5.958h3.762v1.178h-2.315v1.411h1.977v1.178h-1.977v2.191Zm-2.868,0v-5.958h1.447v5.958Zm-5.547,0v-5.958h2.262a1.943,1.943,0,0,1,2.106,1.931,1.857,1.857,0,0,1-1.091,1.724l1.325,2.3h-1.542l-1.162-2.1h-.485v2.1Zm1.413-4.814v1.575h.659a.8.8,0,0,0,.849-.788.786.786,0,0,0-.849-.787Zm-6.361,4.814v-5.958h3.761v1.178h-2.314v1.187h1.976v1.135h-1.976v1.281h2.383v1.178Zm-.677-5.958-2.332,5.958h-1.247l-2.34-5.958h1.482l1.482,4.009,1.482-4.009Z" transform="translate(-244.551 -12572.992)" fill="#fff" fill-rule="evenodd"/>
    </g>
    <path id="Path_205" data-name="Path 205" d="M296.864,12580.768l-13.189,2.889v10.291l13.189-2.885Z" transform="translate(-238.714 -12573.052)" fill="#ff6a2b"/>
  </g>
</svg>
