<svg xmlns="http://www.w3.org/2000/svg" width="112" height="112" viewBox="0 0 112 112">
  <g id="Group_203" data-name="Group 203" transform="translate(-1264 -4357)">
    <circle id="Ellipse_5" data-name="Ellipse 5" cx="56" cy="56" r="56" transform="translate(1264 4357)" fill="#2b6bb8"/>
    <path id="icons8-translator" d="M8.194,4A4.225,4.225,0,0,0,4,8.194V31.26a4.225,4.225,0,0,0,4.194,4.194H18.678V31.26H8.194V8.194H31.26v6.291h4.194V8.194A4.225,4.225,0,0,0,31.26,4Zm10.484,7.339v3.145H12.388v2.1H22.872c0,3.248-.915,5.2-2.6,6.479a7.385,7.385,0,0,1-1.614.9,9.21,9.21,0,0,1-1.847-1.163,5.91,5.91,0,0,1-2.326-4.116h-2.1A7.768,7.768,0,0,0,15.459,24.4c.124.1.275.187.405.287a21.664,21.664,0,0,1-3.477.283v2.1a20,20,0,0,0,6.2-.827,11.615,11.615,0,0,0,4.284.827v-2.1a9.5,9.5,0,0,1-1.487-.139c.05-.036.106-.065.156-.1,2.246-1.707,3.428-4.474,3.428-8.146h2.1v-2.1H20.775V11.339ZM37.55,18.957c-3.246,0-14.678,1.334-14.678,14.678v5.381a4.272,4.272,0,0,0,2.936,4.407s2.935,8.805,11.742,8.805,11.742-8.805,11.742-8.805a4.272,4.272,0,0,0,2.936-4.407V33.635c0-5.337-2.67-12.008-8.007-12.008C44.222,21.627,42.889,18.957,37.55,18.957Zm-2.306,8.06h4.6l4.964,14.777h-4.1l-.921-3.248H34.97l-.954,3.248H30.289Zm2.06,3.33-1.618,5.5h3.4l-1.585-5.5Z" transform="translate(1291.811 4384.34)" fill="#fff"/>
  </g>
</svg>
