<svg xmlns="http://www.w3.org/2000/svg" width="112" height="112" viewBox="0 0 112 112">
  <g id="Group_229" data-name="Group 229" transform="translate(-7907 -12142)">
    <circle id="Ellipse_6" data-name="Ellipse 6" cx="56" cy="56" r="56" transform="translate(7907 12142)" fill="#ff6a2b"/>
    <path id="icons8-google" d="M20.512,20.239h0a3.431,3.431,0,0,0,3.43,3.43H30.3a9.719,9.719,0,0,1-7.654,6.946A11.063,11.063,0,0,1,9.723,21.022,10.835,10.835,0,0,1,25.5,10.348a3.517,3.517,0,0,0,4.107-.661h0a3.579,3.579,0,0,0-.895-5.712,17.97,17.97,0,1,0-8.2,33.959c11.441,0,16.12-8.112,17.066-15.088a5.366,5.366,0,0,0-5.35-6.026l-8.283-.011A3.428,3.428,0,0,0,20.512,20.239Z" transform="translate(7943.678 12179.034)" fill="#fff"/>
  </g>
</svg>
