<svg xmlns="http://www.w3.org/2000/svg" width="112" height="112" viewBox="0 0 112 112">
  <g id="Group_202" data-name="Group 202" transform="translate(-766 -3534)">
    <circle id="Ellipse_6" data-name="Ellipse 6" cx="56" cy="56" r="56" transform="translate(766 3534)" fill="#ff6a2b"/>
    <path id="icons8-great_britain" d="M37.423,5H4.952A2.951,2.951,0,0,0,2,7.952V31.567a2.951,2.951,0,0,0,2.952,2.952H37.423a2.951,2.951,0,0,0,2.952-2.952V7.952A2.951,2.951,0,0,0,37.423,5ZM18.235,31.567H15.284V26.3L7.9,31.567H4.952V30.091l6.2-4.428h-6.2V22.711H18.235Zm0-14.76H4.952V13.856h6.2l-6.2-4.428V7.952H7.9l7.38,5.271V7.952h2.952Zm19.187,8.856h-6.2l6.2,4.428v1.476H34.471L27.091,26.3v5.271H24.139V22.711H37.423Zm0-16.235-6.2,4.428h6.2v2.952H24.139V7.952h2.952v5.271l7.38-5.271h2.952Z" transform="translate(801 3570)" fill="#fff"/>
  </g>
</svg>
