<svg xmlns="http://www.w3.org/2000/svg" width="112" height="112" viewBox="0 0 112 112">
  <g id="Group_201" data-name="Group 201" transform="translate(-307 -3534)">
    <circle id="Ellipse_6" data-name="Ellipse 6" cx="56" cy="56" r="56" transform="translate(307 3534)" fill="#ff6a2b"/>
    <path id="icons8-gift" d="M18.636,2a4.715,4.715,0,0,0-4.691,4.691,4.59,4.59,0,0,0,.293,1.564H6.127A3.126,3.126,0,0,0,3,11.382v3.127H40.527V11.382A3.126,3.126,0,0,0,37.4,8.255H29.289a4.59,4.59,0,0,0,.293-1.564A4.715,4.715,0,0,0,24.891,2a4.652,4.652,0,0,0-3.127,1.231A4.652,4.652,0,0,0,18.636,2Zm0,3.127A1.539,1.539,0,0,1,20.2,6.691V8.255H18.636a1.564,1.564,0,1,1,0-3.127Zm6.255,0a1.564,1.564,0,1,1,0,3.127H23.327V6.691A1.539,1.539,0,0,1,24.891,5.127ZM4.564,17.636V37.964a3.126,3.126,0,0,0,3.127,3.127H20.2V17.636Zm18.764,0V41.091H35.836a3.126,3.126,0,0,0,3.127-3.127V17.636Z" transform="translate(340.598 3567.909)" fill="#fff"/>
  </g>
</svg>
