<svg xmlns="http://www.w3.org/2000/svg" width="621.074" height="460.465" viewBox="0 0 621.074 460.465">
  <g id="Group_179" data-name="Group 179" transform="translate(0)">
    <path id="Path_133" data-name="Path 133" d="M255.339,567.967a303.748,303.748,0,0,0,14.191,83.966c.192.631.4,1.252.612,1.883h52.953c-.056-.566-.113-1.2-.169-1.883C319.4,611.343,339.565,367.247,363.9,325,361.772,328.427,251.233,438.995,255.339,567.967Z" transform="translate(-217.863 -193.474)" fill="#e6e6e6"/>
    <path id="Path_134" data-name="Path 134" d="M249.519,690.659c.443.631.9,1.262,1.375,1.883h39.727c-.3-.537-.65-1.168-1.055-1.883C283,678.815,263.58,643.4,245.549,606.693c-19.369-39.451-37.153-80.4-35.656-95.217C209.43,514.817,196.021,616.711,249.519,690.659Z" transform="translate(-208.07 -232.199)" fill="#e6e6e6"/>
    <path id="Path_302" data-name="Path 302" d="M459.7,555.619a9.167,9.167,0,0,0-.265,1.419l-38.253,20.09-8.882-5.594-10.194,12.3,14.762,11.431a6.97,6.97,0,0,0,8.364.128l39.77-28.892a9.146,9.146,0,1,0-5.3-10.884Z" transform="translate(-248.366 -239.974)" fill="#9e616a"/>
    <path id="Path_303" data-name="Path 303" d="M319.951,560.521l7.671-4.933-15.376-31.931-11.32,7.28Z" transform="translate(-62.494 -108.749)" fill="#9e616a"/>
    <path id="Path_304" data-name="Path 304" d="M528.507,724.587l15.1-9.714h0a11.446,11.446,0,0,1,15.816,3.436l.2.313-24.731,15.9Z" transform="translate(-274.615 -274.061)" fill="#2f2e41"/>
    <path id="Path_305" data-name="Path 305" d="M381.971,650.074l58.876-37.7s10.818-1.044,17.31,11.751l39.212,56.325-16.729,11.32-43.511-45.18L407.27,676.123s43.99-7.214,42.5,21.795c-1.181,23.022-61.387,15.125-86.19,10.884a32.524,32.524,0,0,1-22.791-15.6c-2.66-4.614-4.09-9.852-1.856-14.8C344.894,665.19,381.971,650.074,381.971,650.074Z" transform="translate(-235.018 -253.15)" fill="#2f2e41"/>
    <path id="Path_306" data-name="Path 306" d="M352.256,670.126l-16.967-3.434,4.835-83.275,19.523-23.913,11.631-2.059a14.053,14.053,0,0,1,16.078,10.174l5.127,18.729c8.7,14.729-3.487,31.806-4.611,33.324L388.5,645.5Z" transform="translate(-234.49 -241.699)" fill="#ff6a2b"/>
    <path id="Path_307" data-name="Path 307" d="M376.642,562.795l1.077-3.808s11.683-8.611,29.534,13.7L398.7,587.939l-18.6-.744Z" transform="translate(-243.077 -241.727)" fill="#ff6a2b"/>
    <path id="Path_308" data-name="Path 308" d="M395.467,518.528c3.31,13.568-9.736,14.576-25.212,18.351s-27.52,8.887-30.83-4.68-3.048-39.112,18.845-44.452C380.917,482.222,392.157,504.96,395.467,518.528Z" transform="translate(-235.028 -227.095)" fill="#2f2e41"/>
    <ellipse id="Ellipse_33" data-name="Ellipse 33" cx="19.408" cy="19.408" rx="19.408" ry="19.408" transform="translate(111.12 271.52)" fill="#9e616a"/>
    <path id="Path_309" data-name="Path 309" d="M344.591,523.646h0l7.458-1.819,1.043-10.015L356,520.864l3.565-.87.608-5.842,1.695,5.28,26.485-6.461h0a20.545,20.545,0,0,0-24.829-15.091l-3.838.936A20.545,20.545,0,0,0,344.591,523.646Z" transform="translate(-236.299 -229.254)" fill="#2f2e41"/>
    <path id="Path_310" data-name="Path 310" d="M400.152,637.867a9.155,9.155,0,0,0-1.364.474l-36.411-23.262.455-10.487-15.737-2.755-2.609,18.487a6.97,6.97,0,0,0,4.035,7.327l44.808,20.216a9.145,9.145,0,1,0,6.824-10Z" transform="translate(-236.385 -250.965)" fill="#9e616a"/>
    <path id="Path_311" data-name="Path 311" d="M363.861,563.9l-2.744-3.459s-11.018-3.549-16.969,11.327-.372,29.381-.372,29.381l26.034,2.232,1.86-24.174Z" transform="translate(-235.759 -242.291)" fill="#ff6a2b"/>
    <path id="Path_312" data-name="Path 312" d="M527.283,130.684H730.576v66.738h-7.7v17.454l-17.455-17.454H527.283Z" transform="translate(-109.502 -27.139)" fill="#e6e6e6"/>
    <rect id="Rectangle_49" data-name="Rectangle 49" width="192" height="53.39" transform="translate(423.428 110.043)" fill="#fff"/>
    <rect id="Rectangle_50" data-name="Rectangle 50" width="92.443" height="2.805" transform="translate(438.868 125.631)" fill="#ff6a2b"/>
    <rect id="Rectangle_51" data-name="Rectangle 51" width="161.12" height="2.805" transform="translate(438.868 135.336)" fill="#e6e6e6"/>
    <rect id="Rectangle_52" data-name="Rectangle 52" width="160.963" height="2.805" transform="translate(438.868 145.041)" fill="#e6e6e6"/>
    <path id="Path_313" data-name="Path 313" d="M577.222,0H373.928V66.738h7.7V84.193l17.454-17.455H577.222Z" transform="translate(-77.654)" fill="#e6e6e6"/>
    <rect id="Rectangle_53" data-name="Rectangle 53" width="192" height="53.39" transform="translate(301.921 6.499)" fill="#fff"/>
    <rect id="Rectangle_54" data-name="Rectangle 54" width="92.443" height="2.805" transform="translate(318.901 22.6)" fill="#ff6a2b"/>
    <rect id="Rectangle_55" data-name="Rectangle 55" width="161.12" height="2.805" transform="translate(318.901 32.305)" fill="#e6e6e6"/>
    <rect id="Rectangle_56" data-name="Rectangle 56" width="160.963" height="2.805" transform="translate(318.901 42.01)" fill="#e6e6e6"/>
    <path id="Path_314" data-name="Path 314" d="M512.374,534.565h-.36v-9.859A5.706,5.706,0,0,0,506.308,519H485.42a5.706,5.706,0,0,0-5.706,5.706v54.088a5.706,5.706,0,0,0,5.706,5.706h20.888a5.706,5.706,0,0,0,5.706-5.706V541.583h.36Z" transform="translate(-264.483 -233.762)" fill="#3f3d56"/>
    <path id="Path_315" data-name="Path 315" d="M506.951,520.874h-2.727a2.024,2.024,0,0,1-1.874,2.789H490.384a2.025,2.025,0,0,1-1.875-2.789h-2.547a4.261,4.261,0,0,0-4.261,4.261v54.008a4.261,4.261,0,0,0,4.261,4.261h20.988a4.261,4.261,0,0,0,4.261-4.261h0V525.135A4.261,4.261,0,0,0,506.951,520.874Z" transform="translate(-264.895 -234.151)" fill="#fff"/>
    <path id="Path_316" data-name="Path 316" d="M533.076,248.549H283.441V330.5H292.9v21.432L314.33,330.5H533.076Z" transform="translate(-58.863 -51.617)" fill="#fff"/>
    <path id="Path_317" data-name="Path 317" d="M499.966,512.638V490.085h-9.456V406.549H741.73v83.536H522.52ZM492.1,488.5h9.456v20.313L521.864,488.5H740.145V408.133H492.1Z" transform="translate(-266.725 -210.409)" fill="#3f3d56"/>
    <rect id="Rectangle_57" data-name="Rectangle 57" width="113.515" height="3.445" transform="translate(252.363 224.684)" fill="#ff6a2b"/>
    <rect id="Rectangle_58" data-name="Rectangle 58" width="197.848" height="3.445" transform="translate(252.363 236.601)" fill="#e6e6e6"/>
    <rect id="Rectangle_59" data-name="Rectangle 59" width="197.654" height="3.445" transform="translate(252.363 248.518)" fill="#e6e6e6"/>
  </g>
</svg>
