<svg xmlns="http://www.w3.org/2000/svg" width="112" height="112" viewBox="0 0 112 112">
  <g id="Group_194" data-name="Group 194" transform="translate(-1260 -1206)">
    <circle id="Ellipse_5" data-name="Ellipse 5" cx="56" cy="56" r="56" transform="translate(1260 1206)" fill="#2b6bb8"/>
    <g id="Group_97" data-name="Group 97" transform="translate(1274.025 1246.004)">
      <path id="Path_85" data-name="Path 85" d="M194.122,24v9.536H191.1V9.994h8.015a7.287,7.287,0,0,1,5.2,2.046A6.489,6.489,0,0,1,206.474,17a6.568,6.568,0,0,1-2.159,4.993A7.26,7.26,0,0,1,199.134,24Zm0-11.113v8.222h5.068a3.952,3.952,0,0,0,2.985-1.22,4.005,4.005,0,0,0,.075-5.669l-.075-.075a3.9,3.9,0,0,0-2.985-1.239ZM213.438,16.9a7.557,7.557,0,0,1,5.294,1.783,6.364,6.364,0,0,1,1.933,4.918v9.911h-2.891V31.281h-.131a5.773,5.773,0,0,1-4.993,2.759,6.482,6.482,0,0,1-4.449-1.577,4.978,4.978,0,0,1-1.783-3.942,4.809,4.809,0,0,1,1.9-3.98,7.923,7.923,0,0,1,5.05-1.483,9.1,9.1,0,0,1,4.43.976v-.695a3.462,3.462,0,0,0-1.239-2.666,4.393,4.393,0,0,0-2.91-1.108,4.652,4.652,0,0,0-4.017,2.14l-2.666-1.671a7.369,7.369,0,0,1,6.476-3.135Zm-3.9,11.695a2.436,2.436,0,0,0,.995,1.971,3.691,3.691,0,0,0,2.346.788,4.8,4.8,0,0,0,3.4-1.408,4.432,4.432,0,0,0,1.5-3.323,6.159,6.159,0,0,0-3.942-1.126,5.23,5.23,0,0,0-3.079.882A2.683,2.683,0,0,0,209.534,28.6Zm27.726-11.169-10.1,23.2h-3.116L227.8,32.52l-6.645-15.074h3.285l4.787,11.563h.075l4.674-11.563Z" transform="translate(-154.436 -8.12)" fill="#fff"/>
      <path id="Path_86" data-name="Path 86" d="M85.971,61.741A16.7,16.7,0,0,0,85.746,59H73v5.2h7.3a6.259,6.259,0,0,1-2.7,4.111V71.69h4.355a13.185,13.185,0,0,0,4.017-9.949Z" transform="translate(-58.505 -47.928)" fill="#fff"/>
      <path id="Path_87" data-name="Path 87" d="M20.77,96.725a12.928,12.928,0,0,0,8.954-3.266L25.369,90.08A8.188,8.188,0,0,1,13.186,85.8H8.7v3.492A13.535,13.535,0,0,0,20.77,96.725Z" transform="translate(-6.275 -69.698)" fill="#fff"/>
      <path id="Path_88" data-name="Path 88" d="M6.911,48.354a8.155,8.155,0,0,1,0-5.181V39.7H2.425a13.4,13.4,0,0,0,0,12.126Z" transform="translate(0 -32.251)" fill="#fff"/>
      <path id="Path_89" data-name="Path 89" d="M20.77,5.346a7.274,7.274,0,0,1,5.181,2.027L29.8,3.526A12.9,12.9,0,0,0,20.77,0,13.518,13.518,0,0,0,8.7,7.449l4.486,3.491A8.08,8.08,0,0,1,20.77,5.346Z" transform="translate(-6.275 0)" fill="#fff"/>
    </g>
  </g>
</svg>
