<svg xmlns="http://www.w3.org/2000/svg" width="112" height="112" viewBox="0 0 112 112">
  <g id="Group_198" data-name="Group 198" transform="translate(-766 -2801)">
    <circle id="Ellipse_5" data-name="Ellipse 5" cx="56" cy="56" r="56" transform="translate(766 2801)" fill="#ff6a2b"/>
    <path id="icons8-welfare" d="M11.951,5a1.708,1.708,0,0,0-1.707,1.707V20.366H8.537V8.415a1.707,1.707,0,0,0-3.415,0V24.588a3.527,3.527,0,0,0-3.685-.47L0,24.774,5.592,36.982c.023.057.052.111.077.167l.18.39.027-.013a6.216,6.216,0,0,0,5.489,3.328h5.709a6.718,6.718,0,0,0,4.585-1.814c.265.21.6.5.83.68l.157.123a3.425,3.425,0,0,0,.7.423,4.659,4.659,0,0,0,4.545-.01,3.394,3.394,0,0,0,.677-.413l.16-.123c.23-.18.565-.47.83-.68a6.718,6.718,0,0,0,4.585,1.814h5.709a6.216,6.216,0,0,0,5.489-3.328l.027.013.18-.39c.025-.056.053-.11.077-.167L51.22,24.774l-1.437-.657a3.527,3.527,0,0,0-3.685.47V8.415a1.707,1.707,0,0,0-3.415,0V20.366H40.976V6.707a1.707,1.707,0,1,0-3.415,0V20.366H35.854V8.415a1.707,1.707,0,1,0-3.415,0V19.236a8,8,0,0,0-1.707-.454V13.537a1.707,1.707,0,0,0-3.415,0v5.439a7.926,7.926,0,0,0-1.707.734,7.9,7.9,0,0,0-1.707-.734V13.537a1.707,1.707,0,1,0-3.415,0v5.245a8,8,0,0,0-1.707.454V8.415a1.707,1.707,0,1,0-3.415,0V20.366H13.659V6.707A1.708,1.708,0,0,0,11.951,5Zm9.777,17.073a4.13,4.13,0,0,1,.78.083c.08.016.157.034.233.053.1.025.194.059.29.09a4.848,4.848,0,0,1,.87.38,5.688,5.688,0,0,1,1.707,1.527,5.688,5.688,0,0,1,1.707-1.527,4.807,4.807,0,0,1,.86-.377c.1-.034.2-.07.307-.1.074-.019.15-.035.227-.05a4.13,4.13,0,0,1,.78-.083,4.655,4.655,0,0,1,4.655,4.655,6.172,6.172,0,0,1-.157,1.307c-.014.063-.024.127-.04.19a7.775,7.775,0,0,1-.41,1.21c-.032.075-.069.149-.1.223-.109.236-.244.464-.373.694-.172.306-.355.608-.557.9-.116.169-.233.338-.357.5-.234.311-.481.615-.737.91-.118.136-.232.275-.353.407-.287.314-.582.615-.88.907-.1.1-.2.2-.3.3-.079.075-.157.14-.237.213-.555.514-1.1.973-1.614,1.4-.559.458-1.14.931-1.564,1.264l-.02-.02a1.306,1.306,0,0,1-1.674,0l-.02.023c-.419-.329-1-.8-1.547-1.25s-1.115-.928-1.7-1.474c-.045-.042-.089-.078-.133-.12-.141-.133-.277-.279-.417-.417-.268-.265-.532-.535-.79-.817-.122-.133-.238-.273-.357-.41-.256-.3-.5-.6-.737-.91-.124-.165-.241-.334-.357-.5-.2-.3-.385-.6-.557-.9-.129-.23-.264-.458-.373-.694-.035-.075-.071-.148-.1-.223a7.773,7.773,0,0,1-.41-1.21c-.016-.063-.026-.127-.04-.19a6.172,6.172,0,0,1-.157-1.307,4.645,4.645,0,0,1,4.655-4.655Z" transform="translate(796.314 2835.573)" fill="#fff"/>
  </g>
</svg>
