<svg xmlns="http://www.w3.org/2000/svg" width="670.477" height="374.026" viewBox="0 0 670.477 374.026">
  <g id="shadow" transform="translate(23.073 305.053)">
    <path id="Path_13" data-name="Path 13" d="M355.177,624.115c-17.674.055-35.348.5-52.99,2.537-6.652.769-13.165,2.462-19.832,3.144-13.318,1.364-26.4,3.908-39.762,5.081-10.762.945-21.57,1.5-32.3,2.7a109.374,109.374,0,0,1-31.183-.992c-7.391-1.375-14.816-2.149-22.083-4.357-8.129-2.47-16.961-4.236-25.43-4.172-12.078.091-23.84.1-35.4,4.463-4.058,1.531-9.024,4.048-12.105,7.261-7.053,7.355-8.008,25.708-.966,33.336,11.862,12.839,37.178,17.877,53.8,18.115,18.219.261,35.919-1.146,54.165-1.973,16.954-.769,33.866-1.862,50.849-1.824,34.685.079,69.375,0,104-2.41,32.528-2.264,65.138-1.486,97.739-1.486,33.429,0,66.633.273,99.822,4.894,14.46,2.013,29.192,2.718,43.726,4.128,13.016,1.263,25.523-.025,38.487-1.192a89.108,89.108,0,0,0,31.59-8.8c7.828-3.891,21.784-15.977,24.185-25.264,6.73-26.036-94.85-25.41-110.446-25.351-17.448.066-35.033.662-52.467-.029-7.334-.291-14.559-1.781-21.717-3.415-7.129-1.627-14.312-1.213-21.541-1.9-30.149-2.851-60.364-2.434-90.609-2.434C374.871,624.174,365.024,624.084,355.177,624.115Z" transform="translate(-78.3 -624.108)" fill="#f7f7f7" opacity="0.6"/>
  </g>
  <g id="object" transform="translate(0 0)">
    <g id="Group_89" data-name="Group 89">
      <g id="Group_11" data-name="Group 11" transform="translate(76.906 15.957)">
        <path id="Path_14" data-name="Path 14" d="M259.561,191.9l.991-10.605-4.514-.621-2.287,7.112-2-1.285.257,9.178,4.605,1.279Z" transform="translate(-192.503 -180.675)" fill="#f4d0c1"/>
        <path id="Path_15" data-name="Path 15" d="M160.872,252.533l47.261-17.792,11.817-33.047,5.952,2.168-.873,41.007-44.237,32.18Z" transform="translate(-160.872 -187.991)" fill="#bcbec0"/>
      </g>
      <g id="Group_12" data-name="Group 12" transform="translate(314.379 112.6)">
        <path id="Path_16" data-name="Path 16" d="M540.231,334.154l-.512,5.3-9.754,2.187-4.843-4.762.79-6.145,5.221.381.337-1.33,1.839-.872Z" transform="translate(-525.121 -328.912)" fill="#e4d2b8"/>
      </g>
      <g id="Group_18" data-name="Group 18" transform="translate(483.582 21.567)">
        <g id="Group_17" data-name="Group 17">
          <g id="Group_13" data-name="Group 13" transform="translate(35.341 172.11)">
            <path id="Path_17" data-name="Path 17" d="M878.488,459.907l2.083,48.322-6.107,82.164-9.139.649-11.1-74.624-15.36-63.147Z" transform="translate(-838.862 -453.272)" fill="#3b455a"/>
            <path id="Path_18" data-name="Path 18" d="M879.766,667.485,890,671.724l4.59-5.292-5.292-4.59-9.883.7Z" transform="translate(-852.976 -525.864)" fill="#2a313f"/>
          </g>
          <g id="Group_14" data-name="Group 14" transform="translate(8.269 157.889)">
            <path id="Path_19" data-name="Path 19" d="M799.343,435.216l-2.006,36.526,5.951,108.606,9.15.457,13.714-71.231,12.1-78.114Z" transform="translate(-797.338 -431.46)" fill="#3b455a"/>
            <path id="Path_20" data-name="Path 20" d="M812.2,663.543,802.057,668l-4.7-5.195,5.195-4.7,9.9.495Z" transform="translate(-797.344 -510.342)" fill="#2a313f"/>
          </g>
          <g id="Group_15" data-name="Group 15" transform="translate(0 50.985)">
            <path id="Path_21" data-name="Path 21" d="M848.133,270.542l-28.554-3.059s-15.886,1.7-26.664,39.422c-6,20.988-7.822,54.056-8.262,79.266.675,3.6,4.592,19.349,21.159,16.676,28.449-4.588,43.591-9.178,55.981-6.883,10.554,2.294,9.661-12.236,8.5-23.325l-4.205-34.31Z" transform="translate(-784.654 -267.483)" fill="#4483d0"/>
          </g>
          <g id="Group_16" data-name="Group 16" transform="translate(20.828)">
            <path id="Path_22" data-name="Path 22" d="M858.162,216.5c-7.2-1.586-14.605-3.007-21.81-1.582-1.578.313-3.271.862-4.128,2.224a6.281,6.281,0,0,0-.669,1.739c-1.818,6.758-4.125,16.777.325,23a11.134,11.134,0,0,0,3.212,2.9,15.815,15.815,0,0,0,5.324,2.089,28.571,28.571,0,0,1-1.612,4.909c1.647,2.484,9.334,2.782,10.755.4q.119-3.091.239-6.183a15.224,15.224,0,0,0,2.688-1.4,17.369,17.369,0,0,0,6.706-9.119c1.369-4,3.3-7.8,4.545-11.877.456-1.485.815-3.18.034-4.523-.832-1.429-2.627-1.915-4.241-2.275Z" transform="translate(-821.025 -197.999)" fill="#c1755d"/>
            <path id="Path_23" data-name="Path 23" d="M829.783,211.645a22.439,22.439,0,0,1,12.238-3.03c10.112.733,13.818,8.159,14.357,17.457,2.786-3.54,8.014-7.994,8.329-12.551.259-3.729-.257-8.814-2.346-12.035-1.955-3.014-6.954-4.669-9.927-6.416l-8.407-4.938a4.25,4.25,0,0,0-4.212-.542l-19.871,5.135c-1.272.329-2.722.809-3.191,2.037a4.175,4.175,0,0,0,.053,2.362c.752,3.438,2.2,6.953,2.553,10.436.4,2.024,1.611,12.4,5.194,11.2,1.052-1.721,1.21-3.839,2.029-5.682A8.233,8.233,0,0,1,829.783,211.645Z" transform="translate(-816.601 -189.28)" fill="#2e3644"/>
          </g>
        </g>
      </g>
      <g id="Group_37" data-name="Group 37" transform="translate(325.307 25.765)">
        <g id="Group_35" data-name="Group 35">
          <g id="Group_21" data-name="Group 21" transform="translate(92.043 227.477)">
            <g id="Group_19" data-name="Group 19" transform="translate(0 63.532)">
              <path id="Path_24" data-name="Path 24" d="M687.09,643.584a3.755,3.755,0,0,1,3.4-1.457,3.842,3.842,0,0,1,2.855,2.151,7.287,7.287,0,0,1,.49,2.448c.356,4.311.324,14.545-5.418,16.018-2.413.619-4.409-1.1-5.053-3.262C682.392,656.217,683.829,647.173,687.09,643.584Z" transform="translate(-683.064 -642.087)" fill="#2a313f"/>
            </g>
            <g id="Group_20" data-name="Group 20" transform="translate(1.983)">
              <path id="Path_25" data-name="Path 25" d="M686.106,544.638l.3,26.293c-.349,11.678,1.474,23.422,1.125,35.1-.081,2.685-.78,5.518-.1,8.18.662,2.6,2.777,3.064,4.949,1.745,2.91-1.766,2.441-5.892,2.925-8.9,1.331-8.27,2.893-16.5,4.283-24.762.682-4.05-.723-9.725-.418-13.823l4.248-22.035Z" transform="translate(-686.106 -544.638)" fill="#efc4b1"/>
            </g>
          </g>
          <g id="Group_22" data-name="Group 22" transform="translate(87.114 149.149)">
            <path id="Path_26" data-name="Path 26" d="M712.457,460.339l-11.443,50.832-2.431,48-18.145-.407L675.5,424.494l35.175.639Z" transform="translate(-675.504 -424.494)" fill="#3b455a"/>
          </g>
          <g id="Group_27" data-name="Group 27" transform="translate(55.24 150.125)">
            <g id="Group_25" data-name="Group 25" transform="translate(7.064 81.043)">
              <g id="Group_23" data-name="Group 23" transform="translate(3.218 59.05)">
                <path id="Path_27" data-name="Path 27" d="M646.978,642.206a3.687,3.687,0,0,1,3.45-1.258,3.923,3.923,0,0,1,2.754,2.321,7.407,7.407,0,0,1,.383,2.479c.171,4.335-.3,14.576-6.085,15.712-2.432.477-4.348-1.357-4.9-3.563C641.756,654.572,643.575,645.606,646.978,642.206Z" transform="translate(-642.385 -640.874)" fill="#2a313f"/>
              </g>
              <g id="Group_24" data-name="Group 24">
                <path id="Path_28" data-name="Path 28" d="M654.824,550.3l-1.54,26.25c-.126,7.295-1.1,14.533-1.853,21.778-.7,6.731.39,13.741-3.127,19.862-1.1,1.919-3.333,3.2-4.89.865-1.2-1.8-.488-4.8-.718-6.834-.94-8.323-2.112-16.618-3.111-24.934-.49-4.077,1.181-9.681,1.068-13.789l-3.2-22.208Z" transform="translate(-637.449 -550.299)" fill="#efc4b1"/>
              </g>
            </g>
            <g id="Group_26" data-name="Group 26">
              <path id="Path_29" data-name="Path 29" d="M628.091,457.752,626.614,507.1l7.744,49.9,18.457.552-.815-54,9.767-44.784,3.279-29.314-29.287-3.454Z" transform="translate(-626.614 -425.991)" fill="#3b455a"/>
            </g>
          </g>
          <g id="Group_28" data-name="Group 28" transform="translate(62.254 48.388)">
            <path id="Path_30" data-name="Path 30" d="M655,270.694l31.552-.753,18.294,34.022-6.5,31.867-1.158,38.136-45.008.614-14.809-2.4,3.932-40.747L639.05,277Z" transform="translate(-637.372 -269.94)" fill="#d7e8f4"/>
          </g>
          <g id="Group_29" data-name="Group 29" transform="translate(0 56.966)">
            <path id="Path_31" data-name="Path 31" d="M616.8,297.689l-11.393,34.925-17,6.1-46.518-12.534,6.254-9.67,40.912,1.331L605.878,283.1Z" transform="translate(-541.884 -283.098)" fill="#d7e8f4"/>
          </g>
          <g id="Group_34" data-name="Group 34" transform="translate(60.977)">
            <g id="Group_30" data-name="Group 30" transform="translate(19 14.461)">
              <path id="Path_32" data-name="Path 32" d="M666.441,226.146c4.757-13.829,23.013-8.646,26.776,3.667,2.455,8.032-3.748,18.455-12.07,20.762a8.059,8.059,0,0,0-.065.862,27.037,27.037,0,0,1-.356,3.849c-.071.48-7.355-.919-8.167-1.08a1.1,1.1,0,0,1-.754-.371c-.293-.458.184-1.8.237-2.312q.095-.9.189-1.8c-4.105-2-6.7-6.272-7.419-10.616C664.085,234.741,665.012,230.3,666.441,226.146Z" transform="translate(-664.558 -217.902)" fill="#efc4b1"/>
            </g>
            <g id="Group_33" data-name="Group 33">
              <g id="Group_31" data-name="Group 31" transform="translate(0 8.249)">
                <path id="Path_33" data-name="Path 33" d="M668.208,210.334a7.245,7.245,0,0,1,1.646,3.712,5.8,5.8,0,0,1,.143,2.4c-.678,3.139-3.792,2.975-6.2,3.987a16.059,16.059,0,0,0-7.193,6.191c-2.6,4.143-1.432,9.474-.376,14.044.372,1.61,1.121,4-.128,5.441-1.269,1.46-4.2,1.234-5.723.483-1.389-.686-2.53-1.955-4.055-2.211-1.614-.271-3.8.439-4.547-1.042a10.072,10.072,0,0,0-.492-1.293c-.892-1.275-3.11.218-4.367-.681a2.454,2.454,0,0,1-.506-2.664,6.343,6.343,0,0,0,.519-2.826,9.34,9.34,0,0,0-1.108-2.2,4.338,4.338,0,0,1,.6-4.611c1.988-2.3,5.834-1.864,7.964-4.027a9.366,9.366,0,0,0,1.953-4.292,8.23,8.23,0,0,1,2.1-4.2c1.465-1.288,3.581-1.069,5.026-2.6a29.656,29.656,0,0,1,2.369-2.847,19.1,19.1,0,0,1,5.275-2.346A6.86,6.86,0,0,1,668.208,210.334Z" transform="translate(-635.414 -208.373)" fill="#2e3644"/>
              </g>
              <g id="Group_32" data-name="Group 32" transform="translate(24.805)">
                <path id="Path_34" data-name="Path 34" d="M693,228c.085,4.552-2.176,9.472-.079,13.479,2.116,4.043,7.391,4.772,11.886,4.983.739.035,10.228.854,10.268.675.711-3.17,1.445-6.4,3.1-9.188s4.427-5.09,7.6-5.288a1.951,1.951,0,0,1-1.271-2.224,14.98,14.98,0,0,1,.878-2.7,6.373,6.373,0,0,0-1.664-6.4c-3.356-3.128-9.441-1.829-12.318-5.422-1.784-2.228-1.572-5.459-2.507-8.179-1.807-5.259-7.565-6.36-11.869-8.735-4.543-2.507-8.82-3.881-14.064-3.007-6.5,1.084-11.332,7.7-8.825,13.928,3.215,7.988,16.069,7.3,18.476,15.408A10,10,0,0,1,693,228Z" transform="translate(-673.461 -195.721)" fill="#2e3644"/>
              </g>
            </g>
          </g>
        </g>
        <g id="Group_36" data-name="Group 36" transform="translate(80.044 48.388)">
          <path id="Path_35" data-name="Path 35" d="M686.719,270.513l-9.788,13.834-4.6-.377-7.669-14.03Z" transform="translate(-664.66 -269.94)" fill="#e3e3e4"/>
        </g>
      </g>
      <g id="Group_42" data-name="Group 42" transform="translate(152.073 24.099)">
        <path id="Path_36" data-name="Path 36" d="M309.694,651.651l-.718,5.586,10.454,7.023,6.3-4.868-4.868-6.3-10.454-7.023Z" transform="translate(-287.586 -350.796)" fill="#2a313f"/>
        <g id="Group_38" data-name="Group 38" transform="translate(20.116 129.366)">
          <path id="Path_37" data-name="Path 37" d="M308.661,561.207l8.062-71.244-9.7-79.758,2.181-16.966,43.328-1.646,1.563,27.614-7.273,70.865-27.365,74.776Z" transform="translate(-307.023 -391.593)" fill="#3b455a"/>
        </g>
        <g id="Group_39" data-name="Group 39" transform="translate(53.517 130.438)">
          <path id="Path_38" data-name="Path 38" d="M402.155,400.149l.114,71.895L387.8,564.6l-10.416-.1L371.656,478.9l-13.4-85.666Z" transform="translate(-358.256 -393.237)" fill="#3b455a"/>
          <path id="Path_39" data-name="Path 39" d="M387.617,659.649l11.208,5.744,5.688-5.576-5.576-5.688-11.264-.112Z" transform="translate(-368.475 -484.001)" fill="#2a313f"/>
        </g>
        <g id="Group_40" data-name="Group 40" transform="translate(15.563 50.061)">
          <path id="Path_40" data-name="Path 40" d="M300.108,381.691c.1-3.115.273-5.716.3-6.643.223-8.358.968-16.7,2.014-25,.938-7.436,2.121-25.9,3.393-33.287,1.051-6.1,4.712-21.333,7.358-26.993,6.579-14.075,4.546-15.376,33.446-19.555,12.665-1.832,15.659,6.062,26.014,15.139,1.021.9.965,6.226,1.2,7.637.417,2.486.864,4.967,1.377,7.437.4,1.941.847,3.876,1.346,5.8h0S385.248,345.789,391,354.19s17.625,20.147-2.241,27.319a71.044,71.044,0,0,1-10.728,2.8s-16.247-1.805-24.6-1.743a141.934,141.934,0,0,0-22.988,2.14,49.471,49.471,0,0,0-14.747,4.439c-4.318,2.255-7.434,5.573-11.815,7.908a2.285,2.285,0,0,1-1.341.385C300.017,397.09,299.9,388.249,300.108,381.691Z" transform="translate(-300.038 -269.951)" fill="#4483d0"/>
        </g>
        <g id="Group_41" data-name="Group 41" transform="translate(34.811)">
          <path id="Path_41" data-name="Path 41" d="M363.259,257.947c-1.458.72-4.9.979-8.49-.428a1.877,1.877,0,0,1-1.2-1.758,48.69,48.69,0,0,1,.525-6.517c-2.693-.947-5.8-2.367-6.273-5.182a8.04,8.04,0,0,1,.158-2.679q.95-5.493,1.9-10.987a9.832,9.832,0,0,1,1.14-3.656c1.209-1.9,3.555-2.738,5.778-3.123,5.671-.984,11.851.244,16.249,3.959a8.791,8.791,0,0,1,2.744,3.62c.8,2.224.2,4.677-.4,6.962q-.831,3.164-1.661,6.327c-.637,2.425-1.556,5.182-3.893,6.092-1.241.483-2.706.342-3.829,1.056C364.022,252.892,364.29,255.837,363.259,257.947Z" transform="translate(-335.896 -203.65)" fill="#f4d0c1"/>
          <path id="Path_42" data-name="Path 42" d="M389.658,210.937a23.7,23.7,0,0,1,1.829-2.625c1.454-1.793,3.246-3.33,4.416-5.32s1.582-4.688.177-6.52a7.15,7.15,0,0,0-3.805-2.194,27.668,27.668,0,0,0-14.55-.269c-4.531,1.154-8.587,3.064-13.148,1.361-4.286-1.6-7.381-.949-11.861.649-4.847,1.73-11.355,2.138-15.743,4.579a12.947,12.947,0,0,0-4.434,4.373,19.5,19.5,0,0,0-.053,20.625,27.813,27.813,0,0,0,3.035,3.826c2.287,2.48,5.023,5.544,8.168,6.463.075-2.814-2.489-11.688-.327-13.995,3.43-3.661,11.185-2.384,15.44-1.483,4.641.983,8.778,4.27,13.379,4.972,3.311.505,7.537-1.119,10.352-2.83C386.007,220.436,387.624,214.276,389.658,210.937Z" transform="translate(-329.563 -193.165)" fill="#2e3644"/>
        </g>
        <path id="Path_43" data-name="Path 43" d="M314.316,278.657l-18.032,15.8-20.116,42.273,25.408,30.227,4.371-16.9Z" transform="translate(-276.168 -222.92)" fill="#4483d0"/>
      </g>
      <g id="Group_47" data-name="Group 47" transform="translate(22.455 35.051)">
        <g id="Group_43" data-name="Group 43" transform="translate(10.089 153.679)">
          <path id="Path_44" data-name="Path 44" d="M133.357,458.024l-40.53-12.34,12.141,69.08-1.326,60.27-.1.407.1.005,0,.131,7.874.3v-.008l.293.016,14.443-54.452,6.015-57.469h0Z" transform="translate(-92.827 -445.685)" fill="#4483d0"/>
          <path id="Path_45" data-name="Path 45" d="M115.846,649.614l-8.134.257-1.684,6.971.208.049-.052.009,13.88,7.192,6.425.346.4-7.343-1.8-1.165Z" transform="translate(-97.422 -516.662)" fill="#2a313f"/>
        </g>
        <g id="Group_44" data-name="Group 44" transform="translate(40.005 159.014)">
          <path id="Path_46" data-name="Path 46" d="M180.572,460.411l-5.137,119.754-7.838.8-11.554-63.847-17.33-63.254Z" transform="translate(-138.714 -453.868)" fill="#4483d0"/>
          <path id="Path_47" data-name="Path 47" d="M190.6,651.832l10.744,5.309-.7,4.967-18.757-1.745.691-7.138Z" transform="translate(-153.742 -522.769)" fill="#2a313f"/>
        </g>
        <g id="Group_45" data-name="Group 45" transform="translate(0 29.279)">
          <path id="Path_48" data-name="Path 48" d="M77.438,413.1c-1.409-20.18,14.822-84.936,14.822-84.936h0a114.129,114.129,0,0,0,3.718-18.453c.5-4.4,12.223-54.581,11.35-54.62,9.065.406,26.447-2.226,33.329,4.01q.3.267.564.557c5.392,5.81,8.447,17.8,11.126,25.15a199.392,199.392,0,0,1,8.283,29.681c1.739,8.822,2.875,17.749,3.753,26.693.754,7.689.544,15.363,1.021,22.934.527,8.381,3.3,17.406,5.408,25.516a142.21,142.21,0,0,0,8.291,23.89c-8.87,4.229-18.843,5.585-28.664,5.9s-19.656-.356-29.473.072c-8.3.362-16.681,1.5-24.865.069-6.508-1.142-12.562-3.854-18.662-6.463Z" transform="translate(-77.351 -254.873)" fill="#bcbec0"/>
        </g>
        <g id="Group_46" data-name="Group 46" transform="translate(41.819)">
          <path id="Path_49" data-name="Path 49" d="M169.918,217.458c4.186,1.923,8.638,7.06,8.511,11.963-.061,2.361-1.314,4.229-1.279,6.758.05,4.987-7.36,10.418-2.6,15.095,2.447,2.4,6.177,2.783,9.6,3.029a2.518,2.518,0,0,0,1.228-.116,1.77,1.77,0,0,0,.876-1.724,7.187,7.187,0,0,0-.542-1.973c-2.363-6.761.69-14.81.88-21.772s-1.663-14.392-7.479-18.753c-3.781,1.271-6.578,2.962-8.353,6.534Z" transform="translate(-151.388 -209.963)" fill="#2e3644"/>
          <path id="Path_50" data-name="Path 50" d="M158.3,248.206c4.686-.725,8.586-4.309,10.658-8.574s2.543-9.138,2.432-13.879c-.371-15.777-19.92-16.29-27.449-4.808C137.376,230.952,144.67,250.315,158.3,248.206Z" transform="translate(-141.496 -211.03)" fill="#f4d0c1"/>
        </g>
      </g>
      <g id="Group_50" data-name="Group 50" transform="translate(457.891 131.466)">
        <rect id="Rectangle_6" data-name="Rectangle 6" width="155.326" height="100.229" transform="translate(4.103 33.936)" fill="#fff"/>
        <g id="Group_48" data-name="Group 48">
          <path id="Path_51" data-name="Path 51" d="M883.987,357.851H770.042l-24.793,29.208H908.78Z" transform="translate(-745.249 -357.851)" fill="#fff"/>
          <rect id="Rectangle_7" data-name="Rectangle 7" width="163.532" height="10.529" transform="translate(0 29.208)" fill="#cccdce"/>
          <path id="Path_52" data-name="Path 52" d="M821.435,373l-4.015,4.729h65.018L878.424,373Z" transform="translate(-770.368 -363.122)" fill="#9d9d9e"/>
        </g>
        <path id="Path_53" data-name="Path 53" d="M751.542,418.8l155.326,14.478V418.8Z" transform="translate(-747.439 -379.064)" fill="#eaeaea"/>
        <path id="Path_54" data-name="Path 54" d="M767.277,455.407l131.406-4.07-2.919,4.07,5.157,4.911-4.236,7.28,4.236,4.139L897.79,474.5l6.243,10.314-9.006,7.426,4.42,4.564L768.5,500.469l2.763-5.018h-3.982l4.167-11.189-6.815-5.379,4.052-5.6-1.658-2.868,3.315-4.952-5.709-6.8Z" transform="translate(-751.994 -390.389)" fill="#f7f7f7"/>
        <g id="Group_49" data-name="Group 49" transform="translate(23.41 68.971)">
          <path id="Path_55" data-name="Path 55" d="M800.457,482.671c-.761-8.324-8.6-18.126-17.759-15.754a1.675,1.675,0,0,0-1.238,1.1,1.893,1.893,0,0,0-.246,1.5q3.2,13.77,5.36,27.744a2.112,2.112,0,0,0,2.1,1.779c2.938.977,6.808-2.868,8.367-4.854A16.384,16.384,0,0,0,800.457,482.671Zm-5.349,7.462a12.32,12.32,0,0,1-2.271,2.967,10.634,10.634,0,0,1-2.132,1.594c-.244.073-.45.14-.635.2q-1.962-12.324-4.708-24.5c5.888-.195,10.681,7.119,11.229,12.358A12.553,12.553,0,0,1,795.108,490.133Z" transform="translate(-781.157 -464.656)" fill="#3b455a"/>
          <path id="Path_56" data-name="Path 56" d="M825.378,469.708a7.158,7.158,0,0,0-8.024,2.632c-3.307,4.207-3.339,10.593-2.157,15.56,1.142,4.8,4.139,10.5,9.6,11.135,7.859.914,8.794-7.586,8.865-13.431a25.461,25.461,0,0,0-1.744-9.721A10.647,10.647,0,0,0,825.378,469.708Zm-.653,25.3c-9.114-2.254-7.938-25.843,1.322-21.089,3.034,1.557,3.547,6.8,3.727,9.781C829.99,487.286,830.23,496.368,824.726,495.007Z" transform="translate(-792.758 -465.634)" fill="#3b455a"/>
          <path id="Path_57" data-name="Path 57" d="M862.621,469.755q-.028.351-.055.7a1.87,1.87,0,0,0,.061.645l.058,13.284q-.816-1.829-1.711-3.633c-2.15-4.357-4.218-8.935-7.628-12.466a1.954,1.954,0,0,0-3.268,1.443q.161,12.981.844,25.945c.131,2.481,4,2.4,3.866-.089q-.524-9.951-.739-19.911c1.353,2.3,2.481,4.777,3.633,7.106a60.535,60.535,0,0,1,5.137,14.031c.472,2.183,3.794,1.518,3.785-.6q-.058-13.272-.116-26.546C866.476,467.131,862.814,467.324,862.621,469.755Z" transform="translate(-805.145 -465.072)" fill="#3b455a"/>
          <path id="Path_58" data-name="Path 58" d="M899.063,492.08q-3.347-13.114-7.959-25.836a1.951,1.951,0,0,0-3.728.086,156.2,156.2,0,0,0-5.918,27.4c-.3,2.442,3.447,3.406,3.752.941q.578-4.676,1.44-9.289a58.261,58.261,0,0,1,6.486-.325c.778,2.7,1.527,5.407,2.222,8.132C895.973,495.6,899.678,494.492,899.063,492.08Zm-11.631-10.643q.884-4.162,1.992-8.277c.9,2.666,1.749,5.349,2.568,8.04Q889.707,481.228,887.432,481.437Z" transform="translate(-816.06 -464.084)" fill="#3b455a"/>
          <path id="Path_59" data-name="Path 59" d="M919.973,463.665q-8.488,1.237-16.859,3.088c-2.427.54-1.309,4.243,1.114,3.7q3.569-.794,7.16-1.468.2,11.755,1.024,23.483c.176,2.474,4.043,2.4,3.866-.089q-.853-12.028-1.037-24.084c1.6-.273,3.21-.533,4.821-.767C922.494,467.178,922.435,463.307,919.973,463.665Z" transform="translate(-823.132 -463.642)" fill="#3b455a"/>
          <path id="Path_60" data-name="Path 60" d="M950.126,490.592l-9.165.4-.185-8.489a39.626,39.626,0,0,1,4.53.026,1.949,1.949,0,0,0,1.888-1.978,1.973,1.973,0,0,0-1.977-1.888,39.692,39.692,0,0,0-4.525-.026l-.237-10.845c2.67.036,5.338.124,8,.3,2.483.165,2.378-3.7-.091-3.866q-3.939-.261-7.888-.317c-3.421-.049-3.937,1.849-3.871,4.835l.179,8.174q.169,7.764.339,15.527l.006.248c.024,1.134.454,2.316,1.88,2.254l11.205-.493C952.7,494.349,952.618,490.482,950.126,490.592Z" transform="translate(-835.259 -463.736)" fill="#3b455a"/>
        </g>
      </g>
      <path id="Path_61" data-name="Path 61" d="M785.661,387.919l.306,5.252,6.516,7.652,3.926-3.937-3.127-6.953,1.572-2.549-2.6-2.831Z" transform="translate(-301.423 -235.678)" fill="#c1755d"/>
      <path id="Path_62" data-name="Path 62" d="M810.787,267.483l-10.554,3.212-38.544,40.38L759.4,324.381l18.426,30.424,4.976-11.152L775,321.169l12.389-8.718L803.9,275.284Z" transform="translate(-292.281 -194.932)" fill="#4483d0"/>
      <g id="Group_55" data-name="Group 55" transform="translate(179.897 59.04)">
        <g id="Group_54" data-name="Group 54" transform="translate(29.835)">
          <g id="Group_53" data-name="Group 53">
            <g id="Group_51" data-name="Group 51">
              <path id="Path_63" data-name="Path 63" d="M514.346,258.349c-16.957-3.583-39.7,2.983-46.729,17.2-3.262-15.513-28.394-27.982-45.711-28.729-45.7-1.972-67.5,47.321-52.7,84.193,7.969,19.845,20.744,37.93,35.078,54.531,12,13.9,43.674,44.17,43.791,44.1.1.1,38.321-21.337,53.416-31.815,18.026-12.512,34.911-26.85,47.583-44.087C572.621,321.708,559.1,267.805,514.346,258.349Z" transform="translate(-364.609 -246.759)" fill="#ff6a2b"/>
            </g>
            <g id="Group_52" data-name="Group 52" transform="translate(55.96 88.442)" opacity="0.12" style="mix-blend-mode: multiply;isolation: isolate">
              <path id="Path_64" data-name="Path 64" d="M568.727,403.306a249.891,249.891,0,0,1-43.3,33.1c-15.069,9.049-32.315,16.413-50.383,17.318a61.515,61.515,0,0,1-24.6-3.655c12.991,13.131,27.2,26.673,27.282,26.623.1.1,38.321-21.336,53.415-31.814,18.026-12.512,34.912-26.85,47.583-44.088a57.971,57.971,0,0,0,8.955-18.373A182.611,182.611,0,0,1,568.727,403.306Z" transform="translate(-450.443 -382.417)" fill="#000100"/>
            </g>
          </g>
        </g>
        <path id="Path_65" data-name="Path 65" d="M613.368,432.824a9.454,9.454,0,0,0-18.774-2.245v.01L583.443,470.1A35.061,35.061,0,0,1,565.9,491.676l-31.381,16.346,23.055-27.058a8.692,8.692,0,0,0,1.042-1.222l.011-.013h0a8.682,8.682,0,0,0-11.979-12.165l0-.005L515.4,489.87a59.133,59.133,0,0,0-24.331,40.98L488.838,549.2a22.665,22.665,0,0,0,36.247,20.734l64.168-41.176a34.1,34.1,0,0,0,15.437-24.586l8.679-71.343Z" transform="translate(-377.953 -307.844)" fill="#fff"/>
        <path id="Path_66" data-name="Path 66" d="M327.777,391.782a9.453,9.453,0,0,1,18.764,2.322l0,.01,1.352,41.033A35.065,35.065,0,0,0,359.753,460.3L386.3,483.692l-15.895-31.8a8.647,8.647,0,0,1-.718-1.437l-.008-.015h0a8.682,8.682,0,0,1,14.547-8.938l.006,0,24.975,29.151a59.139,59.139,0,0,1,13.8,45.618l-2.232,18.347a22.665,22.665,0,0,1-40.161,11.438l-52.425-55.36a34.1,34.1,0,0,1-9.092-27.569l8.679-71.343Z" transform="translate(-318.846 -294.354)" fill="#fff"/>
      </g>
      <g id="Group_58" data-name="Group 58" transform="translate(402.761 81.304)">
        <g id="Group_56" data-name="Group 56" transform="translate(0 103.249)">
          <path id="Path_67" data-name="Path 67" d="M669.635,439.278l4.633,2.624-1.969,9.8-6.32,2.488-5.292-3.221,2.471-4.615-1.078-.849-.049-2.034Z" transform="translate(-660.686 -439.278)" fill="#e4d2b8"/>
        </g>
        <g id="Group_57" data-name="Group 57" transform="translate(7.333)">
          <path id="Path_68" data-name="Path 68" d="M699.936,280.909l10.809,18.249-.5,44.916L682.03,388.938l-10.1-5.206,22.23-39.667-4.075-30.88Z" transform="translate(-671.934 -280.909)" fill="#d7e8f4"/>
        </g>
      </g>
      <path id="Path_69" data-name="Path 69" d="M877.635,249.81l27.188-9.781,17.066-40.4,9.4.61-11.138,44.413-9.879,11.243L876.76,272.7Z" transform="translate(-333.129 -171.314)" fill="#2b292a"/>
      <path id="Path_70" data-name="Path 70" d="M952.95,192.577l2.423-4.67L953.687,178l-5.387,1.375-.87,7.574-2.655,1.386.786,3.762Z" transform="translate(-356.802 -163.788)" fill="#c1755d"/>
      <g id="Group_68" data-name="Group 68" transform="translate(516.068)">
        <g id="Group_60" data-name="Group 60" transform="translate(0)">
          <g id="Group_59" data-name="Group 59" transform="translate(0)">
            <circle id="Ellipse_1" data-name="Ellipse 1" cx="54.592" cy="54.592" r="54.592" transform="translate(0 77.205) rotate(-45)" fill="#bcbec0"/>
          </g>
        </g>
        <g id="Group_62" data-name="Group 62" transform="translate(11.682 11.682)">
          <g id="Group_61" data-name="Group 61" transform="translate(0)">
            <circle id="Ellipse_2" data-name="Ellipse 2" cx="46.331" cy="46.331" r="46.331" transform="translate(0 65.523) rotate(-45)" fill="#cccdce"/>
          </g>
        </g>
        <g id="Group_64" data-name="Group 64" transform="translate(38.205 37.619)">
          <g id="Group_63" data-name="Group 63">
            <path id="Path_71" data-name="Path 71" d="M956.255,213.9a46.338,46.338,0,0,1-63.171,64.555A46.335,46.335,0,1,0,956.255,213.9Z" transform="translate(-893.084 -213.902)" fill="#9d9d9e"/>
          </g>
        </g>
        <g id="Group_66" data-name="Group 66" transform="translate(35.944 35.999)">
          <g id="Group_65" data-name="Group 65">
            <path id="Path_72" data-name="Path 72" d="M892.668,256.928a40.9,40.9,0,0,1,73.276-25.058A40.9,40.9,0,1,0,898.138,277.3,40.712,40.712,0,0,1,892.668,256.928Z" transform="translate(-889.616 -211.417)" fill="#f7f7f7"/>
          </g>
        </g>
      </g>
      <g id="Group_86" data-name="Group 86" transform="translate(20.505 96.6)">
        <g id="Group_69" data-name="Group 69">
          <path id="Path_74" data-name="Path 74" d="M223.583,388.049a25.14,25.14,0,0,0-13.8-13.294q.052-1.332.052-2.647a67.688,67.688,0,1,0-41.368,62.411q.547-.231,1.1-.48l3.066,2.427c2.972,2.354,5.918,4.6,7.409,5.729,1.042.789,1.923,1.449,2.547,1.912.433.321.806.6,1.159.826a4.485,4.485,0,0,0,2.58.819h.021a5.276,5.276,0,0,0,.787-.048h.365l.272-.165a16.82,16.82,0,0,0,3.307-2.167c.4-.3,1-.735,1.735-1.284l.7-.521c.742-.554,1.589-1.19,2.505-1.882,3.479-2.631,8.189-6.27,10.876-8.664,7.15-6.37,12.354-12.536,15.908-18.849A26.838,26.838,0,0,0,223.583,388.049Z" transform="translate(-74.36 -304.37)" fill="#fff"/>
        </g>
        <g id="Group_85" data-name="Group 85" transform="translate(4.974 4.476)">
          <g id="Group_80" data-name="Group 80">
            <g id="Group_79" data-name="Group 79">
              <g id="Group_78" data-name="Group 78">
                <g id="Group_77" data-name="Group 77">
                  <g id="Group_72" data-name="Group 72">
                    <g id="Group_70" data-name="Group 70">
                      <path id="Path_75" data-name="Path 75" d="M145.251,437.759a63.069,63.069,0,1,1,24.626-4.972A62.873,62.873,0,0,1,145.251,437.759Zm0-120.157a56.894,56.894,0,1,0,40.231,16.664A56.521,56.521,0,0,0,145.251,317.6Z" transform="translate(-81.99 -311.235)" fill="#587bc9"/>
                    </g>
                    <g id="Group_71" data-name="Group 71" transform="translate(60.078 3.183)">
                      <rect id="Rectangle_8" data-name="Rectangle 8" width="6.367" height="120.157" fill="#587bc9"/>
                    </g>
                  </g>
                  <g id="Group_73" data-name="Group 73" transform="translate(6.688 40.44)">
                    <rect id="Rectangle_9" data-name="Rectangle 9" width="114.157" height="6.367" fill="#587bc9"/>
                  </g>
                  <g id="Group_74" data-name="Group 74" transform="translate(4.81 76.898)">
                    <rect id="Rectangle_10" data-name="Rectangle 10" width="116.143" height="6.367" fill="#587bc9"/>
                  </g>
                  <g id="Group_75" data-name="Group 75" transform="translate(26.147 0.518)">
                    <path id="Path_76" data-name="Path 76" d="M156.4,437.374a87.358,87.358,0,0,1-17.166-16.985,85.054,85.054,0,0,1-11.759-20.22,72.66,72.66,0,0,1-5.378-27.346,68.14,68.14,0,0,1,5.4-26.787,76.74,76.74,0,0,1,29.13-34.006l3.18,5.516a68.966,68.966,0,0,0-15.788,13.86A66.765,66.765,0,0,0,133.3,348.655a61.826,61.826,0,0,0-4.837,24.168,66.32,66.32,0,0,0,4.914,24.96,78.7,78.7,0,0,0,10.885,18.7,81.919,81.919,0,0,0,15.771,15.662Z" transform="translate(-122.096 -312.029)" fill="#587bc9"/>
                  </g>
                  <g id="Group_76" data-name="Group 76" transform="translate(63.279 0.518)">
                    <path id="Path_77" data-name="Path 77" d="M182.686,437.374l-3.635-5.227a82.692,82.692,0,0,0,15.9-15.828,78.581,78.581,0,0,0,10.8-18.654,66.311,66.311,0,0,0,4.867-24.842,61.8,61.8,0,0,0-4.894-24.3,66.889,66.889,0,0,0-10.811-17.295,68.215,68.215,0,0,0-15.639-13.684l3.179-5.516a76.736,76.736,0,0,1,29.131,34.006,68.141,68.141,0,0,1,5.4,26.787,72.649,72.649,0,0,1-5.379,27.346,85.052,85.052,0,0,1-11.759,20.22A87.331,87.331,0,0,1,182.686,437.374Z" transform="translate(-179.051 -312.029)" fill="#587bc9"/>
                  </g>
                </g>
              </g>
            </g>
          </g>
          <g id="Group_84" data-name="Group 84" transform="translate(72.388 68.623)">
            <g id="Group_83" data-name="Group 83">
              <g id="Group_81" data-name="Group 81">
                <path id="Path_78" data-name="Path 78" d="M244.262,416.64c-6.174-.54-13.962,2.773-15.844,8.121-1.827-5.366-11.287-8.706-17.466-8.223-16.306,1.273-21.916,19.711-15.069,32.16,3.685,6.7,9,12.567,14.806,17.841,4.861,4.416,17.409,13.793,17.448,13.761.038.032,12.68-9.228,17.586-13.6,5.858-5.22,11.232-11.038,14.986-17.7C267.682,436.613,260.554,418.065,244.262,416.64Z" transform="translate(-193.023 -416.492)" fill="#ff6a2b"/>
              </g>
              <g id="Group_82" data-name="Group 82" transform="translate(24.192 25.55)" opacity="0.12" style="mix-blend-mode: multiply;isolation: isolate">
                <path id="Path_79" data-name="Path 79" d="M270.1,463.915a89.33,89.33,0,0,1-13.941,13.619c-4.958,3.862-10.761,7.221-17.136,8.323a22.012,22.012,0,0,1-8.888-.235c5.178,4.1,10.807,8.293,10.833,8.271.038.032,12.68-9.228,17.586-13.6,5.858-5.22,11.232-11.038,14.985-17.7a20.736,20.736,0,0,0,2.386-6.909A65.277,65.277,0,0,1,270.1,463.915Z" transform="translate(-230.13 -455.682)" fill="#000100"/>
              </g>
            </g>
          </g>
        </g>
      </g>
      <g id="Group_88" data-name="Group 88" transform="translate(0 70.078)">
        <g id="Group_87" data-name="Group 87" transform="translate(23.31 102.107)">
          <path id="Path_80" data-name="Path 80" d="M80.288,428.758c.59,2.332,4.665,7.236,7.232,7.611,5.924.865,1.277-5.525.167-8.1a15.36,15.36,0,0,0,2.959-.5c.876-.279-4.757-6.839-5.884-7.2-2.7-.871-3.771.587-6.1,1.851C79.253,424.514,79.754,426.644,80.288,428.758Z" transform="translate(-78.663 -420.306)" fill="#f4d0c1"/>
        </g>
        <path id="Path_81" data-name="Path 81" d="M94.489,263.689,42.909,329.06l22.479,41.634,10.405-2.813L64.66,332.812l14.2-18.293L107.183,292.5Z" transform="translate(-42.909 -263.689)" fill="#bcbec0"/>
      </g>
      <path id="Path_82" data-name="Path 82" d="M115.942,245.662c2.4-.759,4.782-1.588,6.6-3.687,2.938-3.394,3.667-9.65,4.98-13.812,1.381-4.388,3.028-9.132,6.911-11.6,2.535-1.611,5.135-1.566,7.976-1.139,1.945.292,1.9,1.038,3.71.271,1.391-.588,2.862-2.791,3.385-4.136a8.165,8.165,0,0,0-.9-6.993,11.442,11.442,0,0,0-8.1-5.768c-12.592-2.39-23.33,3.519-28.955,15.271-2.7,5.649-2.539,12.468-5.321,17.875-1.717,3.338-4.369,5.31-5.912,8.912-4,9.347-11.468,20.909-12.742,31.052a1.433,1.433,0,0,0,.166,1.09c.484.6,1.439.128,2.031-.366l10.365-8.639a19.02,19.02,0,0,0,3.725-3.743c2.472-3.638,2.385-8.891,5.763-11.707C111.468,247.007,113.715,246.365,115.942,245.662Z" transform="translate(-58.444 -170.844)" fill="#2e3644"/>
      <path id="Path_83" data-name="Path 83" d="M326.515,411.8l9.24,5.3,2.437-3.85-5.524-5.03,2-1.286-8.459-3.571-3.073,3.661Z" transform="translate(-140.44 -242.226)" fill="#f4d0c1"/>
    </g>
  </g>
</svg>
