<svg xmlns="http://www.w3.org/2000/svg" width="112" height="112" viewBox="0 0 112 112">
  <g id="Group_232" data-name="Group 232" transform="translate(-684 -15055)">
    <circle id="Ellipse_4" data-name="Ellipse 4" cx="56" cy="56" r="56" transform="translate(684 15055)" fill="#2b6bb8"/>
    <path id="icons8-hide" d="M2.529.293.434,2.388,41.91,43.863,44,41.769l-8.925-8.925a30.2,30.2,0,0,0,9.1-9.929,1.482,1.482,0,0,0-.064-1.756c-.154-.248-8.688-13.893-21.9-13.893A20.848,20.848,0,0,0,12.2,9.962ZM22.219,11.709a10.337,10.337,0,0,1,8.286,16.56l-3.191-3.191a5.838,5.838,0,0,0,.83-3,5.925,5.925,0,0,0-5.925-5.925,5.838,5.838,0,0,0-3,.83l-3.191-3.191A10.269,10.269,0,0,1,22.219,11.709ZM7.334,13.3a37.14,37.14,0,0,0-7.01,7.852,1.476,1.476,0,0,0-.078,1.739c.025.053,7.188,14,21.973,14a22.26,22.26,0,0,0,7.435-1.264L25.821,31.79A10.344,10.344,0,0,1,12.507,18.476Zm8.977,8.94a5.908,5.908,0,0,0,5.74,5.743Z" transform="translate(716.781 15089.629)" fill="#fff"/>
  </g>
</svg>
