<svg xmlns="http://www.w3.org/2000/svg" width="112" height="112" viewBox="0 0 112 112">
  <g id="Group_216" data-name="Group 216" transform="translate(-813 -9654)">
    <circle id="Ellipse_4" data-name="Ellipse 4" cx="56" cy="56" r="56" transform="translate(813 9654)" fill="#2b6bb8"/>
    <path id="icons8-spyware" d="M2.423.293.416,2.3,40.155,42.039l2.007-2.007-8.6-8.6c4.632-2.453,9.012-8.647,9.012-13.109a2.838,2.838,0,0,0-2.839-2.839H17.619Zm.416,15.2A2.838,2.838,0,0,0,0,18.328C0,24,7.1,32.52,12.773,32.52s5.677-2.839,8.516-2.839c2.044,0,2.626,1.469,4.906,2.292l-8.028-8.028a4.838,4.838,0,0,1-4.482,2.9,7.255,7.255,0,0,1-6.589-7.1l9.161,2.29L9.71,15.489Zm32.643,4.255a7.254,7.254,0,0,1-6.52,7.088L24.6,22.466Z" transform="translate(847.711 9687.834)" fill="#fff"/>
  </g>
</svg>
