<svg xmlns="http://www.w3.org/2000/svg" width="112" height="112" viewBox="0 0 112 112">
  <g id="Group_210" data-name="Group 210" transform="translate(-804 -7147)">
    <circle id="Ellipse_4" data-name="Ellipse 4" cx="56" cy="56" r="56" transform="translate(804 7147)" fill="#2b6bb8"/>
    <path id="icons8-compare_git" d="M10.762,3A7.743,7.743,0,0,0,8.822,18.244V37.93a5.851,5.851,0,0,0,5.822,5.822h3.881v5.822l9.7-7.762-9.7-7.762V39.87H14.643A1.91,1.91,0,0,1,12.7,37.93V18.244A7.743,7.743,0,0,0,10.762,3ZM34.049,3l-9.7,7.762,9.7,7.762V12.7H37.93a1.91,1.91,0,0,1,1.941,1.941V34.329a7.762,7.762,0,1,0,3.881,0V14.643A5.851,5.851,0,0,0,37.93,8.822H34.049ZM10.762,6.881a3.873,3.873,0,0,1,.174,7.743,1.94,1.94,0,0,0-.2-.008q-.074,0-.148.008a3.874,3.874,0,0,1,.178-7.743ZM41.637,37.949a1.941,1.941,0,0,0,.352,0,3.883,3.883,0,1,1-.352,0Z" transform="translate(834.583 7176.284)" fill="#fff"/>
  </g>
</svg>
