<svg xmlns="http://www.w3.org/2000/svg" width="647.922" height="374.479" viewBox="0 0 647.922 374.479">
  <g id="Group_189" data-name="Group 189" transform="translate(-69.562)">
    <path id="Path_765" data-name="Path 765" d="M727.251,271.137H534.815v-3.966H447.557v3.966H254.328a13.018,13.018,0,0,0-13.018,13.018h0v263.5a13.018,13.018,0,0,0,13.018,13.018H727.251a13.018,13.018,0,0,0,13.018-13.018v-263.5a13.018,13.018,0,0,0-13.016-13.016Z" transform="translate(-151.918 -214.752)" fill="#797791"/>
    <rect id="Rectangle_125" data-name="Rectangle 125" width="464.053" height="261.774" transform="translate(106.845 79.389)" fill="#e6e6e6"/>
    <rect id="Rectangle_130" data-name="Rectangle 130" width="424.851" height="226.27" transform="translate(126.525 93.232)" fill="#fff"/>
    <circle id="Ellipse_120" data-name="Ellipse 120" cx="4.76" cy="4.76" r="4.76" transform="translate(333.715 62.731)" fill="#ff6a2b"/>
    <path id="Path_766" data-name="Path 766" d="M746.317,649.735H701.029v-3.263a.647.647,0,0,0-.647-.647H684.854a.647.647,0,0,0-.647.647h0v3.263h-9.7v-3.263a.647.647,0,0,0-.647-.647H658.328a.647.647,0,0,0-.647.647h0v3.263h-9.7v-3.263a.647.647,0,0,0-.647-.647H631.8a.647.647,0,0,0-.647.647h0v3.263h-9.7v-3.263a.647.647,0,0,0-.647-.647H605.276a.647.647,0,0,0-.647.647h0v3.263h-9.705v-3.263a.647.647,0,0,0-.647-.647H578.75a.647.647,0,0,0-.647.647h0v3.263h-9.7v-3.263a.647.647,0,0,0-.647-.647H552.227a.647.647,0,0,0-.647.647h0v3.263h-9.708v-3.263a.647.647,0,0,0-.647-.647H419.592a.647.647,0,0,0-.647.647h0v3.263h-9.7v-3.263a.647.647,0,0,0-.647-.647H393.066a.647.647,0,0,0-.647.647h0v3.263h-9.7v-3.263a.647.647,0,0,0-.647-.647H366.541a.647.647,0,0,0-.647.647h0v3.263h-9.7v-3.263a.647.647,0,0,0-.647-.647H340.014a.647.647,0,0,0-.647.647h0v3.263h-9.7v-3.263a.647.647,0,0,0-.647-.647H313.488a.647.647,0,0,0-.647.647h0v3.263h-9.7v-3.263a.647.647,0,0,0-.647-.647H286.962a.647.647,0,0,0-.647.647h0v3.263h-9.7v-3.263a.647.647,0,0,0-.647-.647H260.433a.647.647,0,0,0-.647.647h0v3.263H230.028A15.528,15.528,0,0,0,214.5,665.263v7.021a15.527,15.527,0,0,0,15.528,15.527h516.29a15.527,15.527,0,0,0,15.528-15.527v-7.021a15.528,15.528,0,0,0-15.528-15.528Z" transform="translate(-144.938 -313.332)" fill="#e5e5e5"/>
    <rect id="Rectangle_126" data-name="Rectangle 126" width="187.872" height="197.488" transform="translate(245.015 109.102)" fill="#e6e6e6"/>
    <path id="Path_776" data-name="Path 776" d="M1017.84,627.209c10.633,11.41,11.183,28.181,11.183,28.181s-16.69-1.729-27.323-13.139-11.183-28.181-11.183-28.181S1007.206,615.8,1017.84,627.209Z" transform="translate(-346.97 -305.065)" fill="#ff6a2b"/>
    <path id="Path_777" data-name="Path 777" d="M1062.795,646.3c-11.41,10.633-28.181,11.183-28.181,11.183s1.729-16.69,13.139-27.324,28.181-11.183,28.181-11.183S1074.206,635.662,1062.795,646.3Z" transform="translate(-358.451 -306.341)" fill="#ff6a2b"/>
    <path id="Path_778" data-name="Path 778" d="M1049.381,692.065h-41.967a4.29,4.29,0,0,1-3.86-2.415l-9.137-18.782a4.29,4.29,0,0,1,3.86-6.17h60.242a4.29,4.29,0,0,1,3.86,6.17l-9.137,18.783a4.291,4.291,0,0,1-3.86,2.415Z" transform="translate(-347.872 -318.246)" fill="#e5e5e5"/>
    <circle id="Ellipse_127" data-name="Ellipse 127" cx="24.969" cy="24.969" r="24.969" transform="translate(336.651 115.071)" fill="#a0616a"/>
    <path id="Path_803" data-name="Path 803" d="M531.686,564.206,547.81,462.7a38.486,38.486,0,0,1,48.8-30.9h0a38.37,38.37,0,0,1,27.043,43.98L606.79,566.425Z" transform="translate(-227.516 -257.209)" fill="#ff6a2b"/>
    <path id="Path_804" data-name="Path 804" d="M613.051,619.068a10.223,10.223,0,0,0,1.775-15.574l16.668-32.278-18.771,2-12.951,30.345a10.281,10.281,0,0,0,13.278,15.5Z" transform="translate(-244.538 -293.908)" fill="#a0616a"/>
    <path id="Path_805" data-name="Path 805" d="M619.873,566.732a4.579,4.579,0,0,1-2.467-1.17l-6.377-5.893a4.59,4.59,0,0,1-1.109-5.138l12.746-30.211-1.808-59.694a14.737,14.737,0,0,1,29.2,3.984h0l3.092,37.525a47.145,47.145,0,0,1-9.086,31.918L624.19,564.923a4.578,4.578,0,0,1-3.248,1.833,4.531,4.531,0,0,1-1.069-.025Z" transform="translate(-247.791 -262.84)" fill="#ff6a2b"/>
    <path id="Path_806" data-name="Path 806" d="M414.9,362.949a10.223,10.223,0,0,0,13.649,7.708l23.225,27.934,5.473-18.067L434.35,356.767a10.281,10.281,0,0,0-19.453,6.182Z" transform="translate(-197.064 -236.514)" fill="#a0616a"/>
    <path id="Path_807" data-name="Path 807" d="M439.327,380.855a4.582,4.582,0,0,1,2.039-1.815l7.914-3.575a4.589,4.589,0,0,1,5.164.982L477.3,399.962l55.675,21.609a14.737,14.737,0,0,1-15.055,25.339h0l-35.76-11.784a47.143,47.143,0,0,1-25.849-20.812l-16.994-28.78a4.58,4.58,0,0,1-.422-3.706,4.531,4.531,0,0,1,.439-.973Z" transform="translate(-203.302 -242.841)" fill="#ff6a2b"/>
    <path id="Path_808" data-name="Path 808" d="M629.788,502.685l-1.016,32.531L610.044,567.76l15.637-36.265Z" transform="translate(-247.916 -276.067)" opacity="0.1" style="isolation: isolate"/>
    <path id="Path_696" data-name="Path 696" d="M582.625,360.493c2.576,3.048,6.934,3.908,10.954,4.26,8.165.716,20.038-.444,28.018-2.288.57,5.52-.983,11.471,2.268,16.012a74.339,74.339,0,0,0,2.641-16.852,16.142,16.142,0,0,0-.934-7.218,6.638,6.638,0,0,0-5.655-4.169,14.171,14.171,0,0,1,6.322-2.7l-7.9-3.97,2.029-2.083-14.3-.875,4.142-2.632a89.827,89.827,0,0,0-18.817-.592c-2.914.215-5.962.625-8.323,2.314s-3.726,5.045-2.26,7.524a10.925,10.925,0,0,0-8.325,6.606,17.633,17.633,0,0,0-.632,8.477A60.082,60.082,0,0,0,575,375.635" transform="translate(-237.915 -232.969)" fill="#2f2e41"/>
    <path id="Path_138" data-name="Path 138" d="M644.273,261.276,416.757,313.8a4.329,4.329,0,0,1-5.186-3.241l-13.029-56.437a4.329,4.329,0,0,1,3.24-5.186L629.3,196.412a4.329,4.329,0,0,1,5.186,3.241l13.03,56.437a4.329,4.329,0,0,1-3.241,5.186Z" transform="translate(-192.824 -196.301)" fill="#fff"/>
    <path id="Path_138-2" data-name="Path 138" d="M644.273,261.276,416.757,313.8a4.329,4.329,0,0,1-5.186-3.241l-13.029-56.437a4.329,4.329,0,0,1,3.24-5.186L629.3,196.412a4.329,4.329,0,0,1,5.186,3.241l13.03,56.437a4.329,4.329,0,0,1-3.241,5.186Zm-242.1-10.651a2.6,2.6,0,0,0-1.944,3.112l13.029,56.437a2.6,2.6,0,0,0,3.112,1.945l227.516-52.526a2.6,2.6,0,0,0,1.945-3.112L632.8,200.042a2.6,2.6,0,0,0-3.112-1.945Z" transform="translate(-192.824 -196.301)" fill="#e6e6e6"/>
    <path id="Path_139" data-name="Path 139" d="M509.418,258.524a2.936,2.936,0,1,0,1.311,5.723l.01,0,134.848-31.132a2.936,2.936,0,0,0-1.321-5.721Z" transform="translate(-221.125 -204.376)" fill="#e6e6e6"/>
    <path id="Path_140" data-name="Path 140" d="M514.775,287.971a2.936,2.936,0,1,0,1.311,5.723l.01,0,58.026-13.4a2.936,2.936,0,1,0-1.311-5.723l-.01,0Z" transform="translate(-222.519 -216.659)" fill="#e6e6e6"/>
    <g id="Group_45" data-name="Group 45" transform="translate(233.815 56.96)">
      <circle id="Ellipse_18" data-name="Ellipse 18" cx="17.614" cy="17.614" r="17.614" fill="#ff6a2b"/>
      <path id="Path_395" data-name="Path 395" d="M456.031,303.092a2.729,2.729,0,0,1-1.722-.163l-.034-.015-7.088-3.218a2.749,2.749,0,0,1,2.276-5l4.593,2.091,6.443-14.157a2.746,2.746,0,0,1,3.637-1.362h0l-.039.093.041-.093A2.749,2.749,0,0,1,465.5,284.9l-7.578,16.654a2.747,2.747,0,0,1-1.888,1.535Z" transform="translate(-438.912 -275.317)" fill="#fff"/>
    </g>
  </g>
</svg>
