<svg xmlns="http://www.w3.org/2000/svg" width="112" height="112" viewBox="0 0 112 112">
  <g id="Group_226" data-name="Group 226" transform="translate(-1264 -12598)">
    <circle id="Ellipse_6" data-name="Ellipse 6" cx="56" cy="56" r="56" transform="translate(1264 12598)" fill="#2b6bb8"/>
    <path id="icons8-web_design" d="M7.327,3A4.326,4.326,0,0,0,3,7.327v8.654H41.944V7.327A4.326,4.326,0,0,0,37.617,3ZM9.491,7.327A2.164,2.164,0,1,1,7.327,9.491,2.164,2.164,0,0,1,9.491,7.327Zm6.491,0a2.164,2.164,0,1,1-2.164,2.164A2.164,2.164,0,0,1,15.981,7.327Zm6.491,0H37.617v4.327H22.472ZM3,20.308V37.617a4.359,4.359,0,0,0,4.327,4.327h30.29a4.359,4.359,0,0,0,4.327-4.327V20.308H37.617V37.617H18.145V20.308H3Zm19.472,0v4.327H33.29V20.308Zm0,8.654V33.29H33.29V28.963Z" transform="translate(1297.244 12632)" fill="#fff"/>
  </g>
</svg>
