<svg xmlns="http://www.w3.org/2000/svg" width="112" height="112" viewBox="0 0 112 112">
  <circle id="Ellipse_4" data-name="Ellipse 4" cx="56" cy="56" r="56" fill="#2b6bb8"/>
  <path id="icons8-google_forms" d="M37.326,11.5,28.3,2.481A1.639,1.639,0,0,0,27.144,2H8.281A3.28,3.28,0,0,0,5,5.281V41.368a3.28,3.28,0,0,0,3.281,3.281H34.526a3.28,3.28,0,0,0,3.281-3.281V12.662A1.639,1.639,0,0,0,37.326,11.5ZM13.2,23.324a1.64,1.64,0,1,1,1.64-1.64A1.641,1.641,0,0,1,13.2,23.324Zm0,6.561a1.64,1.64,0,1,1,1.64-1.64A1.641,1.641,0,0,1,13.2,29.885Zm0,6.561a1.64,1.64,0,1,1,1.64-1.64A1.641,1.641,0,0,1,13.2,36.447Zm16.4,0H19.763a1.64,1.64,0,1,1,0-3.281H29.6a1.64,1.64,0,0,1,0,3.281Zm0-6.561H19.763a1.64,1.64,0,1,1,0-3.281H29.6a1.64,1.64,0,1,1,0,3.281Zm0-6.561H19.763a1.64,1.64,0,1,1,0-3.281H29.6a1.64,1.64,0,1,1,0,3.281Zm-1.64-9.842a1.641,1.641,0,0,1-1.64-1.64V5.123l8.359,8.359Z" transform="translate(34.597 32.676)" fill="#fff"/>
</svg>
