<svg xmlns="http://www.w3.org/2000/svg" width="112" height="112" viewBox="0 0 112 112">
  <g id="Group_233" data-name="Group 233" transform="translate(-1135 -15055)">
    <circle id="Ellipse_6" data-name="Ellipse 6" cx="56" cy="56" r="56" transform="translate(1135 15055)" fill="#2b6bb8"/>
    <path id="icons8-gdpr" d="M7.267,4A3.266,3.266,0,0,0,4,7.267v29.4a3.266,3.266,0,0,0,3.267,3.267h29.4a3.266,3.266,0,0,0,3.267-3.267V7.267A3.266,3.266,0,0,0,36.67,4Zm14.7,2.993.5,1.1,1.3.2-.9.9.2,1.2-1.1-.6-1.1.6.2-1.2-.9-.9,1.3-.2Zm-6.786,2,.6,1.1,1.2.2-.9.9.2,1.2-1.1-.6-1.1.6.2-1.2-.8-.9,1.2-.2Zm13.575,0,.5,1.1,1.2.2-.8.9.2,1.2-1.1-.6-1.1.6.2-1.2-.9-.9,1.2-.2ZM10.789,13.584l.5,1.1,1.2.2-.8.9.2,1.2-1.1-.6-1.1.6.2-1.2-.9-.9,1.2-.2Zm22.362,0,.6,1.1,1.2.2-.9.9.2,1.2-1.1-.6-1.1.6.2-1.2-.8-.9,1.2-.2ZM21.969,13.8a4.8,4.8,0,0,1,4.9,4.9v1.634A1.634,1.634,0,0,1,28.5,21.969v4.9A1.634,1.634,0,0,1,26.869,28.5h-9.8a1.634,1.634,0,0,1-1.634-1.634v-4.9a1.634,1.634,0,0,1,1.634-1.634V18.7A4.8,4.8,0,0,1,21.969,13.8Zm0,2.45a2.376,2.376,0,0,0-2.45,2.45v1.634h4.9V18.7A2.376,2.376,0,0,0,21.969,16.251ZM8.792,20.275l.5,1.1,1.2.2-.8.9.2,1.2-1.1-.6-1.1.6.2-1.2-.9-.9,1.2-.2Zm26.353,0,.6,1.1,1.2.2-.9.9.2,1.2-1.1-.6-1.1.6.2-1.2-.8-.9,1.2-.2ZM21.969,21.969a.925.925,0,0,0-.979.979V25.89a.979.979,0,0,0,1.959,0V22.948A.925.925,0,0,0,21.969,21.969ZM10.789,26.962l.5,1.1,1.2.2-.8.9.2,1.2-1.1-.6-1.1.6.2-1.2-.9-.9,1.2-.2Zm22.362,0,.6,1.1,1.2.2-.9.9.2,1.2-1.1-.6-1.1.6.2-1.2-.8-.9,1.2-.2ZM15.183,31.553l.6,1.1,1.2.2-.9.9.2,1.2-1.1-.6-1.1.6.2-1.2-.8-.9,1.2-.2Zm13.575,0,.5,1.1,1.2.2-.8.9.2,1.2-1.1-.6-1.1.6.2-1.2-.9-.9,1.2-.2Zm-6.789,2,.5,1.1,1.3.2-.9.9.2,1.2-1.1-.6-1.1.6.2-1.2-.9-.9,1.3-.2Z" transform="translate(1169.031 15089.031)" fill="#fff"/>
  </g>
</svg>
