<svg xmlns="http://www.w3.org/2000/svg" width="112" height="112" viewBox="0 0 112 112">
  <g id="Group_217" data-name="Group 217" transform="translate(-1264 -9654)">
    <circle id="Ellipse_5" data-name="Ellipse 5" cx="56" cy="56" r="56" transform="translate(1264 9654)" fill="#2b6bb8"/>
    <path id="icons8-secure" d="M21.349,3A18.349,18.349,0,1,0,39.7,21.349,18.35,18.35,0,0,0,21.349,3Zm0,9.175a6.123,6.123,0,0,1,6.116,6.116V19.82a1.53,1.53,0,0,1,1.529,1.529v6.116a1.53,1.53,0,0,1-1.529,1.529H15.233A1.53,1.53,0,0,1,13.7,27.465V21.349a1.53,1.53,0,0,1,1.529-1.529V18.291A6.123,6.123,0,0,1,21.349,12.175Zm0,3.058a3.061,3.061,0,0,0-3.058,3.058V19.82h6.116V18.291A3.061,3.061,0,0,0,21.349,15.233Z" transform="translate(1299 9689)" fill="#fff"/>
  </g>
</svg>
