<svg xmlns="http://www.w3.org/2000/svg" width="112" height="112" viewBox="0 0 112 112">
  <g id="Group_222" data-name="Group 222" transform="translate(-1264 -1228)">
    <circle id="Ellipse_6" data-name="Ellipse 6" cx="56" cy="56" r="56" transform="translate(1264 1228)" fill="#ff6a2b"/>
    <path id="icons8-mailchimp" d="M22.836,4.015C14.747,4.611.017,22.361,5.657,27.123l1.409,1.2a6.912,6.912,0,0,0-.39,3.2,6.755,6.755,0,0,0,6.443,5.763c5.509,12.7,25.563,12.717,30.754.286a12.849,12.849,0,0,0,.868-4.048c0-1.7-.964-2.409-1.579-2.409a3.933,3.933,0,0,0-.913-1.775,3.191,3.191,0,0,0-.293-4.128A9.411,9.411,0,0,0,38.3,23.253c-.143-1.087.444-5.6-2.054-7.921,1.983-2.055,3.145-4.318,3.141-6.262-.005-3.736-4.515-4.868-10.17-2.528l-1.2.509c-.005-.005-2.168-2.123-2.2-2.151A3.928,3.928,0,0,0,22.836,4.015Zm.736,1.545a3.092,3.092,0,0,1,.655.1A12.774,12.774,0,0,1,26.51,7.843a45.718,45.718,0,0,0-6.279,4.327A28.519,28.519,0,0,0,11.243,24.8a5.548,5.548,0,0,0-3.5,2.238A9.711,9.711,0,0,1,6.254,25.61c-1.241-2.371,1.357-6.966,3.176-9.563C13.644,10.032,20.1,5.391,23.571,5.559ZM29.258,11.4a.074.074,0,0,1,.077.07.072.072,0,0,1-.028.063,4.062,4.062,0,0,0-.736.739.069.069,0,0,0,.017.1.084.084,0,0,0,.042.014A9.2,9.2,0,0,1,32.542,13.4c.073.041.023.182-.059.164A16.383,16.383,0,0,0,19.645,16.13a.07.07,0,0,1-.1-.024.069.069,0,0,1,0-.084h-.007a18.99,18.99,0,0,1,5.327-4.351.067.067,0,0,1,.094.024.07.07,0,0,1,0,.07,5.185,5.185,0,0,0-.5,1.206.073.073,0,0,0,.056.087.068.068,0,0,0,.056-.01A10.383,10.383,0,0,1,29.258,11.4Zm5.68,5.746a1.673,1.673,0,0,1,.628.241c.955.634,1.087,2.168,1.137,3.291.029.641.106,2.193.132,2.636.061,1.018.329,1.162.872,1.335.305.1.585.175,1,.293a4.458,4.458,0,0,1,2.217,1.36,1.565,1.565,0,0,1,.453.886c.148,1.085-.577,2.241-3.2,3.459a17.837,17.837,0,0,1-9.588,1.3c-1.923-.259-3.018,2.228-1.865,3.929,2.16,3.188,11.678,1.909,14.441-2.036.066-.095.011-.155-.07-.1-3.986,2.728-9.258,3.646-12.255,2.482a2.151,2.151,0,0,1-1.524-1.59c4.161,1.287,6.774.07,6.774.07s.194-.269-.052-.244a15.266,15.266,0,0,1-6.635-.676c.593-1.924,2.575.581,9.2-1.318a13.1,13.1,0,0,0,4.6-2.235,4.38,4.38,0,0,1,.945,2.134c.35-.062,1.359-.052,1.091,1.726a8.854,8.854,0,0,1-2.472,4.853,10.185,10.185,0,0,1-2.974,2.224,12.746,12.746,0,0,1-1.938.819c-5.105,1.667-10.336-.166-12.025-4.1a6.3,6.3,0,0,1-.338-.931,8.165,8.165,0,0,1,1.8-7.67.691.691,0,0,0,.237-.457.8.8,0,0,0-.185-.432c-.668-.966-2.974-2.615-2.51-5.805a4.345,4.345,0,0,1,4.2-3.807l.478.028c.809.048,1.515.151,2.183.178A4.361,4.361,0,0,0,33,17.884a2.561,2.561,0,0,1,1.266-.715A1.647,1.647,0,0,1,34.937,17.141Zm-.359,3.87c-.594.1-.617.836-.4,1.855a3.4,3.4,0,0,0,.572,1.363,3.5,3.5,0,0,1,.886,0,3.027,3.027,0,0,0,.045-1.677C35.464,21.535,35.173,20.915,34.578,21.011Zm-6.816,2.775a3,3,0,0,0-1.416.558c-.286.209-.555.5-.516.673.08.357.957-.258,2.158-.331a3.491,3.491,0,0,1,1.646.352c.427.191.688.313.791.206.18-.186-.333-.9-1.158-1.252A2.991,2.991,0,0,0,27.762,23.787Zm7.677,1.419v0c-.73-.012-.758,1.508-.024,1.52S36.175,25.22,35.439,25.206Zm-6.663.324c-.866.136-1.433.621-1.287.962.086.032.111.077.5-.077a3.549,3.549,0,0,1,1.789-.185c.278.032.41.051.471-.045C30.384,25.973,29.7,25.421,28.777,25.53Zm4.2.7a.479.479,0,0,0-.4.265c-.324.659,1.036,1.32,1.363.669C34.186,26.67,33.482,26.168,32.978,26.227Zm-20.553.052c1.732.055,3.428,1.278,3.835,3.9.434,2.828-.447,5.582-3.256,5.516l0,0a5.2,5.2,0,0,1-4.763-4.344C7.913,28.069,10.2,26.209,12.425,26.279ZM12.3,27.922a2.151,2.151,0,0,0-1.6.648c-.832.916-.833,2.246-.478,2.3.407.054.39-.616.7-1.109a1.226,1.226,0,0,1,1.694-.363.036.036,0,0,1,.01.007c1.107.725.129,1.693.216,2.73.132,1.592,1.759,1.561,2.061.858a.2.2,0,0,0-.021-.223c0,.086.067-.121-.317-.035l0,0a.715.715,0,0,1-.809-.223c-.5-.764,1.061-1.944.286-3.413A1.993,1.993,0,0,0,12.3,27.922Z" transform="translate(1295.428 1258.578)" fill="#fff"/>
  </g>
</svg>
