<svg id="Group_180" data-name="Group 180" xmlns="http://www.w3.org/2000/svg" width="546" height="452.521" viewBox="0 0 546 452.521">
  <circle id="Ellipse_34" data-name="Ellipse 34" cx="10.13" cy="10.13" r="10.13" transform="translate(19.253 72.163)" fill="#e6e6e6"/>
  <circle id="Ellipse_35" data-name="Ellipse 35" cx="10.13" cy="10.13" r="10.13" transform="translate(49.645 72.163)" fill="#e6e6e6"/>
  <circle id="Ellipse_36" data-name="Ellipse 36" cx="10.13" cy="10.13" r="10.13" transform="translate(80.036 72.163)" fill="#e6e6e6"/>
  <circle id="Ellipse_37" data-name="Ellipse 37" cx="10.13" cy="10.13" r="10.13" transform="translate(110.427 72.163)" fill="#e6e6e6"/>
  <circle id="Ellipse_38" data-name="Ellipse 38" cx="10.13" cy="10.13" r="10.13" transform="translate(140.819 72.163)" fill="#e6e6e6"/>
  <circle id="Ellipse_39" data-name="Ellipse 39" cx="10.13" cy="10.13" r="10.13" transform="translate(171.21 72.163)" fill="#e6e6e6"/>
  <circle id="Ellipse_40" data-name="Ellipse 40" cx="10.13" cy="10.13" r="10.13" transform="translate(201.602 72.163)" fill="#e6e6e6"/>
  <path id="Path_318" data-name="Path 318" d="M408.072,263.413H178.9a4.127,4.127,0,0,1-4.123-4.123V242.863a4.127,4.127,0,0,1,4.123-4.123H408.072a4.128,4.128,0,0,1,4.123,4.123v16.428a4.127,4.127,0,0,1-4.123,4.123ZM178.9,240.389a2.476,2.476,0,0,0-2.474,2.474v16.428a2.476,2.476,0,0,0,2.474,2.474H408.072a2.476,2.476,0,0,0,2.473-2.474V242.863a2.476,2.476,0,0,0-2.473-2.474Z" transform="translate(-172.931 -168.783)" fill="#e6e6e6"/>
  <path id="Path_319" data-name="Path 319" d="M227.308,146.981a2.371,2.371,0,0,1,2.369,2.369v51.328a2.371,2.371,0,0,1-2.369,2.369h-50.28a2.371,2.371,0,0,1-2.369-2.369V149.35a2.371,2.371,0,0,1,2.369-2.369h50.28m0-2.369h-50.28a4.737,4.737,0,0,0-4.737,4.737v51.328a4.737,4.737,0,0,0,4.737,4.737h50.28a4.737,4.737,0,0,0,4.737-4.737V149.35a4.737,4.737,0,0,0-4.737-4.737Z" transform="translate(-172.291 -144.612)" fill="#e6e6e6"/>
  <path id="Path_320" data-name="Path 320" d="M223.765,165.135H190.219a1.184,1.184,0,1,1,0-2.369h33.546a1.184,1.184,0,1,1,0,2.369Z" transform="translate(-176.59 -149.274)" fill="#ff6a2b"/>
  <path id="Path_321" data-name="Path 321" d="M223.765,176.419H190.219a1.184,1.184,0,1,1,0-2.369h33.546a1.184,1.184,0,0,1,0,2.369Z" transform="translate(-176.59 -152.172)" fill="#ff6a2b"/>
  <path id="Path_322" data-name="Path 322" d="M223.765,187.7H190.219a1.184,1.184,0,1,1,0-2.369h33.546a1.184,1.184,0,0,1,0,2.369Z" transform="translate(-176.59 -155.069)" fill="#ff6a2b"/>
  <path id="Path_323" data-name="Path 323" d="M223.765,198.988H190.219a1.184,1.184,0,1,1,0-2.369h33.546a1.184,1.184,0,0,1,0,2.369Z" transform="translate(-176.59 -157.967)" fill="#ff6a2b"/>
  <path id="Path_324" data-name="Path 324" d="M223.765,210.272H190.219a1.184,1.184,0,1,1,0-2.369h33.546a1.184,1.184,0,0,1,0,2.369Z" transform="translate(-176.59 -160.864)" fill="#ff6a2b"/>
  <path id="Path_325" data-name="Path 325" d="M458.369,146.981a2.371,2.371,0,0,1,2.369,2.369v51.328a2.371,2.371,0,0,1-2.369,2.369h-50.28a2.371,2.371,0,0,1-2.369-2.369V149.35a2.371,2.371,0,0,1,2.369-2.369h50.28m0-2.369h-50.28a4.737,4.737,0,0,0-4.737,4.737v51.328a4.737,4.737,0,0,0,4.737,4.737h50.28a4.737,4.737,0,0,0,4.737-4.737V149.35a4.737,4.737,0,0,0-4.737-4.737Z" transform="translate(-231.623 -144.612)" fill="#e6e6e6"/>
  <path id="Path_326" data-name="Path 326" d="M454.826,165.135H421.28a1.184,1.184,0,0,1,0-2.369h33.547a1.184,1.184,0,0,1,0,2.369Z" transform="translate(-235.923 -149.274)" fill="#ff6a2b"/>
  <path id="Path_327" data-name="Path 327" d="M454.826,176.419H421.28a1.184,1.184,0,0,1,0-2.369h33.547a1.184,1.184,0,0,1,0,2.369Z" transform="translate(-235.923 -152.172)" fill="#ff6a2b"/>
  <path id="Path_328" data-name="Path 328" d="M454.826,187.7H421.28a1.184,1.184,0,0,1,0-2.369h33.547a1.184,1.184,0,0,1,0,2.369Z" transform="translate(-235.923 -155.069)" fill="#ff6a2b"/>
  <path id="Path_329" data-name="Path 329" d="M454.826,198.988H421.28a1.184,1.184,0,1,1,0-2.369h33.547a1.184,1.184,0,0,1,0,2.369Z" transform="translate(-235.923 -157.967)" fill="#ff6a2b"/>
  <path id="Path_330" data-name="Path 330" d="M454.826,210.272H421.28a1.184,1.184,0,1,1,0-2.369h33.547a1.184,1.184,0,0,1,0,2.369Z" transform="translate(-235.923 -160.864)" fill="#ff6a2b"/>
  <path id="Path_331" data-name="Path 331" d="M688.308,279.772a2.372,2.372,0,0,1,2.369,2.369v51.328a2.371,2.371,0,0,1-2.369,2.369h-50.28a2.371,2.371,0,0,1-2.369-2.369V282.141a2.371,2.371,0,0,1,2.369-2.369h50.28m0-2.369h-50.28a4.737,4.737,0,0,0-4.737,4.737V333.47a4.737,4.737,0,0,0,4.737,4.737h50.28a4.737,4.737,0,0,0,4.737-4.737V282.141a4.737,4.737,0,0,0-4.737-4.737Z" transform="translate(-290.668 -178.711)" fill="#ff6a2b"/>
  <path id="Path_332" data-name="Path 332" d="M684.765,297.926H651.219a1.184,1.184,0,0,1,0-2.369h33.547a1.184,1.184,0,0,1,0,2.369Z" transform="translate(-294.967 -183.373)" fill="#ff6a2b"/>
  <path id="Path_333" data-name="Path 333" d="M684.765,309.211H651.219a1.184,1.184,0,1,1,0-2.369h33.546a1.184,1.184,0,1,1,0,2.369Z" transform="translate(-294.967 -186.27)" fill="#ff6a2b"/>
  <path id="Path_334" data-name="Path 334" d="M684.765,320.494H651.219a1.184,1.184,0,0,1,0-2.369h33.547a1.184,1.184,0,0,1,0,2.369Z" transform="translate(-294.967 -189.168)" fill="#ff6a2b"/>
  <path id="Path_335" data-name="Path 335" d="M684.765,331.779H651.219a1.184,1.184,0,0,1,0-2.369h33.547a1.184,1.184,0,0,1,0,2.369Z" transform="translate(-294.967 -192.065)" fill="#ff6a2b"/>
  <path id="Path_336" data-name="Path 336" d="M684.765,343.064H651.219a1.184,1.184,0,0,1,0-2.369h33.547a1.184,1.184,0,0,1,0,2.369Z" transform="translate(-294.967 -194.963)" fill="#ff6a2b"/>
  <path id="Path_337" data-name="Path 337" d="M343.088,210.03h-51.6a5.269,5.269,0,0,1-5.263-5.263v-36.92a5.269,5.269,0,0,1,5.263-5.264h51.6a5.269,5.269,0,0,1,5.264,5.264v36.92A5.269,5.269,0,0,1,343.088,210.03Zm-51.6-45.078a2.9,2.9,0,0,0-2.894,2.895v36.92a2.9,2.9,0,0,0,2.894,2.894h51.6a2.9,2.9,0,0,0,2.895-2.894v-36.92a2.9,2.9,0,0,0-2.895-2.895Z" transform="translate(-201.548 -149.227)" fill="#e6e6e6"/>
  <path id="Path_338" data-name="Path 338" d="M338.59,183.994H305.044a1.184,1.184,0,1,1,0-2.369H338.59a1.184,1.184,0,0,1,0,2.369Z" transform="translate(-206.076 -154.117)" fill="#ff6a2b"/>
  <path id="Path_339" data-name="Path 339" d="M338.59,195.279H305.044a1.184,1.184,0,0,1,0-2.369H338.59a1.184,1.184,0,1,1,0,2.369Z" transform="translate(-206.076 -157.014)" fill="#ff6a2b"/>
  <path id="Path_340" data-name="Path 340" d="M338.59,206.563H305.044a1.184,1.184,0,1,1,0-2.369H338.59a1.184,1.184,0,0,1,0,2.369Z" transform="translate(-206.076 -159.912)" fill="#ff6a2b"/>
  <path id="Path_341" data-name="Path 341" d="M574.658,233.169,525.1,218.8a5.269,5.269,0,0,1-3.589-6.521L531.8,176.818a5.27,5.27,0,0,1,6.521-3.589L587.873,187.6a5.269,5.269,0,0,1,3.589,6.521L581.179,229.58A5.269,5.269,0,0,1,574.658,233.169Zm-37-57.665a2.9,2.9,0,0,0-3.586,1.974l-10.283,35.459a2.9,2.9,0,0,0,1.974,3.586l49.555,14.371a2.9,2.9,0,0,0,3.586-1.974l10.283-35.459a2.9,2.9,0,0,0-1.974-3.587Z" transform="translate(-261.912 -151.907)" fill="#e6e6e6"/>
  <path id="Path_342" data-name="Path 342" d="M581.591,206.574l-32.219-9.344a1.184,1.184,0,0,1,.66-2.275l32.219,9.344a1.184,1.184,0,1,1-.66,2.275Z" transform="translate(-268.9 -157.527)" fill="#ff6a2b"/>
  <path id="Path_343" data-name="Path 343" d="M578.448,217.412l-32.219-9.344a1.184,1.184,0,1,1,.66-2.275l32.219,9.344a1.184,1.184,0,0,1-.66,2.275Z" transform="translate(-268.092 -160.31)" fill="#ff6a2b"/>
  <path id="Path_344" data-name="Path 344" d="M575.305,228.249l-32.219-9.344a1.184,1.184,0,1,1,.66-2.275l32.219,9.344a1.184,1.184,0,1,1-.66,2.275Z" transform="translate(-267.286 -163.093)" fill="#ff6a2b"/>
  <path id="Path_345" data-name="Path 345" d="M532.939,590.217H448.421l2.865-37.244h78.788Z" transform="translate(-115.147 -141.994)" fill="#e6e6e6"/>
  <rect id="Rectangle_61" data-name="Rectangle 61" width="94.545" height="8.595" transform="translate(328.977 443.926)" fill="#e6e6e6"/>
  <path id="Path_346" data-name="Path 346" d="M780.794,374.74H457.766a8.6,8.6,0,0,0-8.595,8.595h0V580.3H789.389V383.335A8.6,8.6,0,0,0,780.794,374.74Z" transform="translate(-243.389 -203.705)" fill="#3f3d56"/>
  <path id="Path_347" data-name="Path 347" d="M449.171,651.327v32.231a8.6,8.6,0,0,0,8.595,8.6H780.794a8.6,8.6,0,0,0,8.6-8.595h0V651.327Z" transform="translate(-243.389 -274.728)" fill="#e6e6e6"/>
  <rect id="Rectangle_62" data-name="Rectangle 62" width="306.555" height="171.9" transform="translate(222.972 188.941)" fill="#e6e6e6"/>
  <circle id="Ellipse_41" data-name="Ellipse 41" cx="8.595" cy="8.595" r="8.595" transform="translate(367.654 388.058)" fill="#3f3d56"/>
  <circle id="Ellipse_42" data-name="Ellipse 42" cx="1.631" cy="1.631" r="1.631" transform="translate(230.899 192.94)" fill="#fff"/>
  <circle id="Ellipse_43" data-name="Ellipse 43" cx="1.631" cy="1.631" r="1.631" transform="translate(237.09 192.94)" fill="#fff"/>
  <circle id="Ellipse_44" data-name="Ellipse 44" cx="1.631" cy="1.631" r="1.631" transform="translate(243.282 192.94)" fill="#fff"/>
  <rect id="Rectangle_63" data-name="Rectangle 63" width="289.792" height="144.368" transform="translate(230.899 200.113)" fill="#fff"/>
  <path id="Path_348" data-name="Path 348" d="M508.531,443.411a1.025,1.025,0,0,0-1.024,1.024V496.22a1.025,1.025,0,0,0,1.024,1.024h59.8a1.025,1.025,0,0,0,1.025-1.024V444.436a1.025,1.025,0,0,0-1.025-1.024Z" transform="translate(-258.369 -221.339)" fill="#e6e6e6"/>
  <path id="Path_349" data-name="Path 349" d="M637.727,443.635a1.026,1.026,0,0,0-1.025,1.024v51.618a1.025,1.025,0,0,0,1.025,1.024h59.612a1.025,1.025,0,0,0,1.024-1.024V444.66a1.025,1.025,0,0,0-1.024-1.024Z" transform="translate(-291.544 -221.396)" fill="#e6e6e6"/>
  <path id="Path_350" data-name="Path 350" d="M765.568,442.907a1.025,1.025,0,0,0-1.024,1.024V496.09a1.025,1.025,0,0,0,1.024,1.025H825.8a1.025,1.025,0,0,0,1.024-1.024V443.932a1.025,1.025,0,0,0-1.024-1.024Z" transform="translate(-324.372 -221.21)" fill="#e6e6e6"/>
  <path id="Path_351" data-name="Path 351" d="M509.624,550.333a2.118,2.118,0,1,0,0,4.236H565.85a2.118,2.118,0,0,0,0-4.236Z" transform="translate(-258.369 -248.795)" fill="#e6e6e6"/>
  <path id="Path_352" data-name="Path 352" d="M509.624,563.889a2.118,2.118,0,0,0,0,4.237H534.94a2.118,2.118,0,0,0,0-4.236Z" transform="translate(-258.369 -252.276)" fill="#ff6a2b"/>
  <path id="Path_353" data-name="Path 353" d="M640.208,550.333a2.118,2.118,0,1,0,0,4.236h56.226a2.118,2.118,0,0,0,0-4.236Z" transform="translate(-291.901 -248.795)" fill="#e6e6e6"/>
  <path id="Path_354" data-name="Path 354" d="M640.208,563.889a2.118,2.118,0,0,0,0,4.237h25.316a2.118,2.118,0,1,0,0-4.236Z" transform="translate(-291.9 -252.276)" fill="#ff6a2b"/>
  <path id="Path_355" data-name="Path 355" d="M767.529,550.333a2.118,2.118,0,1,0,0,4.236h56.226a2.118,2.118,0,1,0,0-4.236Z" transform="translate(-324.594 -248.795)" fill="#e6e6e6"/>
  <path id="Path_356" data-name="Path 356" d="M509.624,536.333a2.118,2.118,0,0,0,0,4.236H565.85a2.118,2.118,0,0,0,0-4.236Z" transform="translate(-258.369 -245.2)" fill="#e6e6e6"/>
  <path id="Path_357" data-name="Path 357" d="M640.208,536.333a2.118,2.118,0,0,0,0,4.236h56.226a2.118,2.118,0,0,0,0-4.236Z" transform="translate(-291.901 -245.2)" fill="#e6e6e6"/>
  <path id="Path_358" data-name="Path 358" d="M767.529,536.333a2.118,2.118,0,1,0,0,4.236h56.226a2.118,2.118,0,0,0,0-4.236Z" transform="translate(-324.594 -245.2)" fill="#e6e6e6"/>
  <path id="Path_359" data-name="Path 359" d="M767.529,563.889a2.118,2.118,0,0,0,0,4.237h25.315a2.118,2.118,0,0,0,0-4.236Z" transform="translate(-324.594 -252.276)" fill="#ff6a2b"/>
</svg>
