<svg xmlns="http://www.w3.org/2000/svg" width="112" height="112" viewBox="0 0 112 112">
  <g id="Group_204" data-name="Group 204" transform="translate(-1264 -4720)">
    <circle id="Ellipse_5" data-name="Ellipse 5" cx="56" cy="56" r="56" transform="translate(1264 4720)" fill="#2b6bb8"/>
    <path id="icons8-pressure_gauge" d="M23.737,3A20.737,20.737,0,1,0,44.474,23.737,20.738,20.738,0,0,0,23.737,3Zm0,3.456a1.728,1.728,0,1,1-1.728,1.728A1.729,1.729,0,0,1,23.737,6.456Zm-7.989,2.1a1.729,1.729,0,1,1-.651.219A1.725,1.725,0,0,1,15.748,8.552Zm15.978,0a1.729,1.729,0,1,1-1.708.851A1.73,1.73,0,0,1,31.726,8.552ZM10.483,14.246a1.732,1.732,0,0,1,1.283,2.579,1.728,1.728,0,1,1-1.283-2.579ZM37,14.3a1.728,1.728,0,0,1,1.07,3.213L27.193,23.747a3.458,3.458,0,0,1-3.456,3.446,3.407,3.407,0,0,1-1.721-.476l-3.777,2.163a1.728,1.728,0,1,1-1.721-3l3.763-2.157a3.458,3.458,0,0,1,3.456-3.446,3.412,3.412,0,0,1,1.721.476L36.35,14.513A1.725,1.725,0,0,1,37,14.3ZM8.184,22.009a1.728,1.728,0,1,1-1.728,1.728A1.729,1.729,0,0,1,8.184,22.009Zm31.106,0a1.728,1.728,0,1,1-1.728,1.728A1.729,1.729,0,0,1,39.29,22.009ZM10.054,29.8a1.729,1.729,0,1,1-.651.219A1.73,1.73,0,0,1,10.054,29.8Zm27.366,0a1.727,1.727,0,1,1-1.711.851A1.728,1.728,0,0,1,37.42,29.8Z" transform="translate(1296.263 4753.263)" fill="#fff"/>
  </g>
</svg>
