<svg id="Component_8_1" data-name="Component 8 – 1" xmlns="http://www.w3.org/2000/svg" width="112" height="112" viewBox="0 0 112 112">
  <circle id="Ellipse_6" data-name="Ellipse 6" cx="56" cy="56" r="56" fill="#ff6a2b"/>
  <path id="icons8-road" d="M10.273,4A2.909,2.909,0,0,0,7.409,6.406l0,0L3.045,32.571l0,0A2.9,2.9,0,0,0,5.909,36H19V28.727h2.909V36H35a2.9,2.9,0,0,0,2.861-3.426l0,0L33.5,6.415V6.409h0A2.909,2.909,0,0,0,30.636,4H21.909V6.909H19V4ZM19,9.818h2.909v4.364H19Zm0,7.273h2.909v7.273H19Z" transform="translate(35.545 36)" fill="#fff"/>
</svg>
