<svg xmlns="http://www.w3.org/2000/svg" width="112" height="112" viewBox="0 0 112 112">
  <g id="Group_225" data-name="Group 225" transform="translate(-807 -12598)">
    <circle id="Ellipse_4" data-name="Ellipse 4" cx="56" cy="56" r="56" transform="translate(807 12598)" fill="#2b6bb8"/>
    <path id="icons8-new" d="M47.273,23.055l-1.626-.975A3.106,3.106,0,0,1,44.274,20.2a.389.389,0,0,0-.013-.043,3.1,3.1,0,0,1,.243-2.337l.921-1.659a2.57,2.57,0,0,0-2.2-3.816l-1.914-.032a3.109,3.109,0,0,1-2.135-.947l-.018-.018a3.093,3.093,0,0,1-.947-2.135L38.176,7.3A2.571,2.571,0,0,0,34.358,5.1L32.7,6.016a3.1,3.1,0,0,1-2.337.243.389.389,0,0,1-.043-.013,3.113,3.113,0,0,1-1.879-1.372l-.975-1.626a2.569,2.569,0,0,0-4.407,0l-.972,1.619a3.14,3.14,0,0,1-1.893,1.383l-.025.007a3.122,3.122,0,0,1-2.355-.245L16.162,5.1a2.569,2.569,0,0,0-3.816,2.2l-.032,1.914a3.109,3.109,0,0,1-.947,2.135l-.018.018a3.093,3.093,0,0,1-2.135.947L7.3,12.343a2.571,2.571,0,0,0-2.2,3.818l.921,1.659a3.1,3.1,0,0,1,.243,2.337.389.389,0,0,1-.013.043,3.113,3.113,0,0,1-1.372,1.879l-1.626.975a2.569,2.569,0,0,0,0,4.407l1.626.977a3.106,3.106,0,0,1,1.372,1.879.389.389,0,0,0,.013.043A3.1,3.1,0,0,1,6.016,32.7L5.1,34.358a2.57,2.57,0,0,0,2.2,3.816l1.914.032a3.109,3.109,0,0,1,2.135.947l.018.018a3.093,3.093,0,0,1,.947,2.135l.032,1.913a2.57,2.57,0,0,0,3.816,2.2L17.82,44.5a3.1,3.1,0,0,1,2.337-.243.389.389,0,0,1,.043.013,3.113,3.113,0,0,1,1.879,1.372l.975,1.626a2.569,2.569,0,0,0,4.407,0l.975-1.626a3.106,3.106,0,0,1,1.879-1.372.389.389,0,0,0,.043-.013,3.1,3.1,0,0,1,2.337.243l1.659.921a2.57,2.57,0,0,0,3.816-2.2l.032-1.913a3.109,3.109,0,0,1,.947-2.135l.018-.018a3.093,3.093,0,0,1,2.135-.947l1.914-.032a2.57,2.57,0,0,0,2.2-3.816L44.5,32.7a3.1,3.1,0,0,1-.243-2.337.389.389,0,0,1,.013-.043,3.113,3.113,0,0,1,1.372-1.879l1.626-.977A2.569,2.569,0,0,0,47.273,23.055ZM18.1,30.6H16.244l-4.954-6.719h-.136V30.6H9V19.869H10.88l4.94,6.688h.134V19.869H18.1ZM27,21.789H22.139V24.3h4.589v1.779H22.139v2.611H27V30.6H19.892V19.869H27ZM39.289,30.6H37.183L35.153,23.5h-.12L33.023,30.6H30.9L28.062,19.869H30.4l1.675,7.567h.12l1.957-7.567h1.9l1.993,7.567h.12l1.659-7.567H42.14Z" transform="translate(838 12628.999)" fill="#fff"/>
  </g>
</svg>
