<svg xmlns="http://www.w3.org/2000/svg" width="112" height="112" viewBox="0 0 112 112">
  <g id="Group_223" data-name="Group 223" transform="translate(-807 -12235)">
    <circle id="Ellipse_4" data-name="Ellipse 4" cx="56" cy="56" r="56" transform="translate(807 12235)" fill="#2b6bb8"/>
    <path id="icons8-paint_brush" d="M29.227,3a3.3,3.3,0,0,0-2.343.971l-6.242,6.242a1.515,1.515,0,0,0,2.142,2.142l2.243-2.243a1.655,1.655,0,1,1,2.343,2.34l-.757.76a1.272,1.272,0,1,0,1.8,1.8l-.071.071a1.657,1.657,0,0,1,2.343,2.343l.071-.071a1.272,1.272,0,1,0,1.8,1.8l2.4-2.4A1.657,1.657,0,1,1,37.3,19.092l-3.89,3.89a1.515,1.515,0,0,0,2.142,2.142L41.8,18.882a3.313,3.313,0,0,0,0-4.686L31.569,3.971A3.3,3.3,0,0,0,29.227,3Zm-12,11.313a1.642,1.642,0,0,0-1.168.485l-3.8,3.8a3.313,3.313,0,0,0,0,4.686l1.754,1.757a2.4,2.4,0,0,1,0,3.4l-.256.259C12.1,30.354,7.77,32.248,5.915,34.1,3.14,36.879,2.174,40.413,3.76,42s5.122.623,7.9-2.152c1.857-1.857,3.77-6.2,5.427-7.854l.243-.243a2.4,2.4,0,0,1,3.4,0l1.757,1.757a3.313,3.313,0,0,0,4.686,0l3.8-3.8a1.657,1.657,0,0,0,0-2.343L18.4,14.8A1.658,1.658,0,0,0,17.224,14.313ZM7.973,36.136a1.657,1.657,0,1,1-1.657,1.657A1.655,1.655,0,0,1,7.973,36.136Z" transform="translate(840.119 12269.117)" fill="#fff"/>
  </g>
</svg>
