<svg xmlns="http://www.w3.org/2000/svg" width="112" height="112" viewBox="0 0 112 112">
  <g id="Group_196" data-name="Group 196" transform="translate(-1264 -1573)">
    <circle id="Ellipse_6" data-name="Ellipse 6" cx="56" cy="56" r="56" transform="translate(1264 1573)" fill="#2b6bb8"/>
    <g id="Group_101" data-name="Group 101" transform="translate(1018.778 959.541)">
      <g id="Group_100" data-name="Group 100" transform="translate(258.222 657.459)">
        <g id="Group_99" data-name="Group 99" transform="translate(0)">
          <g id="Group_98" data-name="Group 98">
            <path id="Path_90" data-name="Path 90" d="M422.164,657.459h-6.746a.937.937,0,0,0-.926.791l-2.728,17.3a.562.562,0,0,0,.556.65h3.461a.656.656,0,0,0,.648-.554l.773-4.9a.937.937,0,0,1,.926-.791h2.135c4.443,0,7.008-2.15,7.678-6.412a5.2,5.2,0,0,0-.861-4.354C426.121,658.055,424.421,657.459,422.164,657.459Zm.778,6.317c-.368,2.421-2.218,2.421-4.007,2.421h-1.017l.714-4.521a.562.562,0,0,1,.555-.474h.467c1.217,0,2.368,0,2.961.693A2.251,2.251,0,0,1,422.942,663.776Z" transform="translate(-363.645 -657.459)" fill="#fff"/>
            <path id="Path_91" data-name="Path 91" d="M268.628,657.459h-6.746a.938.938,0,0,0-.926.791l-2.728,17.3a.562.562,0,0,0,.555.65H262a.938.938,0,0,0,.926-.791l.736-4.666a.937.937,0,0,1,.926-.791h2.135c4.443,0,7.007-2.15,7.678-6.412a5.2,5.2,0,0,0-.86-4.354C272.585,658.055,270.884,657.459,268.628,657.459Zm.778,6.317c-.368,2.421-2.218,2.421-4.007,2.421h-1.018l.714-4.521a.562.562,0,0,1,.556-.474h.467c1.217,0,2.367,0,2.96.693A2.251,2.251,0,0,1,269.406,663.776Z" transform="translate(-258.222 -657.459)" fill="#fff"/>
            <path id="Path_92" data-name="Path 92" d="M322.3,676.706h-3.23a.562.562,0,0,0-.556.475l-.142.9-.226-.327c-.7-1.016-2.258-1.355-3.815-1.355a7.427,7.427,0,0,0-7.21,6.5,6.1,6.1,0,0,0,1.2,4.963,5.056,5.056,0,0,0,4.068,1.642,6.186,6.186,0,0,0,4.472-1.848l-.144.9a.562.562,0,0,0,.555.65h2.909a.937.937,0,0,0,.926-.791l1.746-11.058A.562.562,0,0,0,322.3,676.706Zm-4.5,6.287a3.6,3.6,0,0,1-3.646,3.085,2.5,2.5,0,0,1-2.675-3.141,3.615,3.615,0,0,1,3.62-3.108,2.722,2.722,0,0,1,2.153.88A2.781,2.781,0,0,1,317.8,682.993Z" transform="translate(-291.73 -670.466)" fill="#fff"/>
            <path id="Path_93" data-name="Path 93" d="M475.835,676.706H472.6a.562.562,0,0,0-.555.475l-.142.9-.226-.327c-.7-1.016-2.258-1.355-3.816-1.355a7.428,7.428,0,0,0-7.21,6.5,6.1,6.1,0,0,0,1.2,4.963,5.057,5.057,0,0,0,4.068,1.642,6.184,6.184,0,0,0,4.472-1.848l-.144.9a.562.562,0,0,0,.555.65h2.909a.937.937,0,0,0,.926-.791l1.746-11.058A.562.562,0,0,0,475.835,676.706Zm-4.5,6.287a3.6,3.6,0,0,1-3.646,3.085,2.5,2.5,0,0,1-2.675-3.141,3.615,3.615,0,0,1,3.62-3.108,2.721,2.721,0,0,1,2.153.88A2.782,2.782,0,0,1,471.333,682.993Z" transform="translate(-397.154 -670.466)" fill="#fff"/>
            <path id="Path_94" data-name="Path 94" d="M377.692,677.372h-3.247a.938.938,0,0,0-.775.411l-4.479,6.6-1.9-6.338a.938.938,0,0,0-.9-.668H363.2a.562.562,0,0,0-.532.744l3.575,10.493-3.362,4.745a.562.562,0,0,0,.459.887h3.243a.938.938,0,0,0,.771-.4l10.8-15.583A.562.562,0,0,0,377.692,677.372Z" transform="translate(-329.92 -671.132)" fill="#fff"/>
            <path id="Path_95" data-name="Path 95" d="M515.375,657.934l-2.769,17.614a.562.562,0,0,0,.556.65h2.785a.937.937,0,0,0,.926-.791l2.73-17.3a.562.562,0,0,0-.555-.65H515.93A.562.562,0,0,0,515.375,657.934Z" transform="translate(-432.886 -657.459)" fill="#fff"/>
          </g>
        </g>
      </g>
    </g>
  </g>
</svg>
