<svg id="Component_3_1" data-name="Component 3 – 1" xmlns="http://www.w3.org/2000/svg" width="112" height="112" viewBox="0 0 112 112">
  <circle id="Ellipse_4" data-name="Ellipse 4" cx="56" cy="56" r="56" fill="#ff6a2b"/>
  <path id="icons8-user" d="M19.964,3a8.707,8.707,0,0,0-8.708,8.708v1.451a8.708,8.708,0,0,0,17.415,0V11.708A8.707,8.707,0,0,0,19.964,3Zm0,23.22c-5.814,0-13.273,3.145-15.42,5.935a2.636,2.636,0,0,0,2.112,4.223H33.272a2.636,2.636,0,0,0,2.112-4.223C33.237,29.366,25.775,26.22,19.961,26.22Z" transform="translate(36 35.451)" fill="#fff"/>
</svg>
