<svg xmlns="http://www.w3.org/2000/svg" width="112" height="112" viewBox="0 0 112 112">
  <g id="Group_211" data-name="Group 211" transform="translate(-1264 -7147)">
    <circle id="Ellipse_5" data-name="Ellipse 5" cx="56" cy="56" r="56" transform="translate(1264 7147)" fill="#2b6bb8"/>
    <path id="Subtraction_1" data-name="Subtraction 1" d="M41.96,47.433a3.633,3.633,0,0,1-3.47-4.757L31.6,35.1a13.66,13.66,0,0,1-16.519.819l-4.568,5.027a4.589,4.589,0,1,1-2.736-2.412l4.6-5.056A13.637,13.637,0,0,1,11.89,16.4L6.763,12.2a4.594,4.594,0,1,1,2.22-2.893l5.406,4.426A13.031,13.031,0,0,1,25.3,10.973l1.3-4.758a3.649,3.649,0,1,1,3.521.958L28.748,12.2a12.984,12.984,0,0,1,2.1,1.377,13.625,13.625,0,0,1,3.3,3.4l6.011-2.737a3.65,3.65,0,1,1,1.51,3.325l-5.911,2.686a13.6,13.6,0,0,1-1.688,12.14l7.115,7.832a3.583,3.583,0,0,1,.777-.085,3.649,3.649,0,1,1,0,7.3ZM17.676,29.495a.825.825,0,1,0,0,1.651h9.081a.825.825,0,0,0,0-1.651H20.032a4.234,4.234,0,0,0,.606-2.384l-.048-1.95h2.972a.719.719,0,0,0,.718-.718v-.008a.719.719,0,0,0-.718-.718H20.5l-.093-3.072a2.972,2.972,0,0,1,.672-2.02,2.235,2.235,0,0,1,1.76-.77,2.534,2.534,0,0,1,1.805.621,3.4,3.4,0,0,1,.631,1.192.947.947,0,0,0,.932.746.982.982,0,0,0,.981-.98c0-.089-.039-.366-.04-.369a3.448,3.448,0,0,0-1.02-1.72,4.438,4.438,0,0,0-3.115-1.058,4.706,4.706,0,0,0-3.337,1.187,4.165,4.165,0,0,0-1.267,3.175l.091,3.067h-.936a.719.719,0,0,0-.718.718v.008a.719.719,0,0,0,.718.718h1l.072,1.96v.08a4.7,4.7,0,0,1-.279,1.612,1.237,1.237,0,0,1-.521.682Z" transform="translate(1297.283 7178.284)" fill="#fff"/>
  </g>
</svg>
