<svg xmlns="http://www.w3.org/2000/svg" width="112" height="112" viewBox="0 0 112 112">
  <g id="Group_208" data-name="Group 208" transform="translate(-764 -6246)">
    <circle id="Ellipse_6" data-name="Ellipse 6" cx="56" cy="56" r="56" transform="translate(764 6246)" fill="#ff6a2b"/>
    <path id="icons8-verified_account" d="M21.4,3a7.649,7.649,0,0,0-6.269,3.271,7.643,7.643,0,0,0-8.863,8.863,7.643,7.643,0,0,0,0,12.538,7.643,7.643,0,0,0,8.863,8.863,7.643,7.643,0,0,0,12.538,0,7.643,7.643,0,0,0,8.863-8.863,7.643,7.643,0,0,0,0-12.538,7.643,7.643,0,0,0-8.863-8.863A7.649,7.649,0,0,0,21.4,3Zm9.2,10.735a1.534,1.534,0,0,1,1.084,2.618L20.093,27.947a1.533,1.533,0,0,1-2.169,0l-5.3-5.3A1.533,1.533,0,0,1,14.8,20.483l4.211,4.211,10.51-10.51A1.528,1.528,0,0,1,30.6,13.735Z" transform="translate(798.598 6280.598)" fill="#fff"/>
  </g>
</svg>
