<svg xmlns="http://www.w3.org/2000/svg" width="112" height="112" viewBox="0 0 112 112">
  <g id="Group_230" data-name="Group 230" transform="translate(-684 -14701)">
    <circle id="Ellipse_4" data-name="Ellipse 4" cx="56" cy="56" r="56" transform="translate(684 14701)" fill="#2b6bb8"/>
    <path id="icons8-bill" d="M34.937,3.663,31.61,2,28.284,3.663,24.958,2,21.631,3.663,18.305,2,14.979,3.663,11.653,2,8.326,3.663,5,2V41.915a3.325,3.325,0,0,0,3.326,3.326h26.61a3.325,3.325,0,0,0,3.326-3.326V2ZM23.295,36.926H13.316a1.663,1.663,0,0,1,0-3.326h9.979a1.663,1.663,0,1,1,0,3.326ZM11.653,28.61a1.664,1.664,0,0,1,1.663-1.663h6.653a1.663,1.663,0,0,1,0,3.326H13.316A1.664,1.664,0,0,1,11.653,28.61Zm11.642-4.989H13.316a1.663,1.663,0,0,1,0-3.326h9.979a1.663,1.663,0,1,1,0,3.326Zm6.653,13.305a1.663,1.663,0,1,1,1.663-1.663A1.664,1.664,0,0,1,29.947,36.926Zm0-6.653A1.663,1.663,0,1,1,31.61,28.61,1.664,1.664,0,0,1,29.947,30.273Zm0-6.653a1.663,1.663,0,1,1,1.663-1.663A1.664,1.664,0,0,1,29.947,23.621Zm0-9.979H13.316a1.663,1.663,0,0,1,0-3.326H29.947a1.663,1.663,0,1,1,0,3.326Z" transform="translate(717.369 14733.379)" fill="#fff"/>
  </g>
</svg>
