<svg xmlns="http://www.w3.org/2000/svg" width="112" height="112" viewBox="0 0 112 112">
  <g id="Group_212" data-name="Group 212" transform="translate(-307 -1228)">
    <circle id="Ellipse_4" data-name="Ellipse 4" cx="56" cy="56" r="56" transform="translate(307 1228)" fill="#2b6bb8"/>
    <path id="icons8-today" d="M37.738,4H7.374A3.373,3.373,0,0,0,4,7.374V37.738a3.373,3.373,0,0,0,3.374,3.374H37.738a3.373,3.373,0,0,0,3.374-3.374V7.374A3.373,3.373,0,0,0,37.738,4ZM30.5,23.749l-9.379,9.379a1.686,1.686,0,0,1-2.385,0L14.594,28.99A1.687,1.687,0,1,1,16.979,26.6l2.945,2.945,8.187-8.187A1.687,1.687,0,1,1,30.5,23.749Zm7.242-9.627H7.374V7.374H37.738Z" transform="translate(340.444 1261.944)" fill="#fff"/>
  </g>
</svg>
