<svg xmlns="http://www.w3.org/2000/svg" width="618.937" height="441.444" viewBox="0 0 618.937 441.444">
  <g id="Group_181" data-name="Group 181" transform="translate(0.005)">
    <path id="Path_360" data-name="Path 360" d="M926.355,680.1c5.438,9.611.827,42.073.827,42.073s-30.193-12.781-35.63-22.388a19.992,19.992,0,1,1,34.8-19.685Z" transform="translate(-360.272 -282.455)" fill="#f1f1f1"/>
    <path id="Path_361" data-name="Path 361" d="M930.848,722.894l-.642.135c-6.178-29.351-27.752-49.255-27.969-49.453l.441-.485C902.9,673.29,924.625,693.329,930.848,722.894Z" transform="translate(-363.5 -283.22)" fill="#fff"/>
    <path id="Path_362" data-name="Path 362" d="M986.976,684.638C979.6,698.023,938,716.154,938,716.154s-6.858-44.856.516-58.236a27.669,27.669,0,0,1,48.46,26.72Z" transform="translate(-371.489 -276.052)" fill="#f1f1f1"/>
    <path id="Path_363" data-name="Path 363" d="M939.216,717.771l-.625-.658c30.1-28.587,37.894-68.458,37.969-68.857l.891.168C977.376,648.826,969.536,688.976,939.216,717.771Z" transform="translate(-372.337 -277.183)" fill="#fff"/>
    <path id="Path_364" data-name="Path 364" d="M336.216,465.239a56.908,56.908,0,0,1-14.108-1.825l-.908-.251-.843-.422C289.9,447.469,264.2,427.3,243.981,402.786a226.967,226.967,0,0,1-38.563-68.477,263.56,263.56,0,0,1-14.9-92.845c.013-.663.024-1.175.024-1.528,0-15.357,8.524-28.831,21.716-34.328,10.1-4.207,101.769-41.86,108.393-44.581,12.474-6.25,25.781-1.033,27.911-.121,4.777,1.953,89.522,36.615,107.836,45.335,18.874,8.988,23.91,25.133,23.91,33.256,0,36.776-6.369,71.147-18.931,102.156a236.543,236.543,0,0,1-42.509,68.507c-34.7,39.051-69.412,52.9-69.747,53.017A37.928,37.928,0,0,1,336.216,465.239Zm-8.163-20.22c3.009.675,9.938,1.687,14.453.039,5.737-2.092,34.789-17.157,61.937-47.709,37.51-42.211,56.542-95.275,56.57-157.716-.067-1.265-.965-10.288-12.914-15.977-17.958-8.552-106.044-44.57-106.932-44.933l-.243-.1c-1.846-.774-7.721-2.4-11.77-.281l-.811.378c-.982.4-98.293,40.371-108.671,44.7-7.26,3.025-9.847,10.519-9.847,16.523,0,.439-.011,1.077-.027,1.9C208.969,284.564,218.856,389.7,328.053,445.019Z" transform="translate(-190.465 -158)" fill="#3f3d56"/>
    <path id="Path_365" data-name="Path 365" d="M327.773,172.9s-98.2,40.33-108.717,44.714-15.781,14.9-15.781,25.426-7.891,147.805,124.5,214.182c0,0,12.016,3.325,21.132,0S473.752,397.783,473.752,242.6c0,0,0-15.781-18.412-24.549S347.911,172.9,347.911,172.9,336.979,168.076,327.773,172.9Z" transform="translate(-193.558 -161.101)" fill="#2b6bb8"/>
    <path id="Path_366" data-name="Path 366" d="M350.148,215.286V430.435s-99.072-47.69-98.2-173.064Z" transform="translate(-205.412 -171.926)" opacity="0.1"/>
    <path id="Path_367" data-name="Path 367" d="M182.795,233.018l-31.56-40.579,18.353-14.274,14.943,19.213,50.481-53.29,16.881,15.994Z" transform="translate(-36.767 -35.028)" fill="#fff"/>
    <path id="Path_369" data-name="Path 369" d="M547.205,553.735h11.705l5.569-45.151H547.2Z" transform="translate(-133.028 -123.638)" fill="#ffb8b8"/>
    <path id="Path_370" data-name="Path 370" d="M733.725,721.187H756.78a14.692,14.692,0,0,1,14.691,14.691v.478H733.726Z" transform="translate(-322.534 -294.912)" fill="#2f2e41"/>
    <path id="Path_371" data-name="Path 371" d="M599.205,553.735h11.705l5.569-45.151H599.2Z" transform="translate(-145.669 -123.638)" fill="#ffb8b8"/>
    <path id="Path_372" data-name="Path 372" d="M785.725,721.187H808.78a14.692,14.692,0,0,1,14.691,14.69v.478H785.726Z" transform="translate(-335.176 -294.912)" fill="#2f2e41"/>
    <path id="Path_373" data-name="Path 373" d="M558.46,355.02l2.808,143.243-22.715-1.409-15.759-91.238-4.977-62.209Z" transform="translate(-125.884 -83.483)" fill="#2f2e41"/>
    <path id="Path_374" data-name="Path 374" d="M787.909,474.048l3.183,169.567-26.491-.757-5.722-100.8-9.953-36.5L708.282,486.49l6.635-45.619,59.719-.829Z" transform="translate(-316.349 -226.565)" fill="#2f2e41"/>
    <circle id="Ellipse_45" data-name="Ellipse 45" cx="20.314" cy="20.314" r="20.314" transform="translate(405.573 55.069)" fill="#ffb8b8"/>
    <path id="Path_375" data-name="Path 375" d="M572.349,137.738l3.112,4.714,8.295,23.224-6.636,90.408-38.984.83L533.16,153.234,543.585,140.2Z" transform="translate(-129.614 -33.484)" fill="#ccc"/>
    <path id="Path_376" data-name="Path 376" d="M696.41,319.233l-6.635-.829s-1.659.829-2.488,6.635S676.5,382.27,676.5,382.27l13.271,63.037L704.7,425.4l-9.124-34.836,9.124-34.836Z" transform="translate(-308.623 -196.994)" fill="#2f2e41"/>
    <path id="Path_377" data-name="Path 377" d="M620.917,160.4h4.977l12.442,67.184-11.612,52.255-11.612-19.077,3.318-20.736-1.658-18.247L610.964,211Z" transform="translate(-148.528 -38.995)" fill="#2f2e41"/>
    <path id="Path_378" data-name="Path 378" d="M757.433,247.482l-3.693-.923s-2.77-15.7-9.234-13.85-23.084,3.693-23.084-3.693,15.7-13.85,24.931-12.927,21.026,3.987,24.007,17.544c4.779,21.733-9.86,27.222-9.86,27.222l.244-.791A12.324,12.324,0,0,0,757.433,247.482Z" transform="translate(-319.543 -172.1)" fill="#2f2e41"/>
    <path id="Path_379" data-name="Path 379" d="M695.132,312.676l26.542-10.783,6.221-4.562,18.662,82.529,8.709-85.017,34.422,17.833-11.612,56.4-1.659,21.565,4.977,17.418s17.418,12.442,11.612,25.713-12.442,14.1-12.442,14.1-28.2-26.542-29.86-33.178-4.147-18.248-4.147-18.248-14.1,53.084-30.689,52.255-16.589-18.248-16.589-18.248l4.147-18.248,6.635-19.077-3.318-31.519Z" transform="translate(-313.152 -191.267)" fill="#2f2e41"/>
  </g>
</svg>
