<svg xmlns="http://www.w3.org/2000/svg" width="112" height="112" viewBox="0 0 112 112">
  <g id="Group_206" data-name="Group 206" transform="translate(-807 -4720)">
    <circle id="Ellipse_4" data-name="Ellipse 4" cx="56" cy="56" r="56" transform="translate(807 4720)" fill="#2b6bb8"/>
    <path id="icons8-chat_bubble" d="M23.693,3C11.712,3,2,11.218,2,21.356,2,26.976,4.993,32,9.695,35.367c.12,2.563-.277,6.1-3.813,7.734l-.007,0a.834.834,0,0,0,.3,1.613q.036,0,.072,0c4.062-.026,7.51-2.221,9.888-4.54a3.229,3.229,0,0,1,2.842-.9,25.262,25.262,0,0,0,4.719.44c11.981,0,21.693-8.218,21.693-18.356S35.674,3,23.693,3ZM13.681,18.018a3.337,3.337,0,1,1-3.337,3.337A3.336,3.336,0,0,1,13.681,18.018Zm10.012,0a3.337,3.337,0,1,1-3.337,3.337A3.336,3.336,0,0,1,23.693,18.018Zm10.012,0a3.337,3.337,0,1,1-3.337,3.337A3.336,3.336,0,0,1,33.705,18.018Z" transform="translate(839.307 4753.382)" fill="#fff"/>
  </g>
</svg>
