<svg xmlns="http://www.w3.org/2000/svg" width="112" height="112" viewBox="0 0 112 112">
  <g id="Group_219" data-name="Group 219" transform="translate(-8864 -8328)">
    <circle id="Ellipse_6" data-name="Ellipse 6" cx="56" cy="56" r="56" transform="translate(8864 8328)" fill="#2b6bb8"/>
    <path id="icons8-ethereum" d="M20.144,1a1.576,1.576,0,0,0-1.259.69L6.275,20.18a1.576,1.576,0,0,0,.6,2.3l12.61,6.3a1.576,1.576,0,0,0,1.41,0l12.61-6.3a1.576,1.576,0,0,0,.6-2.3L21.49,1.69A1.576,1.576,0,0,0,20.144,1Zm.043,4.372V16.763l10.277,3.713L20.187,25.605V16.763L10.061,20.221ZM7.518,26.221a1.576,1.576,0,0,0-1.173,2.561l12.61,15.763a1.576,1.576,0,0,0,2.463,0l12.61-15.763a1.576,1.576,0,0,0-1.937-2.4L20.187,32.341,8.282,26.387A1.576,1.576,0,0,0,7.518,26.221Zm5.776,6.2,6.188,3.094a1.576,1.576,0,0,0,.705.166v5.357Z" transform="translate(8899.529 8360.647)" fill="#fff"/>
  </g>
</svg>
