<svg xmlns="http://www.w3.org/2000/svg" width="112" height="112" viewBox="0 0 112 112">
  <g id="Group_231" data-name="Group 231" transform="translate(-1135 -14701)">
    <circle id="Ellipse_5" data-name="Ellipse 5" cx="56" cy="56" r="56" transform="translate(1135 14701)" fill="#2b6bb8"/>
    <path id="icons8-plus_1_year" d="M36.67,4H7.267A3.266,3.266,0,0,0,4,7.267v29.4a3.266,3.266,0,0,0,3.267,3.267h29.4a3.266,3.266,0,0,0,3.267-3.267V7.267A3.266,3.266,0,0,0,36.67,4ZM16.7,28H14.44V31.25H12.3V28H10v-2.1h2.3V22.8H14.44v3.11H16.7Zm6.286,4.412H20.717v-8.87l-2.21.853V22.517l4.236-1.732h.238V32.417Zm6.843,1.292a6.455,6.455,0,0,1-.26.711,2.809,2.809,0,0,1-.443.714,2.282,2.282,0,0,1-.694.55,2.142,2.142,0,0,1-1,.219,2.615,2.615,0,0,1-.268-.011c-.078-.008-.149-.018-.216-.028a2,2,0,0,1-.2-.044c-.07-.018-.149-.041-.238-.069V33.988a1.151,1.151,0,0,0,.132.008h.132a1.888,1.888,0,0,0,.47-.052.927.927,0,0,0,.34-.163.9.9,0,0,0,.232-.283,1.855,1.855,0,0,0,.155-.41l.175-.582-2.488-8.718h2.424l1.037,4.873,1.148-4.873h2.409ZM36.67,13.8H7.267V7.267h29.4Z" transform="translate(1169.031 14735.031)" fill="#fff"/>
  </g>
</svg>
