<svg xmlns="http://www.w3.org/2000/svg" width="774.773" height="561.496" viewBox="0 0 774.773 561.496">
  <g id="Group_185" data-name="Group 185" transform="translate(0)">
    <path id="Path_496" data-name="Path 496" d="M575.581,683.923c.864,6.767,4.04,12.958,7.428,18.922.112.2.227.4.345.606h35.214c.712-.185,1.415-.388,2.115-.606a38.495,38.495,0,0,0,11.119-5.47c12.955-9.334,17.94-26.971,15.689-42.775-1.4-9.819-5.709-19.843-14.1-25.131a21.17,21.17,0,0,0-15.222-2.667c-.133.024-.267.054-.4.082a15.708,15.708,0,0,0-10.522,7.4c-4,7.106-1.618,15.91.349,23.819s3.024,17.377-2.667,23.21a14.518,14.518,0,0,0-16.883-18.871c-.412.088-.818.188-1.218.309a13.516,13.516,0,0,0-2.779,1.164C577.333,667.661,574.615,676.3,575.581,683.923Z" transform="translate(-216.262 -143.103)" fill="#f2f2f2"/>
    <path id="Path_497" data-name="Path 497" d="M594.12,702.792c-.976.227-1.955.427-2.94.606h5.324c.7-.188,1.391-.388,2.079-.606q2.268-.709,4.467-1.627a40.075,40.075,0,0,0,15.392-11.1,31.328,31.328,0,0,0,4.855-7.931,36.026,36.026,0,0,0,2.485-10.149,72.182,72.182,0,0,0-1.43-21.525,89.83,89.83,0,0,0-7.019-21.052q-.577-1.2-1.194-2.394a.467.467,0,0,0-.312-.267.538.538,0,0,0-.4.082.638.638,0,0,0-.251.843,88.807,88.807,0,0,1,7.449,20.292,78.106,78.106,0,0,1,2.215,21.122,33.7,33.7,0,0,1-5.934,18.489,37.3,37.3,0,0,1-13.964,11.458,51.254,51.254,0,0,1-10.819,3.758Z" transform="translate(-213.921 -143.05)" fill="#fff"/>
    <path id="Path_498" data-name="Path 498" d="M583.564,698.8h1.57c.176-.2.345-.4.512-.606a33.459,33.459,0,0,0,7.043-15.049,32.648,32.648,0,0,0-2.815-20.319,33.394,33.394,0,0,0-3.043-5.037c-.412.088-.818.188-1.218.309a31.582,31.582,0,0,1-1.506,40.1C583.931,698.392,583.749,698.6,583.564,698.8Z" transform="translate(-215.05 -138.447)" fill="#fff"/>
    <path id="Path_499" data-name="Path 499" d="M960.277,394.067,802.352,451.342,733.964,262.775,891.89,205.5Z" transform="translate(-192.753 -205.5)" fill="#f1f1f1"/>
    <path id="Path_500" data-name="Path 500" d="M960.277,394.067,802.352,451.342,733.964,262.775,891.89,205.5Z" transform="translate(-192.753 -205.5)" fill="#f1f1f1"/>
    <rect id="Rectangle_72" data-name="Rectangle 72" width="96.047" height="4.541" transform="matrix(0.94, -0.341, 0.341, 0.94, 609.485, 124.236)" fill="#fff"/>
    <rect id="Rectangle_73" data-name="Rectangle 73" width="96.047" height="4.541" transform="matrix(0.94, -0.341, 0.341, 0.94, 613.51, 135.336)" fill="#fff"/>
    <rect id="Rectangle_74" data-name="Rectangle 74" width="96.047" height="4.541" transform="matrix(0.94, -0.341, 0.341, 0.94, 617.536, 146.435)" fill="#fff"/>
    <circle id="Ellipse_65" data-name="Ellipse 65" cx="2.964" cy="2.964" r="2.964" transform="translate(600.186 126.696)" fill="#fff"/>
    <rect id="Rectangle_75" data-name="Rectangle 75" width="96.047" height="4.541" transform="matrix(0.94, -0.341, 0.341, 0.94, 592.14, 76.409)" fill="#fff"/>
    <rect id="Rectangle_76" data-name="Rectangle 76" width="96.047" height="4.541" transform="matrix(0.94, -0.341, 0.341, 0.94, 596.165, 87.509)" fill="#fff"/>
    <rect id="Rectangle_77" data-name="Rectangle 77" width="96.047" height="4.541" transform="matrix(0.94, -0.341, 0.341, 0.94, 600.191, 98.608)" fill="#fff"/>
    <circle id="Ellipse_66" data-name="Ellipse 66" cx="2.964" cy="2.964" r="2.964" transform="translate(582.672 78.404)" fill="#fff"/>
    <rect id="Rectangle_78" data-name="Rectangle 78" width="96.047" height="4.541" transform="matrix(0.94, -0.341, 0.341, 0.94, 626.999, 172.528)" fill="#fff"/>
    <rect id="Rectangle_79" data-name="Rectangle 79" width="96.047" height="4.541" transform="matrix(0.94, -0.341, 0.341, 0.94, 631.024, 183.627)" fill="#fff"/>
    <rect id="Rectangle_80" data-name="Rectangle 80" width="96.047" height="4.541" transform="matrix(0.94, -0.341, 0.341, 0.94, 635.05, 194.727)" fill="#fff"/>
    <circle id="Ellipse_67" data-name="Ellipse 67" cx="2.964" cy="2.964" r="2.964" transform="translate(617.532 174.523)" fill="#fff"/>
    <path id="Path_501" data-name="Path 501" d="M959.06,445.484H791.069V244.9H959.06Z" transform="translate(-184.287 -199.659)" fill="#fff"/>
    <path id="Path_502" data-name="Path 502" d="M959.06,445.484H791.069V244.9H959.06Zm-165.027-2.964H956.1V247.863H794.032Z" transform="translate(-184.287 -199.659)" fill="#e5e5e5"/>
    <path id="Path_503" data-name="Path 503" d="M893.452,315.48h-42.11a2.243,2.243,0,0,1-2.24-2.24V271.13a2.242,2.242,0,0,1,2.24-2.24h42.11a2.242,2.242,0,0,1,2.24,2.24v42.11a2.243,2.243,0,0,1-2.24,2.24Zm-42.11-45.694A1.346,1.346,0,0,0,850,271.13v42.11a1.346,1.346,0,0,0,1.344,1.344h42.11a1.345,1.345,0,0,0,1.344-1.344V271.13a1.345,1.345,0,0,0-1.344-1.344Z" transform="translate(-175.683 -196.102)" fill="#e5e5e5"/>
    <path id="Path_504" data-name="Path 504" d="M882.889,319.909h-42.11a2.018,2.018,0,0,1-2.016-2.016v-42.11a2.018,2.018,0,0,1,2.016-2.016h42.11a2.018,2.018,0,0,1,2.016,2.016v42.11A2.018,2.018,0,0,1,882.889,319.909Z" transform="translate(-177.216 -195.379)" fill="#2b6bb8"/>
    <rect id="Rectangle_81" data-name="Rectangle 81" width="117.513" height="4.541" transform="translate(632.021 142.375)" fill="#f1f1f1"/>
    <rect id="Rectangle_82" data-name="Rectangle 82" width="117.513" height="4.541" transform="translate(632.021 154.215)" fill="#f1f1f1"/>
    <rect id="Rectangle_83" data-name="Rectangle 83" width="117.513" height="4.541" transform="translate(632.021 166.055)" fill="#f1f1f1"/>
    <rect id="Rectangle_84" data-name="Rectangle 84" width="117.513" height="4.541" transform="translate(632.021 186.893)" fill="#f1f1f1"/>
    <rect id="Rectangle_85" data-name="Rectangle 85" width="117.513" height="4.541" transform="translate(632.021 198.733)" fill="#f1f1f1"/>
    <rect id="Rectangle_86" data-name="Rectangle 86" width="117.513" height="4.541" transform="translate(632.021 210.574)" fill="#f1f1f1"/>
    <path id="Path_505" data-name="Path 505" d="M197.1,483.891h12.359l5.88-47.671H197.093Z" transform="translate(29.22 64.671)" fill="#ffb8b8"/>
    <path id="Path_506" data-name="Path 506" d="M456.979,679.722H481.32a15.512,15.512,0,0,1,15.511,15.51v.5H456.98Z" transform="translate(-233.817 -135.195)" fill="#2f2e41"/>
    <path id="Path_507" data-name="Path 507" d="M121.713,476.339l12,2.969,17.161-44.862-17.706-4.382Z" transform="translate(18.044 63.758)" fill="#ffb8b8"/>
    <path id="Path_508" data-name="Path 508" d="M383.019,671.793l23.627,5.847h0a15.512,15.512,0,0,1,11.33,18.783l-.121.489-38.684-9.573Z" transform="translate(-245.352 -136.37)" fill="#2f2e41"/>
    <path id="Path_509" data-name="Path 509" d="M430.5,507.094,419.63,568.955s-4.18,7.524-2.508,10.868,2.508,3.344,0,5.016-5.852,0-5.016,4.18a42.674,42.674,0,0,1,.836,7.524L389.535,676.8s-15.047,6.688-4.18,10.868,21.735,7.524,24.243,3.344,0-9.2,0-9.2l38.455-91.957s5.852-8.36,5.852-13.375,19.227-40.963,19.227-40.963.836,35.947,1.672,38.455-1.672,7.524-1.672,10.867-1.672,3.344,0,5.016,1.672,20.9,1.672,20.9-10.032,74.4-4.18,75.237,22.571-.836,22.571-4.18a4.171,4.171,0,0,0-2.508-4.18L501.555,614.1a13.3,13.3,0,0,1,.836-7.524c1.672-3.344,1.672-3.344,1.672-5.016s-.836-2.508,0-3.344a4.127,4.127,0,0,0,.836-2.508s-1.672-5.016-.836-5.852,19.227-63.534,13.376-71.057S430.5,507.094,430.5,507.094Z" transform="translate(-245.02 -160.788)" fill="#2f2e41"/>
    <circle id="Ellipse_68" data-name="Ellipse 68" cx="21.735" cy="21.735" r="21.735" transform="translate(201.13 169.341)" fill="#ffb8b8"/>
    <path id="Path_510" data-name="Path 510" d="M445.366,391.968c1.118-.749,1.161-2.464.786-3.856a14.472,14.472,0,0,1-1-4.175c.16-3.878,5.5-5.434,5.807-9.294.188-2.374-1.654-5-.591-7.053.671-1.3,2.232-1.731,3.654-1.98a45.4,45.4,0,0,1,16.652.224l.8-2.1,4.068,2.684c.222-1.306,2.029-1.436,3.21-.81s2.2,1.709,3.492,1.918c2.054.333,3.678-1.892,3.569-4.032a10.536,10.536,0,0,0-2.782-5.77,45.756,45.756,0,0,0-12.256-10.609l1.129-2.034-2.418.971-.265-2.433-2.355,1.324-.034-2.191c-2.522,2.9-6.913,2.8-10.768,3.057a31,31,0,0,0-17.71,6.584,23.547,23.547,0,0,0-8.619,16.926c-.219,5.114,1.544,11.337,5.32,15.129C438.493,387.89,443.577,385.8,445.366,391.968Z" transform="translate(-237.858 -185.153)" fill="#2f2e41"/>
    <path id="Path_511" data-name="Path 511" d="M503.8,561.459a10.35,10.35,0,0,1,.892-15.845l-5.8-22.929,13.075-6.921,7.732,32.5a10.406,10.406,0,0,1-15.9,13.2Z" transform="translate(-227.603 -159.502)" fill="#ffb8b8"/>
    <path id="Path_512" data-name="Path 512" d="M481.658,549.512c-26.42,0-50.74-11.956-51.068-12.12l-.273-.136L428.1,484.047c-.643-1.88-13.3-38.982-15.447-50.775-2.172-11.948,29.313-22.433,33.136-23.66l.868-9.611,35.283-3.8,4.472,12.3,12.658,4.746a6.261,6.261,0,0,1,3.88,7.355l-7.035,28.61,13.838,94.655-.355.16A67.171,67.171,0,0,1,481.658,549.512Z" transform="translate(-240.404 -177.228)" fill="#2b6bb8"/>
    <path id="Path_513" data-name="Path 513" d="M503.5,553.165l-12.244-50.407L477.984,441.93l6.737-30.317h5.76c.106,0,10.572.157,12.825,13.677,2.182,13.1,8.764,54.771,8.83,55.191l11.124,71.193Z" transform="translate(-230.703 -174.943)" fill="#ff6a2b"/>
    <path id="Path_514" data-name="Path 514" d="M701.263,694.8H263.778a1.148,1.148,0,0,1,0-2.3H701.263a1.148,1.148,0,0,1,0,2.3Z" transform="translate(-262.63 -133.301)" fill="#cbcbcb"/>
    <path id="Path_515" data-name="Path 515" d="M495.8,621.22,383.265,547.94,473.4,409.511l112.539,73.281Z" transform="translate(-244.745 -175.255)" fill="#fff"/>
    <path id="Path_516" data-name="Path 516" d="M495.8,621.22,383.265,547.94,473.4,409.511l112.539,73.281ZM386.642,547.226l108.449,70.617,87.475-134.338L474.117,412.888Z" transform="translate(-244.745 -175.255)" fill="#e5e5e5"/>
    <rect id="Rectangle_87" data-name="Rectangle 87" width="3.74" height="75.047" transform="translate(216.41 315.486) rotate(-56.93)" fill="#2b6bb8"/>
    <rect id="Rectangle_88" data-name="Rectangle 88" width="3.74" height="75.047" transform="translate(211.105 323.634) rotate(-56.93)" fill="#2b6bb8"/>
    <rect id="Rectangle_89" data-name="Rectangle 89" width="3.74" height="75.047" transform="translate(205.799 331.783) rotate(-56.93)" fill="#2b6bb8"/>
    <circle id="Ellipse_69" data-name="Ellipse 69" cx="2.441" cy="2.441" r="2.441" transform="translate(209.302 308.427)" fill="#2b6bb8"/>
    <rect id="Rectangle_90" data-name="Rectangle 90" width="3.74" height="75.047" transform="translate(239.273 280.376) rotate(-56.93)" fill="#e5e5e5"/>
    <rect id="Rectangle_91" data-name="Rectangle 91" width="3.74" height="75.047" transform="translate(233.967 288.524) rotate(-56.93)" fill="#e5e5e5"/>
    <rect id="Rectangle_92" data-name="Rectangle 92" width="3.74" height="75.047" transform="translate(228.661 296.672) rotate(-56.93)" fill="#e5e5e5"/>
    <circle id="Ellipse_70" data-name="Ellipse 70" cx="2.441" cy="2.441" r="2.441" transform="translate(232.386 272.976)" fill="#e5e5e5"/>
    <rect id="Rectangle_93" data-name="Rectangle 93" width="3.74" height="75.047" transform="translate(193.326 350.938) rotate(-56.93)" fill="#e5e5e5"/>
    <rect id="Rectangle_94" data-name="Rectangle 94" width="3.74" height="75.047" transform="translate(188.02 359.086) rotate(-56.93)" fill="#e5e5e5"/>
    <rect id="Rectangle_95" data-name="Rectangle 95" width="3.74" height="75.047" transform="translate(182.714 367.234) rotate(-56.93)" fill="#e5e5e5"/>
    <circle id="Ellipse_71" data-name="Ellipse 71" cx="2.441" cy="2.441" r="2.441" transform="translate(186.44 343.538)" fill="#e5e5e5"/>
    <path id="Path_517" data-name="Path 517" d="M459.75,531.2a10.35,10.35,0,0,0-12.636-9.6l-13.687-19.288-13.75,5.458,19.711,26.967A10.406,10.406,0,0,0,459.75,531.2Z" transform="translate(-239.347 -161.497)" fill="#ffb8b8"/>
    <path id="Path_518" data-name="Path 518" d="M436.693,541.53,395.279,487.8,410.8,439.036c1.137-12.261,8.81-15.685,9.136-15.825l.5-.214,13.5,36.008-9.914,26.438,24.334,40.927Z" transform="translate(-242.964 -173.255)" fill="#2b6bb8"/>
    <rect id="Rectangle_96" data-name="Rectangle 96" width="6.89" height="2.297" transform="translate(451.729 357.107)" fill="#cbcbcb"/>
    <path id="Path_519" data-name="Path 519" d="M854.225,518.8H840.37v-2.3h13.856Zm-27.711,0H812.658v-2.3h13.856Zm-27.711,0H784.947v-2.3H798.8Zm-27.711,0H757.236v-2.3h13.856Zm-27.711,0H729.525v-2.3H743.38Zm-27.711,0H701.813v-2.3h13.856Zm-27.711,0H674.1v-2.3h13.856Z" transform="translate(-201.628 -159.393)" fill="#cbcbcb"/>
    <path id="Path_520" data-name="Path 520" d="M588.444,314.038h-8.038v-2.3h5.741V306h2.3Z" transform="translate(86.047 45.366)" fill="#cbcbcb"/>
    <rect id="Rectangle_97" data-name="Rectangle 97" width="2.297" height="6.97" transform="translate(672.194 337.426)" fill="#cbcbcb"/>
    <rect id="Rectangle_98" data-name="Rectangle 98" width="2.297" height="6.89" transform="translate(672.194 323.566)" fill="#cbcbcb"/>
  </g>
</svg>
