<svg xmlns="http://www.w3.org/2000/svg" width="112" height="112" viewBox="0 0 112 112">
  <g id="Group_213" data-name="Group 213" transform="translate(-1264 -7510)">
    <circle id="Ellipse_6" data-name="Ellipse 6" cx="56" cy="56" r="56" transform="translate(1264 7510)" fill="#2b6bb8"/>
    <path id="icons8-time_span" d="M26.716,3A23.716,23.716,0,1,0,50.433,26.716,23.746,23.746,0,0,0,26.716,3Zm1.972,4.049A19.736,19.736,0,0,1,46.383,24.744a1.975,1.975,0,0,0,0,3.945A19.736,19.736,0,0,1,28.689,46.383a1.975,1.975,0,0,0-3.945,0A19.736,19.736,0,0,1,7.049,28.689a1.975,1.975,0,0,0,0-3.945,19.731,19.731,0,0,1,10.21-15.39l9.457,9.457V8.929A1.976,1.976,0,0,0,28.689,7.049Zm-11.874,7.79a1.977,1.977,0,0,0-1.378,3.393l9.882,9.882a1.977,1.977,0,0,0,1.783.54l9.882-1.976a1.977,1.977,0,1,0-.772-3.876L27.365,24.57l-9.133-9.133A1.977,1.977,0,0,0,16.815,14.839Z" transform="translate(1293 7539)" fill="#fff"/>
  </g>
</svg>
