<svg xmlns="http://www.w3.org/2000/svg" width="112" height="112" viewBox="0 0 112 112">
  <g id="Group_195" data-name="Group 195" transform="translate(-817 -1573)">
    <circle id="Ellipse_4" data-name="Ellipse 4" cx="56" cy="56" r="56" transform="translate(817 1573)" fill="#2b6bb8"/>
    <g id="Group_102" data-name="Group 102" transform="translate(621.167 1218.888)">
      <path id="Path_96" data-name="Path 96" d="M213.983,415.2l-1.361-10.955-5.621.533,2.574,15.4h6.42c2.811-3.7,6.273-8.971,6.273-13.027a5.952,5.952,0,0,0-.859-3.256l-5.119,1.036a6.071,6.071,0,0,1,.534,2.724c0,2.22-1.57,5.477-2.841,7.549Z" fill="#fff" fill-rule="evenodd"/>
      <path id="Path_97" data-name="Path 97" d="M248.7,404.01c-5.859,0-8.7,5.093-8.7,9.89,0,3.7,1.746,6.661,6.628,6.661a12.681,12.681,0,0,0,5.179-1.036l.68-4.618a9.841,9.841,0,0,1-4.645,1.272,2.186,2.186,0,0,1-2.337-2.516c3.019-.029,8.225-1.272,8.225-5.329,0-2.516-1.8-4.323-5.03-4.323Zm.562,4.768c0,1.48-2.6,1.953-3.639,1.953.148-1.776,1.508-3.018,2.544-3.018a1.015,1.015,0,0,1,1.095,1.065Z" transform="translate(-16.928 -0.062)" fill="#fff" fill-rule="evenodd"/>
      <path id="Path_98" data-name="Path 98" d="M271.566,404.277l-2.515,15.958h5.5l1.746-11.191a4.449,4.449,0,0,1,1.893-.563c.534,0,.978.177.978.888,0,.3-.09.829-.119,1.094l-1.539,9.771h5.473l1.687-10.659a14.889,14.889,0,0,0,.179-2.012c0-2.133-.978-3.554-3.76-3.554a8.212,8.212,0,0,0-4.7,1.54l-.06-1.274Z" transform="translate(-31.83 -0.062)" fill="#fff" fill-rule="evenodd"/>
      <path id="Path_99" data-name="Path 99" d="M305.9,404.277l-2.515,15.958h5.5l1.746-11.191a4.449,4.449,0,0,1,1.893-.562c.532,0,.977.177.977.977,0,.206-.059.532-.088.8l-1.568,9.977h5.474l1.745-11.191a4.184,4.184,0,0,1,1.864-.563c.534,0,.978.178.978.978,0,.206-.061.532-.09.8l-1.568,9.977h5.475l1.685-10.659a14.89,14.89,0,0,0,.179-2.012c0-2.133-.978-3.554-3.788-3.554a8.157,8.157,0,0,0-5.089,1.747,3.66,3.66,0,0,0-3.4-1.747,7.562,7.562,0,0,0-4.556,1.6l-.148-1.332Z" transform="translate(-49.445 -0.062)" fill="#fff" fill-rule="evenodd"/>
      <path id="Path_100" data-name="Path 100" d="M364.8,404.01c-6.126,0-8.788,4.709-8.788,9.742,0,3.819,1.539,6.869,6.184,6.869,6.273,0,8.907-5.151,8.907-10.125,0-3.76-1.687-6.485-6.3-6.485Zm-3.226,9.977c0-1.954.444-5.773,2.6-5.773.975,0,1.3.888,1.3,2.191,0,1.953-.473,5.981-2.515,5.981-.976,0-1.39-.917-1.39-2.4Z" transform="translate(-76.44 -0.062)" fill="#fff" fill-rule="evenodd"/>
    </g>
  </g>
</svg>
